<svg xmlns="http://www.w3.org/2000/svg" viewBox="0 0 207.86 34.38"><defs><style>.cls-1{fill:#1e1e1c;}</style></defs><title>SOY CARLA (2)</title><g id="Capa_2" data-name="Capa 2"><g id="SOY_CARLA" data-name="SOY CARLA"><path class="cls-1" d="M8.11,20.48a6.06,6.06,0,0,1-.64.12,1.71,1.71,0,0,1-1,.07c-.21-.12-.35-.05-.56,0a7.84,7.84,0,0,1-2.32-.12,5.54,5.54,0,0,1-1.64-.77A3.86,3.86,0,0,1,0,16.88a4.09,4.09,0,0,1,.33-2.06,11.85,11.85,0,0,1,.91-1.51,4.68,4.68,0,0,1,.73-1c.12-.21.12-.43.33-.55a7.41,7.41,0,0,1,.58-.48c0-.07.07-.14.1-.22a2.87,2.87,0,0,1,.68-.74.76.76,0,0,1,.21-.24c.42-.05.58-.31.86-.65a.24.24,0,0,0,0-.14h.07l0-.1c0,.05.21.08.36-.07a2.09,2.09,0,0,1,.58-.57.84.84,0,0,0,.4-.24A6.05,6.05,0,0,0,7,7.63c.12,0,.14-.1.21-.1s.38.17.4-.21h.07c0,.09.14,0,.19-.05s0-.14,0-.26a2,2,0,0,1,.43-.17c.16.1.18.1.21-.19a1.17,1.17,0,0,1,.3-.29c.07-.05.14,0,.28-.05h.05V6.19L9.3,6.1A1.67,1.67,0,0,1,9.53,6c-.07.15-.14.27-.11.34s0,.12-.05.14h.05a2,2,0,0,0,.23-.17c.1-.38.14-.45.47-.43.05-.31.12,0,.26,0s0,0,.12-.07c-.08,0-.08,0-.1-.12.14-.15.14-.15.26,0s.07,0,.12,0c.21,0,.32-.12.49-.16s.3-.41.44-.65c-.07-.07-.16-.07-.21-.12a2.57,2.57,0,0,0,.21-.24c.78,0,.52-.22,1.1-.53a20,20,0,0,1,2.37-1.17c.61-.24,1.29-.58,1.85-.79.12,0,.19,0,.16,0s.38.24.4.08c0,0,0-.1-.07-.12s-.12-.15,0-.12c.26-.15.59-.17,1-.36l0,.09c-.07.12-.05.2-.12.22s.15,0,.29-.05a.74.74,0,0,1,.42-.17c.07,0,.09-.14.09-.14h-.07c-.23.09-.37,0-.58,0a3.15,3.15,0,0,1,1-.29c.73-.17,1.45-.29,2.25-.5a19.91,19.91,0,0,1,2.15-.2c.56.12,1.13.15,1.78.24a2.42,2.42,0,0,0,.4.12c.24.17.47.1.68.24a2.44,2.44,0,0,1,.59.48A3.62,3.62,0,0,1,28,2.72a2.73,2.73,0,0,1,.42,1.94,6.93,6.93,0,0,1,0,.79,2.06,2.06,0,0,1-.44,1,8,8,0,0,1-1.24,2,7.52,7.52,0,0,1-.66.77,17.13,17.13,0,0,0-1.36,1.1c-.35.29-.79.43-1.17.7a7.53,7.53,0,0,1-2.06.86,1.27,1.27,0,0,1-1.41-.55,2.32,2.32,0,0,1-.44-.89,4,4,0,0,1,.16-.86c.17-.31.31-.24.4-.07.45.57.89.26,1.45.21a12.83,12.83,0,0,0,2-1.12A9.59,9.59,0,0,1,25,7.73a11.57,11.57,0,0,0,1.64-2.09,4.57,4.57,0,0,0,.53-1.44,2,2,0,0,0,.12-1.13,1.86,1.86,0,0,0-.68-.79,5.91,5.91,0,0,0-2.41-.4,5,5,0,0,0-1.34,0,16.3,16.3,0,0,0-2.27.36,6.31,6.31,0,0,0-1.45.46,9.24,9.24,0,0,0-2.18.69,18.64,18.64,0,0,0-1.85.89c-.56.26-1,.45-1.5.72a.4.4,0,0,1-.23.09,1.74,1.74,0,0,1-.54.39A20.64,20.64,0,0,0,10,7.34a5.78,5.78,0,0,0-1.24.75A20.41,20.41,0,0,0,6.63,9.74c-.68.12-.35.45-.87.72,0,.12-.09.19-.3.14s-.09.07-.12.15a4.56,4.56,0,0,1-.7.93c-.26.1-.33.26-.54.48a2.12,2.12,0,0,1-.58.53l-.1,0s-.09.22-.14.29c-.26.43-.56.81-.84,1.29s-.56,1-.78,1.49c-.14.1-.14.1-.16.19a4.41,4.41,0,0,0-.19,1.49c.05.31.19.72.47.77a15,15,0,0,0,2,.71,19.1,19.1,0,0,0,3.93,0c.87,0,1.62-.07,2.44-.19A5.47,5.47,0,0,1,12,18.66c.61.07,1.22-.19,1.92-.15a6.45,6.45,0,0,0,.91-.24c.19.05.24.05.38-.07a8.5,8.5,0,0,0,1.78.15,6.44,6.44,0,0,1,1.19-.1l.07.05c.26-.05.38-.1.59,0a6.32,6.32,0,0,1,2.39.43,2.27,2.27,0,0,1,1.24,1.05c.26.39.45.75.66,1s.3.58.37,1a1.84,1.84,0,0,1-.09.86,1.62,1.62,0,0,1-.21.68c-.17.31-.21.67-.59.86a11.32,11.32,0,0,0-.94,1.2,4,4,0,0,0-.53.43,2.56,2.56,0,0,0-.43.36,6.88,6.88,0,0,1-.49.65c-.28.23-.51.47-.77.67s-.66.57-.91.81c0,.12-.12.07-.19.12.11-.41,0-.41-.24-.17a.77.77,0,0,1-.25.29.8.8,0,0,1-.26.26,2.68,2.68,0,0,1,.33.08,7.73,7.73,0,0,1-.75.69,1,1,0,0,1-.64.22.92.92,0,0,0-.37.09c-.12,0-.35.27-.42.36s-.38,0-.14.39c0,0-.14,0-.14,0-.4-.16-.12.19-.26.41-.21-.05-.19.24-.38.19h0c-.07.07-.24.07-.33.17a4,4,0,0,1-1,.5c0,.12-.14.12-.16.2s-.12.09-.22-.13A.22.22,0,0,0,13,32a.39.39,0,0,0-.05.15c-.23.16-.35.5-.68.35,0-.14-.14,0-.25,0a3.91,3.91,0,0,1-.68.55.27.27,0,0,1-.42,0h-.26s0,0-.07,0c.09.14.07.21-.07.14-.14.17-.35.19-.61.29,0,0-.12,0-.07,0l.16.05h.1l-.14.12a1.54,1.54,0,0,1-1.74-.29A.53.53,0,0,1,8,32.73a2.31,2.31,0,0,1,.32-1.25A.94.94,0,0,1,8.71,31c.59-.38,1.13-1.05,1.81-1.48a6.92,6.92,0,0,1,1-.7.24.24,0,0,1,.33-.12,1.33,1.33,0,0,0,.94-.53c0-.12.18-.14.28-.16.09-.17.26-.2.47-.41s.46-.41.82-.34l0-.17A1.57,1.57,0,0,1,15,26.9h0a.89.89,0,0,0,0,.22c-.21,0-.35.21-.49.24a1.28,1.28,0,0,0-.33.29c-.51.33-.93.64-1.43.91s-.75.57-1,.76a.13.13,0,0,1-.1.05c-.54.36-1,.84-1.45,1.2-.23.22-.47.43-.68.67s-.09.24,0,.29l.05,0a1.36,1.36,0,0,0-.3.38c-.12,0,0,.17,0,.29s.09.12.12,0c.23,0,.47-.19.63-.19s.52-.15.75-.2a15,15,0,0,0,1.71-.84,9.24,9.24,0,0,0,1-.43c.32-.07.46-.33.75-.45s.37-.31.58-.41a1,1,0,0,0,.19-.12c.23-.22.68-.48.89-.7a3.26,3.26,0,0,1,.4-.21,15.47,15.47,0,0,0,1.19-1.13,6.23,6.23,0,0,0,1.57-1.44.35.35,0,0,0,.21-.07c.1-.19.21-.26.26-.43a27.34,27.34,0,0,0,1.8-2.32,6.82,6.82,0,0,0,.78-1.47,1.41,1.41,0,0,0-.75-1.68,5.42,5.42,0,0,1-1.06-.28c-.11,0-.23.05-.3,0-.24-.05-.35.07-.52,0-.82-.17-1.59,0-2.36-.14l-.8.09a3.79,3.79,0,0,1-1.52-.09c-.07,0-.19.07-.28,0-.26.17-.45.43-.71.24h-.18a7.54,7.54,0,0,1-1.24.24c-.07,0-.17,0-.21-.14-.19-.05-.38-.22-.52.14H11.6a8,8,0,0,1-1,0l-.65.16a1.57,1.57,0,0,1-.61.1c-.12-.1-.26-.07-.45,0A3.89,3.89,0,0,0,8.11,20.48Zm-5.7-7.94s.12,0,0,0l0-.12c-.07-.05-.07-.05-.12,0A.66.66,0,0,1,2.41,12.54Zm.43.44c0,.07.14,0,.07,0a.39.39,0,0,0-.05-.17l-.07.09Zm.39-.75c-.07,0-.09-.05-.16-.05s.07.05.09.12Zm-.11-.55.11,0-.07-.09Zm.44-.38c0-.12.1-.07.12-.15l-.07,0s0,0-.09.22Zm1.13-1h-.1s-.11-.08-.11.05l.07,0Zm.44,0c.07,0,0,.19.12.21s0-.14.12-.09c0-.1,0-.17-.1-.15S5.2,10.24,5.13,10.22ZM7.68,7.58l-.21.19,0,.1c.09,0,.16,0,.19-.19Zm.59.36c0-.07,0-.21.07-.26C8.25,7.65,8.2,7.85,8.27,7.94Zm.52-1c.09.07.09.07.16-.08s0,0-.07,0-.09-.08-.09,0-.08.12-.08.12Zm.32.28h0s0,.1,0,.1Zm2.3,22-.07-.14c-.05,0-.05,0-.07.09h0Zm2.43,2.14,0,.07c.16.05.14,0,.14,0Zm1.08-11.7.12,0c0-.08,0-.1,0-.12a.07.07,0,0,0-.07,0Zm.26-16.62,0-.09-.1.17ZM15.41,3c.14,0,.14,0,.14,0h-.11Zm1.17-.72-.23.12c.14,0,.21-.07.31,0S16.58,2.26,16.58,2.26Zm-.11,17.43.07-.12-.19.09Zm2.27-.17a.42.42,0,0,0,0-.1.51.51,0,0,1,0-.14l-.07.07ZM19.91,1.18a.29.29,0,0,0-.16.07l0,.05c.09,0,.21,0,.33,0C20,1.18,20,1.18,19.91,1.18Z" transform="translate(0 0)"/><path class="cls-1" d="M25.55,20.81s0,0,0-.07a.13.13,0,0,1,.07-.14v-.05a0,0,0,0,0,0,0c-.05,0-.09-.12-.09-.15s0-.17.11-.19,0,0,.07,0h.07c0-.22,0-.24.07-.27s0-.07-.07-.14,0,0,0-.05h0c.05,0,.05-.07.07-.07s0,.07.05.07.11,0,.11,0-.11-.05,0-.1a.5.5,0,0,0,0-.17s.08,0,.08,0,0,0,.07.07,0-.07,0-.07-.07-.26,0-.29,0,0,0,0,.12-.1.17,0a.08.08,0,0,0,.07-.12c0-.1.09-.14.14-.24s.07-.07.07-.07v0l-.1,0,.1.05c-.1,0-.17,0-.21-.05a.11.11,0,0,1,.11-.12c.07,0,.1,0,.19,0s0,0,0-.07v0h0s-.09,0-.12,0,0,0,.1,0,.07-.12.16-.09.1,0,.1,0,.07-.09.14-.09l0-.24s-.07-.1,0-.1l.07-.17,0-.09h-.07c0,.09,0,.09-.14,0s0,.16-.07.12v0l0-.09,0-.08h0l.1,0,0-.07,0-.12h.14v0l0-.12h0l0,0,.17-.05v-.05l.14-.07,0-.07.1-.05,0,0h.07l0,0,.07-.14.07,0H28l.07-.05c0-.1.07-.1.19-.1l.19-.12c-.05-.12-.05-.14,0-.19s.07,0,.07,0a1.16,1.16,0,0,0,.24-.05s.05,0,.05-.07l.14.1c.16,0,.32.19.37.19s.14.05.23.05a.6.6,0,0,0,.08.12.14.14,0,0,1,.07.24s-.05,0,0,.12-.05.09-.1.14a.3.3,0,0,0-.16.05l-.05.09-.42.34s-.14,0-.19,0-.07.12-.11.24v0c-.15,0-.19.12-.26.19s-.12.12-.14.22,0,.07,0,.1-.14.12-.16,0h-.09l0,0s0,.09,0,.09,0,.07,0,.12l-.12.14h-.17s0,.05,0,.15a.15.15,0,0,0-.1,0c-.09,0,.05,0,.05,0s0,.07-.09.07-.17.1-.21.1h0l0,.17s-.05-.05-.07-.05h-.05l0,.05.07,0,0,0h0c.05.09,0,.12-.07.12s-.21,0-.07.16,0,0,0,.1-.14.22-.28.36c0,.1,0,.1,0,.1s-.14,0-.12.07-.11.14-.09.21.07.1,0,0c.09.12-.07.19-.14.27s-.07.09-.07.12l0,.19s0,0-.11.05v.14c-.05,0-.12.05,0,.07l.05,0c-.16,0-.12.23-.21.28l-.09,0c.07.12.07.17,0,.24S26,22,26,22.06s-.05,0-.09.07,0,0,0,0a1.58,1.58,0,0,1,0,.28c0,.1,0,.12,0,.1l0,0c0,.05.07.08,0,.08s0,.16.07.24,0,.12,0,.24v0c.09.07.11.27.16.36h.07c.1,0,.17-.07.26-.09s0-.12.12-.12.11-.1.16-.1.19-.09.21-.21.12,0,.14,0,0,0,.14-.05,0-.12.12,0,.12,0,.07-.1h.05s0-.07,0-.12l0-.14,0,0s.1,0,.1,0,.07,0,.23,0c0,0,.07,0,.07-.05s-.05-.19-.05-.36h.05l0,.17c.07,0,.07,0,0-.1l0-.12s0-.05,0-.05.12.05.05.1a.11.11,0,0,0,.12.07s.09,0,0-.07.09-.1-.1-.22c0,0,0,0,0-.07s0,0,.07,0h.3s0,0,0-.05,0-.19.05-.24h.09c.05.1.14.05.12,0s0-.1-.05-.12.05-.1-.09-.1v0c0-.1.28,0,.28-.2s0,0,0,0,0-.12.07-.24,0,0,0,0-.12,0-.12.07,0,.07,0,.07l0-.07a.24.24,0,0,1,.14-.29s0,0,0,0,0,0,0,.1,0-.07,0-.07,0,0,.1,0,0-.12-.14-.19-.43-.22-.5-.38-.35-.32-.42-.53,0-.19-.07-.27a.37.37,0,0,1,0-.16h.14s.07,0,.07,0a.46.46,0,0,1,.23-.19h.1l0,.07c-.05.1-.09.12-.05.15s.07-.05.1-.05-.05-.1,0-.1,0,0,0-.07l.1.14c0,.05,0,.05.09,0l0,0h.07c0,.2.16.1.35.2l.47.21a.13.13,0,0,1,0,.1s0,0,.05.12.07.07.19,0a.34.34,0,0,0,0,.1h0l0,0s.12,0,.05,0l.56,0a.2.2,0,0,1,.19-.07,1.59,1.59,0,0,1,.56-.12l.05,0s.05,0,.16,0a.31.31,0,0,0,.14,0v-.07a3,3,0,0,1,.42-.07c0-.05,0,0,0,0s.14,0,.14.08c0-.08,0-.08,0-.1v0c0-.05,0-.05,0-.05s.19.05.16,0,.12-.1.26-.05,0,0,.09,0c.05-.17.14-.12.24,0l.09.1,0-.05a.27.27,0,0,0,0-.09c0-.05,0-.1,0-.1a.36.36,0,0,0,.09.05.38.38,0,0,1,.33-.19h0a0,0,0,0,1,0,0l-.12,0v.15l.14,0s0,0,0,0,0-.1.07-.12h.11v-.08l0,0c.19,0,.28-.05.35-.22h0c.05.17.12.1.17,0l.3-.07c0,.17.16.24-1.45,1.29h0c0,.17-.19,0-.26.15-.07-.1-.17,0-.24.05s0,0-.16,0h-.09l-.59.26c-.05,0-.09,0-.07.09a.67.67,0,0,1-.35,0h-.09c0,.12-.15,0-.24.08l-.05,0H31a.09.09,0,0,0-.16,0h-.05l0,.12c-.14-.1-.24,0-.28,0a.86.86,0,0,0-.54.14V21l-.12.24c0,.12-.07.15-.16.15s-.05,0,0,.09,0,.1.07.17-.07.05-.1,0h-.05c.05.07,0,.07-.09.22s0,.07,0,.09-.07.26-.26.34c0,0,0,0-.05,0l.05.15c.05,0,.05.05,0,.07a.24.24,0,0,0-.09.14c0,.08,0,.05,0,.05-.16.07-.37.17-.32.27s0,0,0,0-.09,0-.09,0l-.12.19c0,.13,0,.13-.12,0,0,.15,0,.22-.18.25l-.31.14c0,.05,0,.05,0,.05s-.05,0-.12.07,0,.12-.07.12-.16.05-.16.07-.1.17-.19.07,0,0,0,.1,0,0-.07,0a.79.79,0,0,1-.23.07s-.05,0-.07,0-.14.12-.17,0h0c-.07.22-.21,0-.26,0s-.14,0-.26-.14l-.49-.27a.72.72,0,0,0,0-.19l-.1,0c-.09,0-.09-.12-.14-.24L25.41,23s0-.08,0-.12,0,0,0,0l-.05-.09c.07-.2-.05-.51-.05-.7v-.12c0-.14.07-.19.07-.29s0,0,0-.07a.91.91,0,0,1,.07-.53,1.13,1.13,0,0,1,.05-.24Zm-.07,1.61c-.07,0-.07,0-.07.12v.05c0-.05.07-.05.07-.15Zm0-1.61v0C25.5,20.5,25.48,20.65,25.46,20.81Zm0,.24s0,.08,0,.08v.07c.07,0,.07-.05.11-.07Zm.4-1.31v0h0Zm.09.09s.05.07.05.1h0s.15,0,0-.12Zm.45-1.08v0h.07v0Zm.54-.6h-.12c.05.08,0,.08,0,.1s0-.1,0-.14l.09-.08Zm.07-.12h0s0,0,0,0H27Zm.82,5.42a.33.33,0,0,1-.17-.05c0,.05,0,.05,0,.05l.05,0Zm.12-1.1s0,.14-.1.14l0,0H28s0,0,0-.15Zm.25-3.43v0h.07v0Zm.17,4.22c0-.05,0-.05-.05-.05s0,.07.09.14Zm.51-1.66.14,0h-.14Zm0,.2a0,0,0,0,0,0,0s0,0,.05,0L29,21.63Zm.18-.43H29l0,.07h.1Zm.1-.1-.07,0,0,.09.07,0Zm.3-.26v0c0,.08.12,0,.12,0Zm2.41-1.44c0,.07,0,.07.07.07S32,19.45,31.94,19.45Zm.85-.15a.18.18,0,0,1,0,.1v0h0a.09.09,0,0,0,0-.12Z" transform="translate(0 0)"/><path class="cls-1" d="M36.46,22.4c-.11,0-.11,0-.14.07s.07.09,0,.12l-.14,0c-.1,0-.1,0,0,.15v0h.07c0,.12,0,.12-.12.07a1.25,1.25,0,0,1-.35.41l-.07,0a.08.08,0,0,0,0,0c-.09-.1,0,0,0,.17v.05s-.07,0-.09,0l-.1-.09s0-.05,0,0a.07.07,0,0,0-.05,0c0,.12-.07.28-.07.43a.08.08,0,0,1-.09.09c-.1,0-.19,0-.26-.09a.37.37,0,0,0-.16,0c-.05,0-.07.07-.1.1h.17s0,0,0,0,0,.05,0,.05-.19.07-.21.17l-.05,0s0-.15-.09-.1-.05.07,0,.1a.28.28,0,0,1-.07.26.12.12,0,0,1-.14,0l-.09,0s-.07-.05-.09,0a.53.53,0,0,1-.5.09,1.38,1.38,0,0,0-.63-.09c-.09,0-.23,0-.23-.15s0,0-.05,0-.07-.1-.09-.15a.76.76,0,0,1-.05-.29.44.44,0,0,1-.14-.28c0-.1-.09-.15-.07-.27l.12-.36c0-.12,0-.21.09-.26a.33.33,0,0,1,0-.34.7.7,0,0,0,.1-.47.89.89,0,0,1,.23-.56c.07,0,.05,0,0-.07a.12.12,0,0,1,.07-.07c.1,0,.1-.07,0-.22a.32.32,0,0,1,.09-.24c.12-.07.09-.26.23-.31s0-.07.07-.12c0-.24.21-.33.26-.48a1.81,1.81,0,0,1,0-.33c.05-.1.07-.17.21-.17s.12-.07.14-.1l.07-.16a3.07,3.07,0,0,1,.31-.63l.14-.26c.09-.07.11-.19.18-.26a.28.28,0,0,0,.12-.2.86.86,0,0,1,.19-.19.31.31,0,0,0,.09-.17.93.93,0,0,1,.21-.24s.1-.14.14-.14a.54.54,0,0,1,.31,0,4.37,4.37,0,0,1,.65.32v0h0l-.07.07h0a1.13,1.13,0,0,1,.22.36l-.05.07s-.07,0-.12,0a.59.59,0,0,0-.35.36,2.21,2.21,0,0,1-.37.6c-.05,0-.1.07-.07.1a.6.6,0,0,1-.24.36l0,.09a.73.73,0,0,1-.21.46.39.39,0,0,0-.16.45c0,.05,0,.1-.09.1s-.15.09-.17.21,0,.12,0,.15-.18.12-.14.26,0,.05,0,.07l-.1.05c-.16.07-.16.07-.14.24s0,.07,0,.07a.21.21,0,0,0-.16.17c0,.05-.1.07-.14.1s0,.05,0,.05l.1,0s0-.05.07-.05.09,0,.09.05-.26.62-.35.6h-.07c-.07,0-.1,0-.12.07s0,.14.07.12h.05v0l-.24.45c-.07.08,0,.27.21.08h.12l.21-.08-.07.08,0,0,0,0-.07.05-.07,0h-.05l-.07,0,.07,0,.12,0,.07,0h0l.09,0,.07-.05L34,23l0,0,.07-.08v0a2.88,2.88,0,0,0,.56-.43c.07-.07.17-.15.17-.27s0-.09.09,0a.19.19,0,0,0,.12-.08c.09-.07.21-.12.32-.19.1-.43.64-.57.89-.86l.07-.1c.26-.16.43-.38.68-.55l.14-.14a.86.86,0,0,1,.29-.22.18.18,0,0,0,.09-.07c.16-.17.37-.26.54-.43a.19.19,0,0,1,.12-.05s.09,0,0,0a.13.13,0,0,1,.12-.15s.07,0,.09-.07,0,.1,0,.15l0,0c.07,0,.07-.07.07-.14s0-.15.07-.17c.49-.26.89-.67,1.33-1,.14-.07.24-.19.38-.26s.11-.07.16.07a.08.08,0,0,0,0,0s0,0,0,0v-.08s0,0,0-.07,0-.12.07-.12.07,0,.07,0c.17-.22.38-.07.49-.19s.05-.1.1-.15,0,.07.09,0a.23.23,0,0,1,.26,0s.12,0,.14,0,.09-.07.16-.1.1.05.07.1,0,.07,0,.1.47-.29.49-.05a4.25,4.25,0,0,1,.56.29s0,0,.05,0a4.08,4.08,0,0,1,.47.8.73.73,0,0,1,.09.55s.05,0,0,.07a1,1,0,0,1,.07.38,2.16,2.16,0,0,0,0,.36.72.72,0,0,1,0,.5.11.11,0,0,0-.05.1c.19.19.07.41.1.6s0,.34,0,.5c-.16.1,0,.22-.05.27s0,.21,0,.33l0,.36v.31s0,.08,0,.1a.55.55,0,0,0-.09.31,2.14,2.14,0,0,1,0,.34.19.19,0,0,0,0,.12l.09.36.44-.6s.07-.12.12-.17l.17-.14c.16-.22.32-.39.46-.58a5,5,0,0,1,.8-.91l.8-.7.63-.48.09,0,.07,0s0,.05,0,.05a.78.78,0,0,1-.33.36,1.28,1.28,0,0,0-.28.21.53.53,0,0,1-.12.15,7.94,7.94,0,0,0-.72.62l-.49.58c-.22.21-.38.48-.61.69l-.19.15-.09.14a.94.94,0,0,1-.31.36.87.87,0,0,0-.16.26c-.07.07-.14.05-.24,0a.53.53,0,0,1,0,.24.36.36,0,0,0-.12.19c0,.12-.12.21-.09.31s0,.07,0,.1v.09a.28.28,0,0,0,0,.24c0,.05,0,.15,0,.19s-.07.15,0,.24,0,.07-.09.1c-.42.17.16.31-.09.53,0,.12-.07.36-.19.38l-.12.05c0,.09,0,.07.05.07s.07,0,0,.07l0,0a.12.12,0,0,1,0,.08l0,0h0v0c-.14.07-.24.24,0,.28s.09.05,0,.12l-.17.15c0,.05.05.09,0,.14s-.07.27-.19.39,0,.09,0,.12a3,3,0,0,1-.07.5.84.84,0,0,0-.17.22c0,.14,0,.14-.21.11h-.09s-.07.05-.05.08,0,.24-.14.36,0,.12,0,.16,0,0,0,0a.08.08,0,0,0,.07,0l.07-.07s0,0,0,.09,0,.05.05.07,0,.15-.4.6c0,.07,0,.1,0,.15s0,.14-.07.19h-.12c0-.19,0-.19-.07-.17l-.14.24s0,.05.05.07a.1.1,0,0,1,.07,0l.09-.12.05.19s0,.07-.05.07a.61.61,0,0,0-.28.36.66.66,0,0,0-.11.46s0,.05,0,.05c-.35.09-.07.45-.4.52a.11.11,0,0,0,0,.15s0,.12-.07.09l-.11,0s-.07,0,0,0-.09.19-.14.26a.18.18,0,0,0,0,.22l.12.09c0,.08,0,.17-.1.22s0,0,0-.07,0-.07-.12-.05v.05s0,0,0,0,0,0,0,0,0,0,0-.05-.12,0-.14,0l0,.17c0,.1,0,.07.07.05h.07v.07c-.07.07-.12.17-.3.14s-.07,0,0,.15v.22a0,0,0,0,1-.05,0c-.11-.07-.11,0-.14.07s-.14.12-.21,0L39,33.93s0,0-.05.09,0,0-.07,0-.07-.09-.17-.05-.21-.07-.25-.21l0-.29s0,0,0,0,0,0,0,0a.19.19,0,0,1-.09.19,1,1,0,0,0-.07-.26c0-.1-.16-.22,0-.36V33a.4.4,0,0,1,0-.24.21.21,0,0,0,.09-.17.84.84,0,0,1,.19-.45l.3-.53c-.05-.39.4-.58.4-.94,0,0,0-.05,0-.07s0-.17.07-.17.09-.09.11-.14a1.46,1.46,0,0,1,.1-.34s.07-.07.14-.09a.24.24,0,0,1,0-.17l.33-.53.33-.62a2.4,2.4,0,0,1,.19-.29,2.27,2.27,0,0,1,.28-.45,6.58,6.58,0,0,1,.65-1c.29-.16.24-.26.24-.57a2.83,2.83,0,0,1,.16-.36.34.34,0,0,0,0-.17c0-.05.09-.09.14-.14s.11-.43.11-.48a1,1,0,0,1,.05-.46.82.82,0,0,0,0-.21c0-.1,0-.22.12-.27v0a2.55,2.55,0,0,1,.12-.6c0-.05,0-.12,0-.19s0-.22,0-.29a.1.1,0,0,1,0,0c0-.07.14-.16.12-.26s.09-.41,0-.6c0,0-.1,0,0-.1a.1.1,0,0,1,.12,0c.07,0,.07-.12,0-.22a0,0,0,0,0,0,0c-.12-.05,0-.1,0-.15s.07-.21.1-.31.07-.19,0-.29a.18.18,0,0,1,0-.24c.12-.07.09-.17.09-.29s0,0,0,0-.1.05-.1,0l0-.46v-.17a4.48,4.48,0,0,1-.07-1c0-.19-.1-.35-.14-.5l-.17-.26c0-.07-.09-.07-.09-.17s0,0,0-.05-.21,0-.26.12a.18.18,0,0,1-.09.07,1.45,1.45,0,0,0-.84.44c-.07,0-.07,0-.12,0s-.07.1-.09.07-.17,0-.17.1a.24.24,0,0,1-.21.22l-.05.07h0v0a.18.18,0,0,1,.09,0l-.09,0a1.49,1.49,0,0,0-.21.05.17.17,0,0,0-.12.19s0,.05,0,.07,0,0,0,.05-.24.1-.38.19h-.05a.18.18,0,0,0-.09,0s-.05.05-.05.07,0,.05.05.07.14-.07.14,0-.07.07-.12.12,0,0,0,0a.17.17,0,0,1-.14,0c-.14-.08-.14-.08-.19.07s0,.09-.12.09c-.35,0-.49.53-.14.12,0,0,0,0,0,0s.05,0,.05,0c.07.22-.28.31-.44.39,0,.07,0,.09-.07.16s-.17-.07-.17.05-.09.1-.11.17-.05.05-.07,0-.05-.05-.08-.05-.07.05-.07.07,0,.22-.11.32,0,0,0,.07a.08.08,0,0,1,0,.05c0,.07-.07.12-.11.07s-.07-.07-.14,0l-.07.08s0,0-.05,0a.1.1,0,0,1,0-.07v-.1a0,0,0,0,0-.05,0c0,.19-.12.29-.24.41v0L37,21.58c0,.07,0,.12.07.19l.11.17c0,.12-.11.12-.21.12s-.14.07-.14.17,0,.05-.07.05a.08.08,0,0,1,0-.08s0,0,0-.07-.05,0-.05-.05a.06.06,0,0,0,0,.05.39.39,0,0,0,0,.15.34.34,0,0,0,0,.14S36.49,22.42,36.46,22.4Zm-3.93.24v-.08l0-.21s0,0,0-.05l0,.05c0,.09,0,.17-.05.19Zm2.36.86s0,0-.07,0,0,.05,0,.07.05,0,.09,0Zm.12.21c.07,0,.07-.07,0-.11h0v.11ZM37,22c0-.08,0-.1,0-.1s0,0-.07,0l0,.1s0,0,0,0A0,0,0,0,0,37,22Zm.21-.36c.12.09.12.12,0,.24Zm.08-1.35s.07.08.09,0l.09-.12a.07.07,0,0,0,0,0h0Zm.93-.09a.1.1,0,0,1,.07,0c.26,0,.28-.19,0-.05Zm1.1-.22s0,0,0,0a.07.07,0,0,1,0,0,.18.18,0,0,1,0,.1C39.27,20.07,39.25,20.05,39.27,20Zm0,14.15.14.09c0,.05.07.12,0,.12a.3.3,0,0,1-.14-.05.19.19,0,0,1,0-.12s0,0,0,0ZM39.48,32s0,0,0,.05.05,0,.05-.05,0,0,0-.07A.08.08,0,0,0,39.48,32Zm.24-.57s0,0,0-.05l-.09.05a4.31,4.31,0,0,0-.14.5A.5.5,0,0,0,39.72,31.41Zm-.12,2.85-.05,0a.11.11,0,0,1,0-.12l.07,0s0,0,0,0v.12Zm.28-1.7s0,0-.05,0,0,0,0,0a.13.13,0,0,0-.07.12.2.2,0,0,0,0,.1l.09-.05a.17.17,0,0,0,.05-.12Zm-.07,1.13s0,.09,0,.14,0,0,0,0h0a.31.31,0,0,1,0-.17,0,0,0,0,0,0,0S39.81,33.69,39.81,33.69Zm0-14.7s0,0,0,0,0,0,0,.05a.11.11,0,0,0,0,.07s0,0,0,.05,0-.05,0-.08A.11.11,0,0,0,39.86,19Zm1.64,8.56s0-.05-.07-.05a.57.57,0,0,0-.26.19A2.64,2.64,0,0,1,41,28a1.17,1.17,0,0,0-.28.48,1.45,1.45,0,0,1-.14.29c0,.12-.12.12-.21.12a1.38,1.38,0,0,1,0,.29l-.07.26c0,.07,0,.12-.1.1s-.09,0-.09,0c-.09.22,0,.32-.09.55s-.07.1-.17.1l0,0a.85.85,0,0,0,0,.25l0,0,0,0c0-.15.09-.22.14-.34l.33-.65a.38.38,0,0,1,.23-.24.16.16,0,0,0,.07-.12c0-.12.1-.21.07-.31s.14-.21.21-.31,0-.07,0-.1a.34.34,0,0,1,.07-.16l.12-.24c0-.05,0-.05.12,0s0,0,0,0,.05,0,.07,0,0-.26,0-.43A.07.07,0,0,1,41.5,27.55Zm-1.45,3.07a.24.24,0,0,0-.14.05s0,0,0,.07h0s.09,0,.12,0Zm0,2.8s0,0,0,0a.07.07,0,0,1,0,0s0,0,0-.07A.11.11,0,0,1,40,33.42Zm.47-3.31c-.05,0-.12,0-.16,0a.15.15,0,0,0-.1.14.07.07,0,0,0,0,.05c.09,0,.16-.07.23-.09ZM40.42,32s0,0-.05,0l-.14.07v0a.17.17,0,0,0,.12,0s0-.07.07-.07Zm.09-2.08s0,0-.07,0l0,.07s0,0,0,0Zm.47-.63c.1-.09.1-.09,0-.19l.07-.14.14-.27s0,0,0,0a.1.1,0,0,1-.07,0,1.85,1.85,0,0,1-.11.24c0,.05-.07.09,0,.19Zm.1-11.07,0-.1h0l0,.07,0,0Zm.79,8.89a0,0,0,0,1,0,0h0Zm.19,2.11-.12.19s0,0,0,0a0,0,0,0,1,0,0,1.2,1.2,0,0,1,0-.31c0-.07.07-.07.09,0A.1.1,0,0,1,42.06,29.18ZM42,26.83l-.09.22A.14.14,0,0,0,42,27a.86.86,0,0,1,0-.22Zm0,1.87,0,0s0,0,0,0,0-.24,0-.36,0,0,0,0h0a.53.53,0,0,0,0,.16Zm.35-1.32v0s0,0,0,0a.25.25,0,0,0,0,.12v0s0,0,0,0a.07.07,0,0,0,0-.07S42.34,27.41,42.32,27.38Zm.54-4.84a.08.08,0,0,0,0,0,.12.12,0,0,0,0,.08s0,0,0,0l0,0ZM43,25.37a.1.1,0,0,0,0,.05s.05,0,.05,0a.06.06,0,0,0,0,0S43,25.35,43,25.37Zm.14-3.72a.1.1,0,0,0,.07,0l-.07,0c-.07,0-.09,0-.12.09Zm.26,1a.5.5,0,0,0-.1.36s0,.05,0,0l.12-.33,0,0Zm.12-.55c0-.05,0-.05,0-.05s0,0-.07,0l-.07.14a.12.12,0,0,1,0,.05s0,0,0,0Z" transform="translate(0 0)"/><path class="cls-1" d="M58.08,30.14a1.21,1.21,0,0,0,.7.14c.09,0,.28.12.44.12h.24a1,1,0,0,1,.7.22h.23c.31-.22.43-.22.54-.22h.52c.21,0,.3-.12.44-.12s.71-.14,1-.14.26-.22.38-.22a.85.85,0,0,0,.33-.09h.23c.31-.19.73-.19.94-.36l.14-.15a.41.41,0,0,0,.28-.16h.33c.11-.12.21-.12.21-.32H66a4.25,4.25,0,0,0,.54-.33c.09,0,.21,0,.21-.12H67V28.2h.12a.91.91,0,0,0,.3-.15c0-.12.1-.12.21-.12s.12,0,.33-.33a.36.36,0,0,1,.35-.17.88.88,0,0,0,.29-.34h.09c.21,0,.21-.14.35-.14s.21-.12.21-.34.19,0,.21,0c.1-.29.4-.29.4-.41H70s.12,0,.12-.19h.07c.19-.14.3-.14.3-.26h.07s0,0,.07-.05v.05h.17c0-.34.14-.34.14-.5h.21l.16-.17h.14c0-.17,0-.17.14-.17s.1-.14.1-.14c0-.17.23,0,.25-.17l0-.17a.16.16,0,0,0,.12-.07v.07a.57.57,0,0,0,.51-.46c.14,0,.19-.14.26-.19h-.07v-.14c.12,0,.12,0,.12.14.12-.14.12-.14.33-.14v-.17h-.14c.14,0,.14-.17.28-.17.09.17.09,0,.09,0s.28-.09.42-.28.28-.34.38-.34a4.81,4.81,0,0,0,.42-.48c.16-.1.07-.1.37-.1,0-.16,0-.31.1-.16,0,0,0-.15.07-.15s.21-.14.21-.14l.07-.15h.12l.11-.16c0-.12,0-.12.17-.12a2,2,0,0,0,.44-.58c.12,0,.12-.21.21-.33s.17,0,.17-.1.09,0,.21-.19c0,0,0-.1.14,0s0-.1.14-.1V20c-.14.19-.14.19,0,.19s.09.1.09.1h-.09c-.12.12-.12.31-.28.43.14,0,.16-.1.28-.1l.09-.21a.37.37,0,0,1,.26-.12v.12c-.16.21-.26.21-.26.31s-.09.21-.09,0c-.14,0-.14,0-.14.21a.78.78,0,0,1-.52.55l-.09.15c-.12,0-.12,0,0,.14H76.2l-.14.31-.07.17a.11.11,0,0,1-.11.12h-.17s0-.12-.11,0a.1.1,0,0,0,.11.1H76v.24a.51.51,0,0,0-.39.29v-.2l.11-.09h-.23c-.07,0-.07,0-.07.09H75.2c0,.27-.07.15-.17.2s0,.19-.11.19,0,0-.1.09v-.09h-.16c-.14,0,0,.09,0,.09v.17h.16v-.17l.1.17v-.17s.11-.09.11,0,0,.17-.11.48c-.1,0-.1.19-.26.19,0,.15-.14.34-.26.34h-.16c-.1.12-.1.12-.26.12h-.12a.82.82,0,0,1-.3.65c-.12,0-.12.17-.21.17,0,.16-.14,0-.14.16v.34L73,25.51c-.12,0-.12.22-.24,0v.22a.78.78,0,0,0-.3.26s-.1,0-.1.19c-.11,0-.3,0-.3.12s-.12.22.19.22c0,.09-.19.09-.19.09-.12.22-.42.34-.52.48s-.14,0-.28.2c-.12-.08-1.08.91-1.12.76l-.07-.12v.27c.07,0,0,0,0,.19-.12,0-.26.12-.45.12h-.11c-.1.24-.1.24-.1,0-.21,0-.21-.12-.21,0s-.09,0,0,.24v.09c-.09.2-.21.2-.35.32h-.21v.16c-.09-.16-.09,0-.21,0l-.28.32c-.12,0-.24.19-.45.19,0,0-.12,0-.12.09v.22a.63.63,0,0,0-.42.14.74.74,0,0,0-.42.12.67.67,0,0,1-.61.34s-.14.19-.3.19h-.24c0,.17-.11.17-.3.17s-.26,0-.26.12h-.3a4.91,4.91,0,0,1-1.06.48c-.11,0-.11-.17-.3,0,0,0-.14,0-.14.12a.43.43,0,0,0-.38-.12.33.33,0,0,0-.25.12c-.19.26-.33,0-.45,0h-.07c-.19,0-.19.26-.19.26-.23-.26-.44,0-.56,0H60c-.12,0-.12,0-.26-.26h-.1c-.18.26-.18.26-.32,0s0-.12-.1-.12v.12c-.16,0-.35-.12-.44-.12-.1-.17-.1-.17-.31-.17a.41.41,0,0,0-.39-.14H57.7a4.15,4.15,0,0,0-.84-.29,2.69,2.69,0,0,0-.82-.7c0-.12-.21-.26-.21-.26a5.31,5.31,0,0,1-.42-.5c-.15,0-.33-.32-.4-.48a3.18,3.18,0,0,1-.59-.65c0-.12,0-.12-.12-.31s-.3-.43-.3-.77-.09-.6-.19-.91v-.79a.59.59,0,0,1-.21-.5v-.17s0-.17.21-.17v.17h.1v-.31s0-.17-.1,0c-.21,0-.16-.17-.16-.17a.7.7,0,0,1,0-.29v-.67c0-.17,0-.34.21-.43,0,0,.1,0,.1.09a.09.09,0,0,0,.09-.09h.07S54,23.14,54,23V22.9c0,.1.14.1.14.1v-.12H54v-.22h.14a.89.89,0,0,1,.16-.34,1.75,1.75,0,0,1,.12-.74v-.17a.93.93,0,0,1,.14-.64c.12-.08.12-.08,0-.34l.12-.1c0-.21,0-.35.19-.35,0-.12,0-.12.14-.12,0-.17.07-.32.07-.51s.18-.12,0-.33c0-.15,0-.15.18-.27a.61.61,0,0,1,.15-.5v.17l.11-.17a7.06,7.06,0,0,0,.14-.79.65.65,0,0,0,.26-.43c.12-.39.12-.53.31-.67s.11-.17.11-.32.12-.33.12-.45c.16-.22.3-.36.16-.48h.14V14.8h.1v-.22c.14-.09.14-.09.14-.31h.19V14.1l.09-.07a5.86,5.86,0,0,1,.3-.55c0-.12.12-.29.12-.48h.14c0-.07,0-.1-.05-.12H58C58,12.9,58,13,58,13h.12v-.29c-.15-.17.14-.21.16-.45.12,0,.12-.19.23-.36s.21-.29.31-.65c.09,0,.09,0,.09-.1.19,0,.19-.19.35,0l.1-.19c0-.19.32-.33.14-.48.3.19.11-.12.28-.12s.14-.19.14-.33L60,9.86c0,.17.16,0,.16,0,0-.17.12-.17.12-.17.11-.17.11-.17.11-.29h.17V9.28A.26.26,0,0,0,60.42,9c.11,0,.14,0,.14-.12V8.83c0,.05.07.09.14.09V9h.12c.11-.12.11-.31.32-.45h-.32l.32-.29v.12h.07A.84.84,0,0,1,61.28,8s0,0,0,0h.09l0,0c0,.07.07.17.17.17s.21,0,0-.19c0,0,0-.12.21-.12s.09,0,.09-.22,0-.14.14-.14h.26c-.07-.32.12-.17.12-.32.14,0,.14,0,.33-.12V6.84s-.19,0-.19-.15.16-.09.19-.12.09.12.09,0V6.36c.33,0,.42-.17.68-.26,0,0,0-.15.19-.15s.23-.24.44-.24V5.62c.1,0,.1-.24.1-.24s.09-.12.42-.29c0,0,.11-.12.21-.12a3.24,3.24,0,0,1,.56-.46h.19c.11-.21.21-.36.35-.36V4h-.14c.14-.12.3-.12.44-.32,0,.2-.14.2-.14.2V4c.14,0,.14-.12.21-.12s.19-.2.33-.2.09,0,.09-.16H66.2c.19-.1.42-.1.54-.32H67c.12.22.12,0,.21,0s.21,0,.21-.09l.1-.19A.83.83,0,0,0,68,2.52c.23,0,.4-.09.61-.09a1.51,1.51,0,0,1,.77-.15c.1-.16.21-.16.4-.16.14-.17.14,0,.26,0L70.14,2h.19a.11.11,0,0,0,.11-.12.15.15,0,0,0,.14.12h.17a1.21,1.21,0,0,1,.79-.17h.33a4.17,4.17,0,0,1,1,.34.55.55,0,0,0,.47.16c.09.15.21.15.37.24l.14.24c.28,0,.38.34.54.43a4.79,4.79,0,0,0,.42.68A.9.9,0,0,0,75,4.3c0,.21.19.33.19.48v.93a1.65,1.65,0,0,1,0,.84c0,.29-.19.62-.19.94,0,.14-.11.36-.11.48a9.69,9.69,0,0,1-.4,1.31c-.12.12,0,.24-.12.24s-.16.17-.26.34-.16.31-.28.62a5.46,5.46,0,0,0-.42.67s0,.1-.09.1c0,.24,0,.24-.14.36-.21.29-.45.65-.64,1a2,2,0,0,0-.32.62c-.19,0,0,.17-.19.17,0,.12-.12.12-.19.33l-.23.12c-.1.22-.1.22-.1.29s-.28.17-.44.39-.35.43-.66.62a.9.9,0,0,1-.37.26c-.12.22-.26.22-.45.34H69.2c-.09.19-.09,0-.21.19-.14,0-.35-.19-.44-.19v-.12h-.12c-.17,0-.28-.22-.28-.36s0-.12-.12-.12a.65.65,0,0,1-.12-.31s0-.22.12-.22.12-.09.23-.09c.17-.22.17-.22.29-.22s.3-.17.44-.17a7.06,7.06,0,0,1,1-.91,1.87,1.87,0,0,1,.38-.48c.11,0,.11,0,.25-.14s0-.31.17-.31c.14-.36.35-.65.51-1,.14-.1.28-.1.28-.29a1.84,1.84,0,0,1,.4-.6c.12-.19.12-.33.31-.5.11,0,.11-.17.11-.17V9.52A.68.68,0,0,0,72.57,9c.19-.12.19-.45.31-.74a1,1,0,0,0,.33-.67.14.14,0,0,0,.14-.14c0-.17.09-.17.09-.32s.12-.12.12-.33V6.55c0-.19,0-.19.16-.36V6.1a.72.72,0,0,0,.14-.48V4.3a2.37,2.37,0,0,0-.65-1.11,3.39,3.39,0,0,1-1-.28H70.58c-.14.19-.25.19-.25.19H70a.83.83,0,0,1-.44.09c-.31,0-.4.22-.52.32h-.44c-.12.16-.4.16-.64.48h-.33v.16c-.21,0-.42,0-.51.15a2.9,2.9,0,0,1-.94.67C66,5.09,66,5.09,66,5c-.16-.19-.16,0-.28,0h.12c.16.12.16.12,0,.12v.17c-.14,0-.24.12-.54.12,0,.24-.12.24-.23.24s0,0,0,.09c-.16.24-.3.24-.4.39s-.11.09-.11,0-.21,0-.24.07,0,0-.09,0l.09.17h-.09c0,.19,0,.19-.09,0v.19c-.1.14-.43.29-.54.5,0-.36-.19-.21-.19-.21,0,.21,0,.21-.14.21s-.12,0-.12.12v.15H63a.81.81,0,0,1-.33.65H62.6c-.19-.12-.19,0-.19,0v.19c-.24,0-.28.26-.33.43s-.33.14-.42.33,0,.12-.21.12h-.12a.72.72,0,0,0-.12.48s0,.17-.07.17a4,4,0,0,0-.58.67c0,.12-.17,0-.17.12v.15c-.11.14-.23.14-.23.33H60c0,.19-.12.29-.26.53a.11.11,0,0,1-.1.12c0-.12,0-.12-.18,0v.12l.18-.12c0,.12-.18.29-.32.46s-.1.31-.26.31a.31.31,0,0,0-.28.33.87.87,0,0,1-.1.48v.17c-.21,0-.21.12-.32.33a.12.12,0,0,1-.12.12h-.16c.16.29-.12.46-.24.77l-.14.22c-.12.12-.12.31-.28.31v.48a1.2,1.2,0,0,1-.23.45c-.19,0-.19,0-.19.15.19.17,0,.31-.14.45a.75.75,0,0,0-.1.39c0,.33-.14.43-.3.74A2.44,2.44,0,0,1,55.92,19v.21c0,.31-.09.46-.09.75h-.17v.45c0,.26-.14.34-.14.55s-.11.24,0,.43c-.26.17-.11.29-.11.29-.15.19,0,.38-.15.48v.14a1.3,1.3,0,0,1-.18.87s-.07,0-.07.09h.07v2.57c0,.14,0,.33.18.33a4.33,4.33,0,0,0,.26,1.25c0,.17,0,.17.14.34a1.23,1.23,0,0,1,.26.62c0,.12,0,.12.12.12a7,7,0,0,0,.72.81A6.63,6.63,0,0,0,58.08,30.14ZM55.52,17.77h-.11l.11-.19Zm.4-1.13h-.09l.09-.16Zm0,1.13h-.09l.09.14Zm.31-1.58H56V16s.16,0,.19-.12Zm.11-.6-.11.12v-.12Zm.94-1.1c-.09,0-.09,0-.09.09h.09Zm.8,17.21v-.17h.16A.16.16,0,0,1,58.08,31.7Zm.16-19v-.14C58.12,12.62,58.15,12.64,58.24,12.71Zm.23-.64v0s.1,0,.21,0V11.9C58.47,11.9,58.47,12.07,58.47,12.07Zm0,.64c.21,0,.21-.14.21-.14C58.47,12.57,58.47,12.57,58.47,12.71Zm.4-1.22s-.09,0-.09.12,0,0,0,.12l.09-.12h.19v-.12Zm.19-.34s0,.1.16.1C59.22,11.15,59.22,11.15,59.06,11.15Zm.4-.67v.15h-.14ZM60.7,8.59v.14h-.14A.14.14,0,0,1,60.7,8.59Zm.12,1.1-.12.17h.12s.11,0,.11-.17Zm0-1.27.11-.12A.11.11,0,0,1,60.82,8.42Zm.32-.26c0,.14-.21.14-.21.14S60.93,8.16,61.14,8.16ZM61.21,8v.19h-.07Zm.94-.92V6.84l.12.21Zm1.52-.45s0,.09-.07.09h.07Zm.12-1.06a.26.26,0,0,1,.31-.28C64,5.38,63.81,5.38,63.79,5.54Zm.21.65c-.21,0-.21,0-.21.17H64Zm.63-.48V6s.1,0,.1-.24Zm1-1.56c0-.16.1-.16.1-.16S65.69,4.15,65.59,4.15Zm.54,26.25v-.12a.12.12,0,0,0-.14.12ZM67,3.51s0-.1-.21-.1v.1Zm-.21.64L67,4.3V4.15Zm.63-.74h.1V3.19C67.37,3.19,67.37,3.19,67.37,3.41Zm.54-.5H67.7V3.1A.19.19,0,0,0,67.91,2.91Zm1.9,24.18.14.2s0-.2.09-.2Zm2.11-.48H71.4v.22a.12.12,0,0,1-.14.12v.14c.14-.14.28-.14.38-.26A2.1,2.1,0,0,1,71.92,26.61Zm-.52-.69s0-.07.07-.07H71.4Zm.85.38h.11v.22Zm.32-15.39s.07-.12.14-.14h-.14Zm.19,14h-.19v.17c.14-.12.17-.08.21,0A.49.49,0,0,1,72.76,24.89Zm.8-.14h.16c0-.17,0-.17-.14-.17Zm.16-1.3c0,.17,0,.17.14.17Zm.26.65c-.12,0-.12.19-.12.19H74Zm.56-.48a.18.18,0,0,1,.12.12v0h.16c0-.14-.16-.14-.16-.14Zm1.17-1.7s-.11,0-.11.16h.11Zm.45-.29c-.12,0-.12-.15-.17-.15v.15C76,21.75,76.06,21.63,76.16,21.63Zm.28-.91v.21h.09c.12,0,.17-.09.17-.21h-.26Zm0,.48v.12l.09-.12Zm.84-1.3v-.19c.1-.12.26-.12.35-.33C77.63,19.71,77.38,19.71,77.28,19.9Zm.1.29-.1-.19h.1v-.1C77.54,20,77.54,20,77.38,20.19Zm.74-.93c-.09,0-.09.12-.28.33,0,.12-.09.12-.21.31s-.07,0-.21,0h.12c0-.19.09-.19.21-.31s.28-.33.28-.45Zm-.37-.12h.09v.12c0,.12-.09.12-.21.12S77.75,19.26,77.75,19.14Zm.09.57c.19,0,.19,0,.19.19,0,0,0,.1-.19.1Zm.19-.77v-.12h.09v.12c-.09,0-.09.2-.09.2C77.84,19.14,77.84,18.94,78,18.94Zm.45-.4c-.12.14-.21.14-.21.28h-.15c0-.14,0-.14.15-.14s.21-.31.32-.31Zm-.12.6c-.09,0-.09,0-.09.12h-.15c0-.12.15-.12.15-.32h.09Zm-.09.45h-.15l.15-.21Zm-.15,0,.15.12h-.15Zm.36-.21h-.12v-.12h.12C78.48,19.38,78.59,19.38,78.48,19.38Zm-.07-.56c.07,0,.07-.14.18-.14v.14Zm.28.12v.2c-.1,0-.1-.2-.1-.2Zm.18-.88-.18.17C78.69,18.06,78.69,18.06,78.87,18.06Zm0,.48s-.18,0-.18-.17Zm.31-.6c0-.1.16-.1.16-.1h0a.13.13,0,0,0,0,.1Zm0,.43c0-.14.16-.14.16-.14A.14.14,0,0,1,79.18,18.37Zm.26-.31c0,.17-.1.17-.1.17S79.34,18.06,79.44,18.06Z" transform="translate(0 0)"/><path class="cls-1" d="M95.71,16.28l0,.08c0,.07,0,.09,0,.09s0,.29,0,.41,0,.14,0,.21a2.71,2.71,0,0,1-.26.48,1.41,1.41,0,0,1-.23.58v.07a.59.59,0,0,1,0,.17.44.44,0,0,0-.21.38c0,.07-.07.07-.07.15s0,0,0,.09l0,.07a.58.58,0,0,0-.15.29.28.28,0,0,1-.14.22s0,.09-.07.09c0,.17-.07.24-.18.39a0,0,0,0,1-.05.05c0,.14-.07.21-.12.35a.44.44,0,0,0-.07.29.07.07,0,0,0-.07.07.82.82,0,0,0-.23.44s0,.09-.07.09a.91.91,0,0,0-.24.46c0,.12-.11.26-.18.45a1,1,0,0,0-.12.15,1.53,1.53,0,0,0-.24.5l-.14.24a.25.25,0,0,0-.11.22l-.21.52c-.07.1,0,.27-.07.31s0,.27-.1.32a.72.72,0,0,0,0,.31,1.47,1.47,0,0,0,0,.31v.07c0,.22.12.43.4.43a.61.61,0,0,1,.21.12c0,.07.16.15.16.19s0,.17,0,.27h-.1a1,1,0,0,1-.3,0,3,3,0,0,1-.47,0c-.05-.07-.12-.07-.24-.19s-.07,0-.14,0a2.19,2.19,0,0,1-.44-.43c0-.1-.17-.22-.19-.31v-.07a.87.87,0,0,0,0-.36c0-.2,0-.41,0-.56a2.35,2.35,0,0,1,.16-.62.9.9,0,0,0,.07-.34c.05,0,.05-.11.1-.21a4.56,4.56,0,0,0,.23-.48c0-.05,0-.1.09-.26a1.42,1.42,0,0,0,.21-.46c.12,0,.12,0,.1-.05a.31.31,0,0,1,.09-.21c.07-.12.07-.34.17-.39s.07-.14.16-.21a.88.88,0,0,1,.12-.24.82.82,0,0,1,.18-.39c.19-.26.26-.55.45-.86,0,0,.07-.12,0-.14a2.42,2.42,0,0,0,.21-.43,7,7,0,0,0,.3-.65c.1,0,.07-.05.07-.14s.12-.24.17-.32a1.19,1.19,0,0,0,.14-.36c0-.21.18-.38.18-.6a3.7,3.7,0,0,0,.17-.5c0-.09,0-.17.07-.17a1.91,1.91,0,0,0,0-.21l.07-.1c0-.07,0-.14,0-.19a.28.28,0,0,0-.24-.34.61.61,0,0,0-.46,0h-.4a1.22,1.22,0,0,1-.47.07l-.05,0a2.43,2.43,0,0,1-.65.09.46.46,0,0,1-.26.08c-.07,0-.14.09-.19.09h-.16a.2.2,0,0,1-.17.07,1.63,1.63,0,0,1-.4,0c-.11,0-.16.07-.3.14s-.16.05-.26,0h-.09l-.21.05v.24l0,0v.12a2.11,2.11,0,0,0-.19.15.58.58,0,0,1,0,.14l-.07,0-.16.26,0,.05a.2.2,0,0,0-.07.12v0l-.14.17v0l-.12.17a.15.15,0,0,0-.05.1,1.35,1.35,0,0,0-.16.19l-.12.22-.28.31a2.62,2.62,0,0,1-.51.67l-.07.07a2,2,0,0,0-.1.19l0,0-.19.21c-.12,0-.16.15-.23.29a.51.51,0,0,0-.26.24l-.33.38a.17.17,0,0,1-.16.15l-.12.16-.26.32c-.14,0-.14,0-.14,0v0a.59.59,0,0,1-.28.38c0,.1-.12.12-.19.17a.54.54,0,0,1-.21.36l-.09.1a.36.36,0,0,0-.31.21l-.09.07-.12.2a.26.26,0,0,1-.14,0,.29.29,0,0,1-.14.15l0,.09c-.07,0-.07.05-.11.08a.23.23,0,0,1-.14,0l-.12.1h0a.26.26,0,0,1-.16.1l-.09.07a.31.31,0,0,0-.15.09h0l-.12,0a.26.26,0,0,1-.14,0,.18.18,0,0,0-.14.08l0,0-.26,0-.09.14h0a.77.77,0,0,1-.33-.12s0,0,0,0a.28.28,0,0,1-.14-.05s-.05,0-.07,0c-.17-.05-.24-.07-.26-.1a.67.67,0,0,0-.24-.16H82.1C82,23,82,23,82,23l-.19-.19,0-.12a.67.67,0,0,0-.21-.19.49.49,0,0,1,0-.1.34.34,0,0,1-.08-.14,1.57,1.57,0,0,1-.16-.43,1.61,1.61,0,0,1-.07-.84l-.47.5-.23.36-.19.26a.66.66,0,0,0-.09.15l0,0a.93.93,0,0,0-.32.29c0,.05-.12.22-.24.26a.11.11,0,0,1,0,.1.13.13,0,0,0,0,.07l0,0c-.09,0-.18.09-.3.23h0s-.07,0-.1.05a.18.18,0,0,1-.11,0l-.17.07h0c0,.07-.07.07-.11.07a.5.5,0,0,1-.38,0,.7.7,0,0,1-.25.05,1,1,0,0,1-.5-.34s-.11,0-.14,0h0L77.32,23s0,0,0,0-.14-.08-.14-.17l0-.12a2.44,2.44,0,0,1-.17-.36v-.29s0-.1,0-.17a3.66,3.66,0,0,1,.12-1,.9.9,0,0,1,.21-.52v0l.28-.62a.12.12,0,0,1,0-.07v0l.1-.24a.81.81,0,0,0,.35-.46l.12-.16c.14-.12.23-.24.39-.36a.86.86,0,0,1,.24-.31l.23-.29h0l.14-.05h0a.43.43,0,0,1,.24-.1l.09-.12,0,0v0a.27.27,0,0,1,.09-.17.38.38,0,0,1,.26-.07c0-.12.12-.14.21-.14s0-.15,0-.15l.21-.05a.58.58,0,0,0,.18,0h0s.05,0,.09,0h.54s0,0,0,0h.09a.17.17,0,0,0,.14,0h.21a.35.35,0,0,1,.21.08.55.55,0,0,0,.26.14c.38.34.4.29.84.22,0,0,0,0,0,0a.25.25,0,0,0,.18,0l.26.05h0l.21.24c.16.09.21.21.07.28v0l-.14.26-.19.36a.44.44,0,0,1-.07.24.37.37,0,0,1-.12.24.22.22,0,0,1-.14.19.39.39,0,0,1,0,.15l-.16.43c-.07.12-.21.33-.16.26s0,0,0,0a.5.5,0,0,1-.09.33.42.42,0,0,1,0,.24,1.62,1.62,0,0,0,0,.31s0,.1-.07.17v.14s0,.13,0,.2v.38l.12.05v.14a4.23,4.23,0,0,0,.4.19s.14,0,.16,0v0a.74.74,0,0,1,.26-.17l.07,0a.2.2,0,0,0,.19-.12s.09-.08.14-.15h0a.74.74,0,0,0,.4-.26c.07,0,.19-.15.35-.24l.14-.12L85,21.1A.64.64,0,0,1,85,21l.15-.17,0,0c0-.05.07-.09.07-.14l.16-.12.24-.19c0-.1.16-.17.28-.27l0-.09a.54.54,0,0,1,.24-.24l0,0v0a1.23,1.23,0,0,1,.12-.26s.26-.24.16-.22l.1,0c.09-.1.19-.24.19-.17l.09-.19.09,0h0l.16-.09,0-.1,0-.05h0c.07,0,0-.14,0-.14v0a.36.36,0,0,0,.16-.17v0s0-.05,0-.07,0-.05,0-.08,0,0,0,0l.16-.08v0s.07,0,.07-.07v0s0,0,.1-.09v0c0-.07,0-.12.07-.12l.21-.26.07-.05h0l0,0,.07-.15s0,0,.07-.07l.12-.29v0l.19-.29s0-.12.16-.12a.41.41,0,0,1,.07-.22h0l.21-.14h0l.16-.19s0-.07.07-.1h-.28l0,0h-.21l0,0h0l0,0v-.07h0v0h0v0h0v.07l0,0h-.07s0-.07-.09-.07l.11,0h-.23c-.1-.09-.26-.16-.4-.28s-.09-.08-.07-.15c-.21,0-.26-.21-.38-.4s0-.17,0-.22-.09-.1,0-.24-.1,0-.1,0a.33.33,0,0,1,0-.26,3.75,3.75,0,0,1,.14-.67c0-.08.05-.1.05-.15s.11-.19.09-.36l.23-.31c0-.05,0-.05,0-.17s.07-.09.07-.09a.65.65,0,0,0,.16-.27,1.64,1.64,0,0,0,.07-.21c0-.1,0-.1,0-.1a2.38,2.38,0,0,0,.28-.26c.07-.12,0-.17.1-.24a.29.29,0,0,1,.09-.26c.12-.15.28-.22.35-.34a.29.29,0,0,1,.21-.1c.07-.07.1-.16.21-.24h.07c.26,0,.47,0,.73,0a.76.76,0,0,1,.49.22.26.26,0,0,1,.21.07s0,0,.05.05a.4.4,0,0,1,.19.07h.11c.1.14.17.19.21.26a3.9,3.9,0,0,0,.12.46c0,.09,0,.19,0,.31s-.11.41-.14.6-.21.41-.21.65c0,.09,0,.14,0,.24s-.1.19-.15.43h-.09a.44.44,0,0,1-.07.31c-.14.14-.12.26-.16.38s0,.07-.12.15,0,.12,0,.14v.05a1.24,1.24,0,0,0,.42-.05l.19,0a4.39,4.39,0,0,0,.67-.17c.24-.07.45-.07.71-.12h.37c.24,0,.33,0,.47,0s.24,0,.24,0H94a4.21,4.21,0,0,1,.47.19s.05,0,.12,0a2.17,2.17,0,0,0,.33.19,1.08,1.08,0,0,0,.39.33c.17.1.24.15.26.32a1.33,1.33,0,0,1,.07.43A1.53,1.53,0,0,1,95.71,16.28Zm-17.4,6.16a1.08,1.08,0,0,0,.63-.57l0,0a.46.46,0,0,0,.19-.1l.23-.27a.92.92,0,0,0,.31-.43v0a1.79,1.79,0,0,0,.44-.43v0l.17-.21a2,2,0,0,0,.32-.39,1.35,1.35,0,0,0,.26-.21l.35-.31c0-.1,0-.27.14-.29h0l.38-.53v0l.11-.23c.1-.12,0-.22-.18-.27a2.39,2.39,0,0,0-.59-.38s-.07,0-.14.05h0a.4.4,0,0,0-.19.07.55.55,0,0,0-.4.21l-.12.12c-.11.08-.16.12-.23.12l-.61.7-.3.38v0a.69.69,0,0,1-.29.41,2.68,2.68,0,0,1-.18.33l-.14.29a.53.53,0,0,0-.07.21.45.45,0,0,1-.07.15s0,.05,0,.19v0a1,1,0,0,0-.26.8c0,.07,0,.11,0,.21v.43A1.41,1.41,0,0,1,78.31,22.44ZM88.64,15a.3.3,0,0,0,.21.07h.28c0-.07,0-.07.11-.11a.67.67,0,0,1,.24-.27.66.66,0,0,0,.07-.31c.07-.05.14-.19.21-.24s0-.17.07-.22.09-.33.14-.5a.52.52,0,0,0,.21-.26.42.42,0,0,1,0-.17,1.82,1.82,0,0,0,.15-.48.42.42,0,0,0,.11-.22.45.45,0,0,1,0-.14l.07-.09a.71.71,0,0,0,.12-.37l0-.09c-.09,0-.09,0,0,0l.07,0c0-.07,0-.14,0-.22a.48.48,0,0,1,0-.12v-.09h-.1c-.09,0-.14.09-.18.09s-.15.05-.19.12-.07.08,0,.12-.19.1-.26.24a.26.26,0,0,0-.07.17.32.32,0,0,0-.18.24c0,.05,0,.05,0,.14-.19.12-.19.32-.28.44a.44.44,0,0,1,0,.24c-.07.21-.26.38-.3.5s0,.19,0,.24-.09.12-.14.24a1.89,1.89,0,0,0,0,.36c-.14.12-.12.36-.12.5S88.64,15,88.64,15Z" transform="translate(0 0)"/><path class="cls-1" d="M98.47,17.67v-.09l0,0c0-.07.09-.12.17-.07s.14-.17,0-.34c0,0,0-.05,0-.05s.07,0,.07,0a1,1,0,0,0,.25-.67s.1-.17,0-.12l0,0v0a0,0,0,0,1,0-.05c.11-.07.35-.5.23-.53v0h0v0h0v-.07l0-.05v-.07l0,0v-.07h0v-.14l0-.07V15l0-.08v0l0,0v0l0,0v0l0,0v0l0,0v0l.05-.05v0l0,0v-.07l0,0v-.08h0v-.07l0-.07v0l0-.1v-.14l0-.05v-.12l0,0v0l0-.08,0,0V13.5l.07-.07v0h0v0l.07,0v0l0-.05v0l0-.05v-.07l.07-.12v0l0-.05,0-.07,0,0v-.05l0-.07v0l0,0v0l0-.07,0,0v-.05l0,0v-.07l.07,0,0-.07v0l0-.05v-.05l0,0v0l0,0,0,0s0,0,0,0c.26-.22.12-1.2.43-1.34,0,0,.07-.07.16,0a.12.12,0,0,0,.19-.1.21.21,0,0,0,0-.21c0-.05-.09-.15.12-.15,0-.12.07-.24,0-.26.59-1.7,1.52-2.88,1.76-4.34a1.25,1.25,0,0,1,.23-.57s0-.08,1-1.75l0,0,0,0c.26-.22.42-.17.49-.12a.05.05,0,0,0,0,0l.23.17a.31.31,0,0,1,.07.21.75.75,0,0,0,0,.58c0,.09,0,.24-.14.33s-.07,0-.1,0c0,.26-.18.48-.21.74s-.28.7-.46,1a3.18,3.18,0,0,1-.36.77,2.81,2.81,0,0,1-.23.46c0,.14,0,.31-.12.4L104,8a2.51,2.51,0,0,1-.11.55,2.65,2.65,0,0,0-.4.93.45.45,0,0,1-.21.41c-.07.07,0,.21-.12.24s-.14.12,0,.19c-.23.22-.23.82-.37,1l-.07.09c0,.12-.14.1-.12.22s0,.19,0,.29,0,.21-.12.24a.43.43,0,0,0-.09.16l0,.08-.33.86,0,0a.93.93,0,0,1-.24.43l-.14.17s0,0,.1.07a.94.94,0,0,1-.38.36c-.14,0-.21.09-.21.19s.07.12.07.12.12,0,.12-.07l0-.15.11,0v.05c-.09.19,0,.5-.3.64v.1a.23.23,0,0,1,0,.21l-.14.2c0,.07,0,.09.1.07s0,0,0,.07a.16.16,0,0,1-.07.12c0-.17-.05-.05-.07,0s-.07.1-.07.17c-.31.91-.33.72-.5,1.2,0,0-.09.07-.09.09h0l-.07.05s0,0,0-.05,0,0,0,0v.07s0,.07,0,0a.1.1,0,0,0,0,.07c.09.05.09.05,0,.07s-.12,0-.12.08l.12,0c0,.07,0,.07-.07.14l0,0c-.07,0-.09,0-.11,0s.07,0,.07.07H100a.09.09,0,0,0,.07.08s.07,0,0,0a.07.07,0,0,1,0,.1l-.16.17c0,.09-.14.07-.09.21s0,0-.07,0l-.14,0h.09l-.09-.05h0v.05h0l-.12,0h.07a.32.32,0,0,1,.21.24s0,.08-.07.08-.12.12-.12.14a.22.22,0,0,0,0,.14.14.14,0,0,0,.09.05c0,.07,0,.12-.07.15h0v0h-.07l0,.1h0v.07s-.1-.07-.14,0a.19.19,0,0,1-.08.19c0,.12,0,.07.08,0h.09a.3.3,0,0,0,0,.12l-.26.15v0c0,.05,0,.05,0,.08l0,0,0,.05,0-.07h-.07l0-.1s0,.07,0,.07l0,0h.05c-.05,0,0,.09-.05.09a.36.36,0,0,1-.16-.05c.09.05.07.1.07.1h.21l0,.05a1.13,1.13,0,0,1-.31.16l-.12,0,.12.12h0v.07c.09,0-.17,0-.1.07s0,.1-.07.08l0,.07c.09,0,.18,0,0,.12l0,.19,0,0s-.07.12,0,.12,0,.16-.09.21,0,.12.07.1l0,.07c-.09.14-.09.19,0,.24s0,.09-.1.12l0,.07c-.14,0,0,0,0,.07s-.07.05-.07.07l.07.08c.18,0,0,.14,0,.24-.23,1-.3.93-.33.93a.32.32,0,0,0,0,.12h0v0h0v0h0l0,0a1.85,1.85,0,0,1-.21.5c-.09.31.19.45,0,.69l0,.22,0,0c.19-.05.07.48,0,.58a.49.49,0,0,1,0,.14c.07.05.12.05.1.1a.54.54,0,0,0,0,.43v0l0,0h0a3.3,3.3,0,0,1,.1.67v0a.07.07,0,0,0,.07.07c.07-.07.07-.09.14-.07l0-.19c.05-.07.1,0,.17-.1s.09,0,.07,0a.73.73,0,0,1,.25-.38s.07,0,.07,0,.17-.22.17-.36a.11.11,0,0,1,.09-.1c0-.05.07-.12.12-.12a.5.5,0,0,0-.09.12c0,.05.07.12,0,.17s-.1.14-.1.24a1.23,1.23,0,0,1,0,.26c0,.07-.17.12,0,.22,0,.29,0,.22-.24.57,0,0,0,0,0,.08l-.21.19a.09.09,0,0,1-.1.09.16.16,0,0,0,0-.09.19.19,0,0,1-.12,0c0,.12.07.14-.09.14s-.14.14-.19,0h0c-.16.22-.35,0-.46,0s.07-.07.07-.07,0,0,0,0,0-.07-.09-.07l-.07.07c-.19.07-.19.07-.24,0a2.46,2.46,0,0,1-.21-.43L97.32,27a.23.23,0,0,1-.09-.36l.09-.22-.09.08-.07,0s0,0,0,0,0-.24,0-.27a.29.29,0,0,1,0-.31s0-.05.07,0,0,0,0,0,0-.26-.12-.34-.09-.07,0-.16,0-.07,0-.07,0-.08.07-.05l-.07,0s0-.07-.09-.09a.83.83,0,0,1,.28-.72c.07,0,0-.1,0-.1s-.14,0-.21,0-.09-.05-.07-.09a.1.1,0,0,1,.07-.1c0-.07,0-.07-.07-.07L97,24a.58.58,0,0,1,.09-.27h.07a.35.35,0,0,0,.12-.31c0-.09.09-.22.09-.33s0-.29,0-.46,0-.14.1-.31v0a.18.18,0,0,0-.12,0,.64.64,0,0,0,.12-.36l.14-1c.11-.07.16-.17,0-.17s0-.09.07-.14h.07a.39.39,0,0,0,.07-.27c-.07,0-.07,0-.07.08s-.09,0-.09-.08-.05,0-.05-.09l0-.07h0a.1.1,0,0,0,.17-.08c0-.16.09-.35.14-.57l.09-.19,0-.15s0-.16,0-.19,0-.17.19-.21l.07-.79c.16,0,.14-.17.23-.22a.28.28,0,0,0,.05-.17l-.05-.12,0,.12-.07,0c0,.1,0,.2-.1.2S98.47,17.7,98.47,17.67Zm-.75,6.55s.07,0,.07,0-.07,0-.07-.07,0,.05,0,.07Zm0,.57.07,0v0Zm.14-2.27v-.08h-.07Zm0,3.64v0h0v-.07S97.84,26.16,97.84,26.16Zm.09-2,.07,0-.07-.1ZM98,22s0,0,0,0,0,.07,0,.12l.12-.1Zm0,4a.26.26,0,0,1,.14.05v-.1s-.07-.12-.07-.16S98,25.9,98,26ZM98,22.9v0l0-.07.07-.17a0,0,0,0,0,0,0H98c0,.09,0,.14,0,.19v.07S98,22.9,98,22.9Zm0,.5,0-.07a.07.07,0,0,0-.09.05s0,0,0,0S98.07,23.43,98.07,23.4Zm0-.31s0,0,0,0l0,0s0,0,0,.05S98,23.09,98.05,23.09Zm0,2.42,0,.07.1-.09A.22.22,0,0,0,98,25.51Zm0-.53,0-.07h0C98,25,98.05,25,98.05,25Zm0,1.28s0,0,0,.09.09.12.09.22,0,.09,0,.07l0-.36S98.07,26.28,98.07,26.26Zm0-4.06,0,0v0s0,0,.09,0S98.09,22.2,98.09,22.2Zm0-.45a.07.07,0,0,0,.07.07s0-.07.11-.05l-.11,0Zm0,5.3a0,0,0,0,1,0,0c.07,0,.07,0,.07,0s0-.07,0-.1S98.16,27.05,98.12,27.05Zm0-.27s0,0,0,0v0Zm.07-6.42s0,.05,0,.07h0C98.3,20.38,98.23,20.38,98.21,20.36Zm0,5.61s0,0,0,0v0ZM98.28,22v0h0Zm0,.72,0,.12.07-.08c0-.09.14,0,.21,0h.07v-.05h-.16C98.35,22.71,98.33,22.76,98.28,22.76Zm0,4s0-.07-.1-.07C98.33,26.78,98.23,26.78,98.33,26.78Zm0-3.38s0,0,0,0,.07,0,.1-.07,0-.17-.1-.2S98.16,23.28,98.28,23.4Zm0-.91v0l0,0v.05S98.33,22.49,98.33,22.49Zm0,4.75v.12s0-.07,0-.07S98.3,27.24,98.3,27.24Zm0-3.24h0v-.07a0,0,0,0,0,0,0Zm0-2.92.05.07v-.07a.1.1,0,0,0,.09-.1C98.42,21,98.37,21,98.35,21.08Zm.07,1.05V22l-.07.09v0h.05S98.4,22.13,98.42,22.13Zm0,1.3H98.4v0h.07Zm0-.43s.07,0,.09,0v0c0-.05,0-.1-.09-.1h-.07C98.42,23,98.42,23,98.49,23Zm0,4.05h-.07V27h.07Zm.05.26c0,.05-.07.05-.07.1l0,.09h.07l0-.07A.3.3,0,0,1,98.54,27.31Zm-.05-5.13c0,.07,0,.07,0,.07s.09-.07.09-.09h-.07A0,0,0,0,1,98.49,22.18Zm.21-1.08s0-.07,0-.07a.63.63,0,0,1-.12.07.2.2,0,0,0,0,.07C98.63,21.17,98.63,21.13,98.7,21.1Zm-.07-.29,0-.07C98.61,20.65,98.58,20.74,98.63,20.81Zm0-4,0-.07.07-.07A.37.37,0,0,1,98.61,16.81Zm0,5.85s0,.07,0,.07l0-.07,0,0Zm0-1,0,.05S98.68,21.7,98.68,21.7Zm.14-.48s-.09,0-.09,0l0,0,.12,0ZM98.87,27h0l0-.08Zm.07.33v0h0A0,0,0,0,0,98.94,27.31Zm0-6.71v0s0,0,0,0,0-.07,0-.07S98.91,20.6,99,20.6Zm.12-.36s0,0,0,0l0,0,0,.08Zm.19.48v-.07s0,0,0,0Zm0-1.3s0,0,0,0,0,0,0,0l0,0Zm0,.34s0,0,0,.07l.05,0-.1-.12Zm.17-.36,0,0,0,0s-.08.17,0,.24h0C99.45,19.5,99.45,19.42,99.5,19.4Zm.19,0v0a.11.11,0,0,1-.07,0C99.62,19.4,99.64,19.38,99.69,19.38Zm0-.2s.07-.07.11-.07l0,.07Zm.07-.38.07-.05h-.07Zm.42-.67s0,0,0-.07h0Zm1.75-7.67h0C101.89,10.53,101.89,10.53,101.93,10.46Z" transform="translate(0 0)"/><path class="cls-1" d="M111.21,22.13c-.07.05-.17.24-.28.29a.35.35,0,0,0-.19.1c.07.14-.26.07-.45.19-.18.33-.65.21-.77.45a.45.45,0,0,1-.49.15c-.09,0-.16.09-.28,0a.26.26,0,0,0-.26,0,1.61,1.61,0,0,1-.28.1l0-.05a.48.48,0,0,1-.21-.12,2.66,2.66,0,0,1-.45-.31,1.08,1.08,0,0,1-.47-.67l-.11-.34a2.63,2.63,0,0,1,0-.62c0-.19.07-.34,0-.58,0,0,0,0,0,0s0,0,0,0-.12-.27,0-.34,0-.17,0-.26.53-1.13.37-1.35a.1.1,0,0,0,0-.07l0,0,0,0a.08.08,0,0,0,0,.07.62.62,0,0,0-.38.36,1.93,1.93,0,0,1-.35.46c-.14.14-.21.29-.35.43a.9.9,0,0,0-.21.34.62.62,0,0,1-.45.45.5.5,0,0,0-.16.36,2.61,2.61,0,0,1-.54.72c-.09.12-.16.26-.35.26,0,.05-.07.08-.07.17a.38.38,0,0,1-.38.29.13.13,0,0,0-.14.14c0,.05,0,.12,0,.15a3.2,3.2,0,0,1-.61.33.13.13,0,0,1-.19,0c-.05-.08-.07-.05-.07,0s0,.12-.12.07a1.14,1.14,0,0,1-.49-.12,1.25,1.25,0,0,1-.44-.24.4.4,0,0,0,0-.17s-.07-.12,0-.14v-.1a.19.19,0,0,1-.11-.19,4.3,4.3,0,0,1,.16-.81c.09-.19.12-.39.23-.6s.1-.22.19-.41a.4.4,0,0,1,.14-.24.14.14,0,0,0,.07-.12,3,3,0,0,0,.28-.36l.05-.17a.18.18,0,0,0,.09,0c.07-.12.21-.2.26-.34a2.18,2.18,0,0,0,.42-.6c.14-.19.26-.31.4-.48s.24-.29.4-.41.07,0,.07-.07.16-.21.33-.31c0-.05.07-.07,0-.12s0-.17.1-.24a.06.06,0,0,1,0,0c.17.12.36,0,.54.07s.21,0,.31-.07a1.6,1.6,0,0,1,.26.21,1.32,1.32,0,0,0,.39.17.27.27,0,0,1,.26.07c.21.17.28.15.49,0a.22.22,0,0,1,0-.12c.21-.07.28-.24.45-.41s.09-.14.16-.16.16.09.26.12a.11.11,0,0,0,.14,0h.11a.73.73,0,0,1,.4.17c.24.1.21.14.21.29a.44.44,0,0,1,0,.17,1.12,1.12,0,0,0-.09.6.17.17,0,0,0,0,.09,4.28,4.28,0,0,0-.14.43c0,.1,0,.19-.09.22s-.07.12-.07.17,0,.14-.07.24a1.27,1.27,0,0,0-.21.6c0,.07,0,.14-.1.24a1.63,1.63,0,0,1-.09.45c0,.05,0,.12-.07.14s-.12.08-.09.15a2,2,0,0,0,0,.36c0,.07,0,.14,0,.19a.42.42,0,0,0-.05.24,3,3,0,0,0,.09.79c0,.05.1.17.24.24l.14,0a.53.53,0,0,0,.33.1,9,9,0,0,0,2.74-1.49,38.07,38.07,0,0,0,2.9-2.75c.07.09,1.59-1.39.23.14A11.42,11.42,0,0,1,111.21,22.13Zm-5.32-3v-.05s0,0,0,0,0,0,0,0a2.71,2.71,0,0,1,.35-.34c0-.07.16-.12.16-.21s.12-.14.24-.22a.37.37,0,0,0,.18-.24l-.09,0a1.2,1.2,0,0,0-.33,0,.78.78,0,0,0-.63.07,1.06,1.06,0,0,1-.23.24c-.07.05-.21.07-.21.12s-.19.07-.24.14,0,.19-.12.27-.07,0-.07.07-.11.07-.14.14a2.29,2.29,0,0,0-.32.41,3.49,3.49,0,0,0-.33.41c-.12.05-.1.19-.17.26a1.47,1.47,0,0,0-.46.55c-.1.05-.15.12-.15.31a.39.39,0,0,1-.11.27c-.24.21-.24.53-.35.81t0,.12s0,.05.07.05a.12.12,0,0,0,.11,0s.07-.08.12-.1a7,7,0,0,0,1.08-1.1c0-.07,0-.07.19,0s.09,0,.09.05.07,0,.09,0v-.08c0-.09-.21-.12-.11-.21a.38.38,0,0,1,.11-.19l.14-.15c.05-.09.14,0,.24,0a.36.36,0,0,1,.26-.52s0-.05,0-.1.12-.24.24-.34.14-.12.25-.21S105.89,19.23,105.89,19.14ZM105,20.38s0,0,0,0Zm0,0s0,0,0,0Z" transform="translate(0 0)"/><path class="cls-1" d="M147.63,22.2c0-.24.35-.12.46-.24s.28-.19.45-.28a1.93,1.93,0,0,0,.68-.63c.21-.14.56-.24.72-.38.19.1.24.1.21-.1v-.09c.33,0,.38-.27.57-.34a2.05,2.05,0,0,1,.51-.38c0,.1,0,.1.17.24h-.21c-.19,0-.29.19-.36.33v.1a.93.93,0,0,0,.57-.43c.35.33-.31.65-.5.84a1.42,1.42,0,0,0-.7.53,2.35,2.35,0,0,1-.3.45,5.35,5.35,0,0,0-1.08.6c-.19.12-.26.31-.37.38a12.11,12.11,0,0,1-1.55.8c-.45.28-.87.52-1.29.81a4.93,4.93,0,0,1-1.26.57c-.1,0-.19.2-.26.29a3.91,3.91,0,0,0-1.06.39,12.37,12.37,0,0,0-1.85.5c-.39,0-.84.24-1.35.29l-1.34.16a8,8,0,0,1-1.69.15,5.49,5.49,0,0,1-3.34-1.49,10,10,0,0,1-1-.93l.17-.15-.31-.59c-.09,0-.09-.12-.19-.12-.09-.22-.18-.25-.18,0s.11.72.11,1a.43.43,0,0,0-.14.36c-.11.29-.61,1.61-.72,1.32-.26-.22-.28-.24-.28.19,0,.12-.17.24-.17.38s0,.41.17.29a.72.72,0,0,1,0,.19c0,.2,0,.2,0,.15-.54-.27-.64-.15-.54.33a1.34,1.34,0,0,1-.1,1.06v.89c0,.14,0,.4-.11.5.21.19,0,.29,0,.45l-.12,0c-.21-.34-.21-.34-.21,0-.12.07-.21,0-.21,0a.8.8,0,0,1-.1-.74c-.4-.22-.14-.46-.14-.86a.83.83,0,0,1-.11-.44.6.6,0,0,0,.11-.38c0-.69.56-2.61.66-3.33a16.67,16.67,0,0,1,.54-1.68c0-.38.18-.77.25-1.24a9.42,9.42,0,0,0,.64-2,6.92,6.92,0,0,0,.26-.72l.11,0,0-.07c-.26-.17,0-.24,0-.29.12-.6.42-1,.56-1.61.38-.88.64-1.89,1-2.8a3.87,3.87,0,0,0,.42-1c.28-.79.61-1.49.86-2.23s.57-1.46.82-2.14a22.18,22.18,0,0,0,.94-2.47c.12-.26.21-.23.28-.21.24.21.52.29.7.55a.59.59,0,0,1,.38.24.71.71,0,0,1,.26.82l-.85,1.65c-.14.29-.25.6-.35.84-.16.45-.37.93-.51,1.39a4,4,0,0,0-.45,1.2c-.09,0-.09.07-.19.19s-.07.62-.25.81c-.29.77-.54,1.49-.87,2.26-.12.31-.28.6-.4.88-.26.46-.4.92-.68,1.49a4.59,4.59,0,0,1-.26.94c-.21.14-.07.33-.21.55a.12.12,0,0,1-.16.12v.14a1.35,1.35,0,0,0-.09.6s-.1.07-.14,0c.23.12.39.26.6,0,.43-.24.75-.38,1.13-.55a4,4,0,0,0,1.05-.6s.19-.05.26-.14l.07,0v-.09c.26,0,.54-.22.8-.27v.12s.09,0,.09-.12h-.09c.16-.07.23-.26.4-.31,0,0,0-.05,0-.05s0,0,0,0h0a0,0,0,0,1,0,0c.12.07.19.17.3.22a.32.32,0,0,0-.21-.24A17.28,17.28,0,0,1,138.87,18c.51-.31,1-.72,1.42-.94a4.24,4.24,0,0,1,.78-.69c.25-.14.49-.48.79-.62a5.44,5.44,0,0,0,.5-.32c.11-.09.18-.19.28-.21.32-.26.58-.53,1-.79a3.36,3.36,0,0,1,.54-.48c.42-.41.74-.72,1.19-1.2a3.1,3.1,0,0,0,.59-.69,17.88,17.88,0,0,0,1.8-2.09,16.94,16.94,0,0,0,1.52-2.47c0-.17.17-.36.24-.55a6.07,6.07,0,0,0,.35-2.52,2.8,2.8,0,0,0-.75-2,3.11,3.11,0,0,0-1.62-.86,1.29,1.29,0,0,0-.75-.22,4.89,4.89,0,0,0-1.17-.12c-.73,0-1.4.08-2.13.05a.77.77,0,0,1-.52,0c-.32.05-.65.07-1,.1a6.26,6.26,0,0,1-1.5.24c-.23,0-.51.21-.79.26-.07,0-.26.1-.33.05a.93.93,0,0,1-.33.17,4.53,4.53,0,0,0-1.71.38c-.44.19-.89.26-1.33.46-.24.11-.52.19-.89.36h-.07c-.1,0-.1,0-.19,0a9.73,9.73,0,0,1-1.55.77,17.14,17.14,0,0,1-1.68.76c-.52.29-1.1.65-1.62.91-.07.12-.07.12-.19.17s-.16,0-.25,0-.05,0-.05,0V6c.05.14.05.14,0,.19a16.33,16.33,0,0,0-1.94,1.36l-.17,0a1.86,1.86,0,0,1-.58.6,24.66,24.66,0,0,0-2.6,2.61,15,15,0,0,0-1.62,2.21c-.23.36-.49.81-.7,1.2a12.3,12.3,0,0,1-.68,1.7,4.66,4.66,0,0,0-.28,2.16,4,4,0,0,0,.93,2.22.88.88,0,0,0,.8.22c.07-.07.26-.05.35-.17a.87.87,0,0,1,1,.27,6,6,0,0,1,.4.62h.12a2.64,2.64,0,0,0-.73.48,1.79,1.79,0,0,1-1.52-.17,4.09,4.09,0,0,1-1.2-.81,4.54,4.54,0,0,1-1.38-2.26,3,3,0,0,1-.19-1.53,3.91,3.91,0,0,1,.22-1.08,2.7,2.7,0,0,0,.14-.67c.18-.34.25-.82.44-1.22.38-.63.73-1.27,1.08-1.85l1-1.75v0c.37-.14.49-.43.75-.67a3.26,3.26,0,0,0,.6-.72,7.35,7.35,0,0,1,.68-.65,21.87,21.87,0,0,1,1.78-1.58c.52-.43,1.06-.72,1.55-1.1.12-.12.21,0,.21-.1,0,0,0,0,0,0H128a3.22,3.22,0,0,1,.36-.24,1.59,1.59,0,0,1,1-.65c.14-.07.23,0,.23-.14h.12c.16.26.25-.24.49-.08.12,0,.19-.09.12-.31a.14.14,0,0,1,.16,0V3.84a.62.62,0,0,1,.16,0c.07-.22.26-.2.45-.17s.14-.07.14-.07a1.45,1.45,0,0,1,1.05-.56c.1,0,.1,0,.1,0l.07-.07a4.85,4.85,0,0,1,.61-.29c.37.05.53-.12.82-.27a.2.2,0,0,1,.23,0c.14-.1.19-.08.19-.08.28-.12.21-.28.51-.28s.24,0,.33-.15.35-.05.59-.12c0,0,0-.07.14-.07a.38.38,0,0,1,.51,0l.19-.07c0-.22.16-.22.35-.24a2.57,2.57,0,0,1,.87-.24,3.08,3.08,0,0,1,1.47-.26l.17,0c0-.1-.1-.12-.17-.12V.68h.17c.23.14.35,0,.51-.1a.45.45,0,0,1,.28,0c.17-.07.35,0,.5-.12a1.47,1.47,0,0,1,.72-.07.63.63,0,0,1,.4-.05,3,3,0,0,1,.54-.07,4.28,4.28,0,0,1,1.1-.21c.47,0,.91,0,1.33,0h.17c.26,0,.44,0,.63,0a1.8,1.8,0,0,0,.52,0,4.23,4.23,0,0,1,1,.26,14.45,14.45,0,0,0,1.35.53,5,5,0,0,1,1.83,1.82A8.6,8.6,0,0,1,151,4.08a1.13,1.13,0,0,1,.1.79,2.06,2.06,0,0,0,.16.7c0,.09-.09.26-.09.38a4.9,4.9,0,0,0-.26.6l.09.07.07.12a1.5,1.5,0,0,1-.16.67c-.12.2-.19.46-.3.63a2.25,2.25,0,0,1-.33.76c-.19.36-.47.6-.54,1v.1a20.56,20.56,0,0,0-1.34,1.68,1.62,1.62,0,0,1-.63.67c-.4.24-.63.86-.93.93-.17.36-.66.17-.89.51,0,.14-.07.14-.07.14a.31.31,0,0,1-.24.07l.07,0c0,.14,0,.14-.09.14-.26-.07-.42.29-.61.36a3.68,3.68,0,0,1-.54.5c-.16.17-.23.31-.42.41v.14c-.35-.09-.35.22-.42.41h.07c.18.24,0,.22-.07.22v-.22c-.21-.14-.26.05-.45.12a2.17,2.17,0,0,0-.54.39,5.25,5.25,0,0,1-.58.55c0,.14,0,.24.09.26s-.3.36-.44.34,0-.1,0-.1,0-.1.14-.05c0-.12.11-.21-.1-.24a1.49,1.49,0,0,1-.58.39c0,.09,0,.09-.07.19l.14,0s0-.12.11-.09.07-.1.12-.08-.05.2-.05.29a8.19,8.19,0,0,1-.72.48c0,.07-.07.07-.17.07l.05,0a2.69,2.69,0,0,1,.28-.53c-.28.15-.56.34-.82.46s-.25.4-.54.5l.05,0c0,.05-.05,0-.05,0V18.8a1.85,1.85,0,0,0-.68.36c.08,0,.17.17.22.19s0,.12-.22.22v-.41c-.18.07-.42.12-.51.41a.09.09,0,0,0-.09.09h.18c0-.07,0,0,0-.19.19,0,.28,0,.37.1-.09.09-.25.24-.42.38-.32.29-.75.29-1.05.53a.33.33,0,0,0-.12-.1v-.19c0,.07-.14.07-.14.17s0,.07,0,.17c-.1-.1-.1-.2-.26,0a4,4,0,0,1-.78.29.54.54,0,0,0-.07.22c0-.08.07-.08.17-.08a3.56,3.56,0,0,1,.61-.16l.07.12c-.07,0-.07,0-.07,0-.19.1-.35.39-.52.48a.86.86,0,0,0-.49.29,2.28,2.28,0,0,1-.94.36,2.09,2.09,0,0,0-.91.38c0,.2-.21.08-.37.12s-.38.24-.17.46a1.63,1.63,0,0,0,.17.38v.17l-.08.07,0,0c.33.38.63.72,1,1.08a1.62,1.62,0,0,0,1.27.6,8.55,8.55,0,0,0,2.57.07c.54-.05,1.06-.19,1.62-.27s1-.28,1.47-.43a20.33,20.33,0,0,0,2.32-.81c.28-.22.64-.17.85-.34.18,0,.18,0,.28-.05,0,.19.18,0,.4-.14a7,7,0,0,1,1.14-.48,3.2,3.2,0,0,1,.75-.43h.1l0,.21-.09.12h.09v-.12C147.27,22.4,147.27,22.18,147.63,22.2Zm-22-14.83h-.08v.09A.08.08,0,0,0,125.66,7.37Zm5.8,16c0,.16-.11.28-.11.4C131.6,23.69,131.58,23.55,131.46,23.36Zm.12-.1v-.1l-.12,0a.24.24,0,0,0,0,.17Zm.19,1.32-.17,0,.15.1Zm2-21.22v.15h.07ZM134,21.63l0,.07H134Zm.85-.07h-.07a.84.84,0,0,0-.36.24c-.09-.05-.09.05-.09.05s.09.11.17,0a.37.37,0,0,1,.35-.16c0-.08,0-.08.11-.15Zm.37-.12.07,0c.1,0,.21-.12.26-.17A.38.38,0,0,0,135.21,21.44Zm.21-19.64a.15.15,0,0,0,.1.15C135.52,1.8,135.52,1.8,135.42,1.8Zm.12,19.49.05,0C135.54,21.27,135.54,21.22,135.54,21.29Zm.28-.14h-.07l-.07,0v.15C135.75,21.17,135.75,21.17,135.82,21.15Zm2-1.34-.07,0v.08l.07,0Zm1-1.42V18.3s-.09,0-.09.07Zm.22,1a.14.14,0,0,1,.21-.14s0,0,0,0C139.19,19.42,139.15,19.35,139,19.35Zm.25-.14c0-.22.1-.29.21-.36a.53.53,0,0,0,.05.24c-.05.07-.14.07-.26.12s0,0,0,.05l-.07-.05Zm.75-.46c0-.24.05-.26.26-.21,0,.16-.19.16-.26.31Zm.49-.36c0,.05-.09.05-.14.08s0,0,0-.1Zm.87-1.94.07.15v-.12s-.05,0-.05,0Zm.56-.38h-.11s0,.07.11.09Zm1.39.24c0-.12.07-.12.07-.12v.17A.09.09,0,0,0,143.32,16.31Zm.82-.77c0,.12.07.14,0,.19a.52.52,0,0,1-.47.12A.58.58,0,0,1,144.14,15.54Zm.3-.31c0-.15.12-.15.23-.22l.05,0v.12c-.05.09-.28.14-.33.24s-.18-.05-.11-.12A.6.6,0,0,1,144.44,15.23ZM145,15a.33.33,0,0,1-.19-.17s0-.05.09,0a.35.35,0,0,1,.29-.1C145.07,14.8,145.07,14.87,145,15ZM146.57.44s0-.12-.09-.15V.41Zm2.72,21v.1l.07-.1Zm2.22-1.67-.07.05v-.08s0-.09.07-.07Zm.45-.07c-.1.09-.07.33-.26.38S151.77,19.88,152,19.74Z" transform="translate(0 0)"/><path class="cls-1" d="M159.35,19.9c0,.05,0,.05-.07.05l-.19.12a.32.32,0,0,1-.16.19c-.05,0-.09,0-.07.07s0,.29-.09.22h0a.27.27,0,0,1-.09.17,1.09,1.09,0,0,1-.45.26c0,.05,0,.05,0,.07s0,.12,0,.17H158l-.07.07a.75.75,0,0,1,0,.17c0,.17-.12.15-.21.1h0s0,.07,0,.17l-.21.09v0c0,.05-.05.07-.1.07l0,.05c0,.16,0,.19-.12.19l-.14.12a.4.4,0,0,1-.19.17h0l-.17.09,0,.05c0,.05-.09.17-.21.12s-.07.05-.07.05-.1.09-.14.07v.07A.29.29,0,0,1,156,23H156s0,.07-.12.09,0,0,0,.12a.69.69,0,0,0-.21,0l0,0c-.14.17-.25.2-.32.2l-.24.19a.11.11,0,0,0-.16.05h-.1s-.09.12-.16.07a.19.19,0,0,1-.16.05.15.15,0,0,1-.14.07A.41.41,0,0,1,154,24a.3.3,0,0,0-.1.05s-.07-.05-.11.07a.62.62,0,0,0-.24,0s-.11.07-.23.12l-.09-.12s0,0,0,0a.59.59,0,0,1-.44-.05c-.07-.07-.1-.12-.19-.07h-.26v-.12s0,.05-.09,0-.07,0-.07-.05l-.12-.12c-.16,0-.19,0-.26-.19h0l-.1-.05-.4-.41,0-.12c.07-.09,0-.21-.09-.33l0-.12s-.07,0,0-.1,0,0-.05-.12-.09,0-.09-.09l0-.1.05,0c-.05-.07,0-.07,0-.14l0-.1a1.06,1.06,0,0,0,0-.14s0-.07,0-.12,0-.05,0-.14a1,1,0,0,1,0-.24s0-.05,0-.08.07-.07,0-.09a.69.69,0,0,1,.16-.36l0-.05c0-.05,0-.26,0-.29s.08-.14.12-.14,0-.07,0-.12,0-.07,0-.1.05,0,0-.16.07,0,.09-.08l.07-.12c0-.28.05-.43,0-.52l.12-.05a.09.09,0,0,1,0-.12l0-.15.12,0a1.2,1.2,0,0,1,0-.24l.14-.09.07-.15,0-.09c-.05,0,0-.05,0-.12l.14-.12s-.05-.05-.05-.08-.09-.26.19-.26c0,0,0,0,0-.05h0l.07-.17a.11.11,0,0,1,.09-.09s0,0,.07,0v0l.07,0a0,0,0,0,1,0-.05s0-.05,0-.07l.19-.22,0,0,.1-.09.09-.1h.07c-.05-.1,0-.19.14-.17s.05,0,.1,0a.08.08,0,0,0,.09-.07s.09-.05.21.05a.13.13,0,0,0,.12,0l.28.19.23.07c.05.1.1.1.1.12l.09,0s0,.08.05.05a1.36,1.36,0,0,1-.42.87h-.05l-.24.16V18l0,.1-.14.14a.11.11,0,0,0,0,.07l-.23.17v.14a.14.14,0,0,1-.09.05.4.4,0,0,1-.15.24s0,0,.1.1c-.07,0-.12.05-.17.07s.07.1,0,.12l0,.05c0,.05-.05.07-.05.12s0,.17-.14.19a0,0,0,0,0,0,0l.12.08c0,.07-.05.09-.17.09a.36.36,0,0,1,0,.31l-.05.12a.47.47,0,0,0-.21.27s0,0,0,.09,0,0,0,.05h0a.4.4,0,0,1,0,.14.27.27,0,0,0-.09.15h-.1s0,.07,0,.09l-.12.44s-.07.09-.07.14l-.05.1s0,0,0,.07a.55.55,0,0,0,0,.26c0,.07,0,.1,0,.12v0l0,.1c-.05.05,0,.12.07.22-.1,0-.1.07,0,.14v.1l.14.19.12.26a.08.08,0,0,0,.07,0l.14.07v0a.78.78,0,0,0,.49.22.33.33,0,0,0,.31,0l.05,0,.18-.13.26-.09.54-.24v0a.15.15,0,0,1,.19,0,1.53,1.53,0,0,1,.42-.22l.07,0c.07-.08.23-.12.28-.2v0l.14-.12a.18.18,0,0,1,.09-.07.94.94,0,0,1,.33-.17L156,22h0c0-.07.09-.09.23-.11l.1,0,.14-.17c0-.07,0-.09.16-.14v0s0-.07.07-.07,0,0,0,0,0,0,0-.07a.17.17,0,0,1,.07-.12l0,0s0,0,0-.09a.15.15,0,0,0,.07,0l.35-.24v0l.17-.15s0,0,.09-.09l.07,0s0-.36.21-.14v0c0-.22.21-.2.21-.36l.1.07a1.14,1.14,0,0,0,.11-.14s0-.1,0-.12l.09-.1c-.07,0,0-.07.17-.07h0l.1,0v-.12l.16-.14.19-.17.23-.19a2.33,2.33,0,0,1,.54-.69c.05-.08.05-.1.12-.08s0-.14.07-.14c.3-.17.79-.55-.07.62l-.05,0V19l-.23.34v.09l-.07,0v.12h-.07l0,.21h-.07Zm-5.46-5.44s0,0,0-.05l0-.28A.42.42,0,0,1,154,14a.15.15,0,0,1,.1-.21l.05-.12a.1.1,0,0,0,0-.05.47.47,0,0,0,.07-.48s0-.07-.07-.19h.28l.21.19v0s.12,0,.21.09h.1l.09.12v0l.33.28s0,0,0,.15l.07.09c0,.1.05.17-.19.17,0-.05-.07,0-.09,0a.27.27,0,0,1-.12.09.2.2,0,0,1,0,.07.26.26,0,0,1-.24.17c0,.07-.07.15-.16.22v.07c0,.07-.14.1-.28.17a.32.32,0,0,1-.35,0c-.07,0-.12,0-.14-.14Zm4.17,5.71s0,0,0,0Z" transform="translate(0 0)"/><path class="cls-1" d="M171.67,19.76l-.07.1h-.12l-.21,0,0,.07h-.1l0,.08-.05-.05L171,20h-.05V20h-.19l0,0-.09,0-.07,0v0l-.12.05v.05l-.05,0-.3.05,0,0,0,.08h-.19l-.3,0-.07,0-.31.07-.12-.07-.14.09,0,.07-.26,0-.12,0c-.07.34-.3.48-.4.7s-.07.29-.18.55l-.47.55s0,.05,0,.05,0,.12-.12.21-.12,0,0,.17c-.28,0-.37.34-.49.51a.51.51,0,0,1-.24.26l-.56.53h-.07c0,.16-.23.33-.4.45s-.32.17-.42.22-.16.14-.3.31a.56.56,0,0,0-.21,0c-.12,0-.31,0-.52,0a.41.41,0,0,1-.16,0c-.17-.14-.17-.19-.24-.19s-.21,0-.32-.17-.19,0-.22-.1-.16-.14-.18-.21v0a1,1,0,0,1-.12-.67c.09,0,0-.14,0-.17a1.28,1.28,0,0,1,.35-.48.3.3,0,0,1,.17-.21,5.15,5.15,0,0,1,.91-.89c.09-.19.3-.24.44-.46.12,0,.12,0,.14,0l.1-.05s.07-.07.16-.07c.17-.22.52-.34.7-.48s.66-.46,1-.65c.17,0,.4-.16.68-.21l.12-.53c.33-.22.33-.81.35-1.17h0v-.17h0v-.07h0v-.05c-.24-.29-.29-.31-.14-.41-.07-.07-.05-.31-.24-.31a.61.61,0,0,0-.47-.1,1.48,1.48,0,0,0-.49-.05c-.23.08-.58,0-.87.12s-.42.29-.6.29-.31,0-.29.17c-.11,0-.11,0-.11.1l-.12-.17c-.14.12-.23.12-.28.29-.12-.08-.12.14-.24.14s-.18.07-.25.07-.12.15-.21.17,0,.07-.07.12h0a1.64,1.64,0,0,1-.4.45c-.16,0-.16.05-.18.15s-.14.26-.35.36-.14.43-.43.45a.56.56,0,0,1-.21.44c-.14,0-.14.14-.25.23s-.17.12,0,.34l-.26.17s0,0,0,.17c0,0,0,.14,0,.14-.17,0-.19,0-.17.12-.07-.1-.11-.1-.11-.1.16.31,0,.53-.1.56a1.45,1.45,0,0,0-.39.59c0,.12-.1.36-.24.41s-.07.22-.16.22h-.07a2.16,2.16,0,0,1,0,.36s-.07,0-.07,0,.07.29,0,.29-.21.09-.35.17.11.24.14.38a.29.29,0,0,0-.22.12c0,.12-.11.17-.11.29s-.07.12,0,.14,0,.17-.1.26l0,.08a2,2,0,0,1-.17.48,6.22,6.22,0,0,0-.44,1c0,.07,0,.09-.12.09,0,.2,0,.27,0,.29a1.54,1.54,0,0,1-.37,1c0,.1-.31.12-.45.1a1.78,1.78,0,0,1-.3-.07c-.17,0-.24-.15-.42-.41-.08-.05-.08-.19-.08-.22a11.88,11.88,0,0,1,0-1.34c0-.29,0-.6.19-.74a2.91,2.91,0,0,1,.14-.89,12.62,12.62,0,0,1,.42-1.75l.37-1.51a6.6,6.6,0,0,0,.28-1.48.85.85,0,0,0,.21-.46,3.43,3.43,0,0,0,.19-1,3.15,3.15,0,0,0,.31-.79c.07-.31.14-.43.23-.79a3.85,3.85,0,0,0,.31-.81,1.94,1.94,0,0,1,.25-.77,9.84,9.84,0,0,1,.17-1.06l0,.08.35-1,0-.07h0l.24-.48v0l.21-.67,0-.1h0l.09-.64,0-.05v0l.07,0,.21-.77.1-.17c0,.24.09-.09.07-.19s.28-.28.33-.57a3.86,3.86,0,0,0,.23-.77c.09-.1.09-.17.21-.24a3.43,3.43,0,0,1,.28-1c.12-.26.24-.55.33-.74a6.42,6.42,0,0,0,.4-1.37,1.33,1.33,0,0,0,.28-.6l.19-.5a3.86,3.86,0,0,0,.16-.77l-.07-.17c0-.11-.05-.26,1-.28.1,0,.19.26.31.26a.6.6,0,0,1,.26.6c0,.29,0,.38,0,.55s.07.41.05.62,0,.08-.14.22-.17.26-.21.53a4.79,4.79,0,0,0-.26.48,1.6,1.6,0,0,1-.28.41c0,.11-.1.45-.26.57a1,1,0,0,1-.31.6s.05,0,0,.12l0,.22a.85.85,0,0,1,.19-.65l-.1-.12c-.07,0-.14.12-.21.29a.5.5,0,0,1,0,.16c-.07.17-.12.46-.24.77.17,0,.17,0,.17-.1s.07-.33.21-.35l-.19.45-.26.65h0l0-.1c0-.05,0-.05.12-.17s0-.28,0-.38a2.58,2.58,0,0,0-.18.38h-.14a.94.94,0,0,1-.1.51s0-.12-.09-.12a1.38,1.38,0,0,0-.17.53c-.11.07-.11.09-.14.09a3.52,3.52,0,0,0,0,.6s0,0,0,.17l0,0v0c0,.05,0,.05,0,.07v-.07c-.26-.17-.19.17-.33.17s-.12,0-.09.21c0-.19,0-.19.14-.19-.05.24-.14.7-.36.79.05,0,0,.1,0,.14,0,.2,0,.27-.18.39,0,.19,0,.19-.1.24v-.05a.76.76,0,0,0,.1-.31c0-.05.14-.1.09-.27v-.07l-.19.1a.93.93,0,0,1-.11.57c.14.22.14.22.14.32s-.05,0-.05,0c0,.24,0,.26,0,.26s-.05.12-.21.24v0c-.1-.17.16-.26-.1-.57,0,.24.1.26,0,.26-.12.26-.12.57-.21.72a15,15,0,0,0-.56,1.72,9.8,9.8,0,0,0-.33,1.06,7.29,7.29,0,0,1-.4,1.17,2.42,2.42,0,0,1-.16.72l0,.2c.05.14.09.16.12.09a2,2,0,0,1-.19.5c0-.16.12-.33.09-.43,0,.05,0,.05,0,.07a2.25,2.25,0,0,0-.45,1s0,.26,0,.33-.12.5-.17.74-.14.7-.32,1.18c0,.05-.05.05-.05.17s0,.09,0,.14,0,0,0,.07c-.07.31-.24.51-.17.77s-.14.26-.09.53c0-.12,0-.12.09-.19s0-.08.12-.08.14-.5.3-.69a2.77,2.77,0,0,1,.45-.82c0-.12.12-.12.28-.28a2.72,2.72,0,0,1,.4-.8,1.34,1.34,0,0,1,.18-.52,3.58,3.58,0,0,0,.43-.39c0-.09,0-.21.09-.26h0a.38.38,0,0,0,.28-.26c0-.17.1-.22.14-.24s0-.1,0-.24.23-.17.33-.22.09-.38.23-.43.09,0,.07-.05,0-.17.09-.17a2.13,2.13,0,0,0,.5-.62,2,2,0,0,0,.49-.34c.19-.07.44-.28.68-.38s.11-.14.14-.14a3.1,3.1,0,0,0,.75-.34c.16,0,.42-.05.68-.05a2.46,2.46,0,0,1,.47-.07h.49a6.42,6.42,0,0,1,.86.34,1.94,1.94,0,0,1,.59.36c.16,0,.37.28.49.4l.12.22v0h.05l.18.27,0,.05v.07h0v.07c0,.05,0,.07,0,.14a2.65,2.65,0,0,1,.14,1.06s0,.05,0,.05a.56.56,0,0,1-.07.26v0a.12.12,0,0,0-.05.1h0v.05l-.07.07v.05h0v.12h0s.21,0,.21-.07l.89-.24v0l.54-.17s.49,0,.54-.07l1.45-.6s.49-.24,1.47-.81v0h0l0,.07.07,0,0,0v0H174l0,0a.08.08,0,0,1,0,0c-.17.05-.22.05-.19.15s0,.33-.45.31h0l-.21.26a2.8,2.8,0,0,1-1.25.7s0,0,0,.14ZM162.54,18c-.15.17-.26.53-.57.72,0,.12,0,.12,0,.12-.16.17-.16.27-.33.29a.48.48,0,0,0-.26.36c0,.12-.21.17-.21.29a2.94,2.94,0,0,1-.58.79s-.07,0-.07,0l0,.17a1.43,1.43,0,0,0-.23.38,5.72,5.72,0,0,0-.33.72c-.23.22-.4.31-.33.46-.16.33-.18.53-.28.55-.11.38-.25.58-.37.91a.88.88,0,0,1-.33.65,1.87,1.87,0,0,1,0,.55,4.37,4.37,0,0,0-.19.67l0,.17.14-.15a.64.64,0,0,1,.14-.45s0-.14,0-.29a.38.38,0,0,1,.19-.31s0,0,0-.19a.59.59,0,0,0,.24-.6c.07,0,.07,0,.07-.15a1.28,1.28,0,0,0,.07-.31.33.33,0,0,0,.23-.26c0-.07.05-.19.05-.26s-.07,0,0-.2c.07,0,0,0,0,0,0-.29.22-.32.19-.44a.27.27,0,0,0,.26-.31l0-.12.07,0c0-.12.14-.25.21-.12,0-.13,0-.17,0-.34s.1-.1.17-.1.07-.36.26-.38,0-.17,0-.17c0-.17.12-.17.12-.26s.12,0,.07-.12,0-.12,0-.12.14-.12.35-.12l0-.36h.11a.32.32,0,0,0,.29-.43.42.42,0,0,0,.25-.34c.17-.12.26-.12.26-.31.09.14.09.14.17.14,0-.21,0-.43.18-.5l.17-.21c0-.1.21-.1.21-.32A1.39,1.39,0,0,0,162.54,18Zm-3.47,4.49a.76.76,0,0,1,0,.36A2.58,2.58,0,0,1,159.07,22.52Zm.54-2.28c0,.33-.1.38-.1.57h0C159.51,20.29,159.51,20.29,159.61,20.24Zm.61-2.37a4.09,4.09,0,0,1,.18-.56,1.26,1.26,0,0,0,0-.24h.14a.48.48,0,0,0-.16.36,1.1,1.1,0,0,1-.19.68c-.05,0,.07.14-.09.16C160.05,18.13,160.17,18,160.22,17.87Zm.44-1.13v-.1c0-.24.05-.28.19-.52h.07C160.87,16.38,160.87,16.64,160.66,16.74Zm.38-1.25a.33.33,0,0,1,0-.33A1.28,1.28,0,0,1,161,15.49Zm.18-.76c0-.2.14-.51.14-.72h.14a4.9,4.9,0,0,1-.28.81Zm.73-1.54a.65.65,0,0,0,.23-.69c.1,0,.14-.17.14-.2s0-.16,0-.21a.19.19,0,0,1,.14-.17c0-.05,0-.29.12-.36l0-.31c0-.1,0-.22.12-.24s.07,0,.09-.24c0,0,0,0,0,0a2.64,2.64,0,0,1-.14.6c-.12.28-.26.74-.4,1.15a1.28,1.28,0,0,1-.26.55c0,.14-.07.24-.09.43C162,13.29,162,13.24,162,13.19Zm.47-2.18c-.12,0-.12.14-.17.38A.89.89,0,0,0,162.42,11Zm.09-.43a.39.39,0,0,0,.12-.24C162.51,10.34,162.51,10.55,162.51,10.58Zm.14-2.47a.51.51,0,0,0-.11.31v.17h0a.86.86,0,0,0,.09-.41Zm.17,1.68c-.19.24-.19.33-.12.5,0-.26.14-.34.12-.48Zm0-.24c0-.07.21-.19.12-.29C163,9.33,162.86,9.45,162.86,9.55Zm.14.74c.07-.26.19-.34.14-.48v0c.19,0,.19-.15.22-.22l0-.09.07.07a2.59,2.59,0,0,1-.4,1s0-.12-.07-.14C163,10.41,163,10.34,163,10.29Zm.24-3.55c-.05.15-.17.15-.07.22-.1,0-.1,0,0,.17C163.17,7,163.24,7,163.24,6.74Zm-.1,10.84s0,.09,0,.17c.1-.08.26-.08.24-.22A1,1,0,0,0,163.14,17.58Zm.71-.51c-.1,0-.17,0-.31.22C163.75,17.1,163.85,17.1,163.85,17.07Zm0,5.52c.12-.15.12-.17.14-.17l.24-.29.47-.36c.11,0,.18-.09.23-.14l0-.07c.09,0,.19-.1.33-.17s.14-.17.21-.17h.14s.09,0,0-.07c.28-.12.4-.22.7-.34h0a.66.66,0,0,0,.19-.21,1.43,1.43,0,0,0,.31-.12c.16-.12.28-.15.44-.27h.05s0-.07,0-.09l.07-.14-.05,0c-.09.1-.32.12-.44.24h-.14c0,.09,0,.09-.17.09,0,.1-.09.17-.16.24s-.21.15-.44.2-.4.16-.45.28-.14.1-.3,0a.29.29,0,0,1-.14.36,1.38,1.38,0,0,0-.73.51,2.25,2.25,0,0,0-.47.31s-.05,0,0,.14,0,.05-.11.07h-.12c0,.1-.07.1-.07.15l0,.05s0,.07,0,.07a.07.07,0,0,0,.07-.07C163.85,22.59,163.85,22.59,163.89,22.59ZM167,20.84a.38.38,0,0,0-.18.12c-.22.07-.22.21-.36.21l-.46.27-.73.52c-.14,0-.16.05-.26.17a.46.46,0,0,1-.21.29,1.45,1.45,0,0,0-.54.5c-.16.08-.26.24-.42.51,0,0-.05,0,0,.07a1.47,1.47,0,0,0-.14.33V24h0s0,0,0,0h.09c.43,0,.52-.29.78-.36a3,3,0,0,1,.49-.41,4,4,0,0,0,.84-.86l.68-.84C166.59,21.29,166.85,21,167,20.84Zm-1.5-3.41c.1-.12.26-.31.4-.33C165.81,17.36,165.65,17.36,165.53,17.43Zm.87-.36s-.05,0-.05,0v0Zm0,0,.07,0h.12Zm1.41,3.36h0l-.21.12a.5.5,0,0,0,0,.17,1,1,0,0,0-.33.45c-.16.1-.16.24-.4.58V22a.27.27,0,0,0,.24-.31,2.46,2.46,0,0,1,.28-.28c-.07-.1,0-.1,0-.15,0-.24.19-.38.49-.55A.67.67,0,0,1,167.81,20.43Zm1-.67v-.05h0S168.84,19.74,168.84,19.76Z" transform="translate(0 0)"/><path class="cls-1" d="M177.76,24.19l-.07.08-.12,0,0,.12a.07.07,0,0,1-.1,0c-.07,0-.12,0,0-.05s.07-.26.14-.26,0,.05,0-.05v0h0a1,1,0,0,1-.38.29s0,.07,0,.09v.07h-.14s0-.07,0-.07v-.07s0-.14,0-.12,0,.1-.09,0c0,.08,0,.12,0,.17s0,.05-.09.1,0,0,0,0-.14,0-.19,0-.19.17-.26.21-.21,0-.23.08-.05.16-.1,0c0,0,0,0,0,0s0,.07,0,.07-.09,0-.16,0A1.47,1.47,0,0,0,175,25a.38.38,0,0,1-.21-.07c-.05-.09-.1-.05-.15.05a.29.29,0,0,1-.09.1c-.09,0-.19,0-.12,0s0-.13-.11-.15-.24.07-.35.05-.05,0-.05,0-.35-.28-.47-.23,0,0,0,0c-.16.05-.33.05-.23-.12,0,0-.05,0-.05,0h-.05v0l.1-.05h0v0a.1.1,0,0,1,0-.07h-.09s-.14,0-.17-.07-.14-.1-.14-.17.07-.12-.05-.14a.54.54,0,0,1-.18-.15.21.21,0,0,1-.07-.19.91.91,0,0,0-.07-.14c0-.05-.05-.07-.07-.1l-.07.1c0,.05,0,.05,0,.07l0,0a1,1,0,0,1-.07-.22.16.16,0,0,0,0-.19.45.45,0,0,0,0-.14,2.89,2.89,0,0,1,0-.44.54.54,0,0,0-.05-.26.7.7,0,0,1,0-.29,2.67,2.67,0,0,0,.05-.74v-.07a.53.53,0,0,1,.09-.39c.16-.07.16-.24.19-.38V20.5s-.05,0-.07,0a.1.1,0,0,1-.1,0s0-.05,0-.05a2.92,2.92,0,0,0,.21-.55.08.08,0,0,1,0-.07c0,.05.05.05.05.05v0c0,.08,0,.1.14,0a7.07,7.07,0,0,1,.35-.81l.12-.39c.07,0,.09-.07.09-.14a.47.47,0,0,0,.12-.41c0-.07.07-.14.19-.16s.21-.2.23-.32a.13.13,0,0,0,.07-.14c-.09-.19,0-.31.19-.34s.12-.07.09-.12,0-.19.07-.19.17,0,.17-.12l.11-.26a.49.49,0,0,1,.19-.19,1,1,0,0,1,.38-.29c.07-.1.21-.12.28-.24a.81.81,0,0,1,.26-.31.19.19,0,0,0,.16-.15c.07,0,.09-.12.16-.12s.19-.09.28-.12a.5.5,0,0,1,.22-.09c.16,0,.3-.07.51-.05a.72.72,0,0,1,.19.12l.86.29a1.49,1.49,0,0,1,.64.53V16c0,.31.16.65,0,1-.05.07,0,.16-.05.24a.94.94,0,0,0-.12.31l-.11.14a5.94,5.94,0,0,0-.4.75c-.05.07-.14,0-.19.16a2.25,2.25,0,0,0-.16.31s-.05.08-.1.1-.09,0-.11,0l-.12.27c-.1.12-.1.24-.21.26l-.05.1c-.09.09-.14.21-.26.26-.11.22-.3.31-.47.5a1,1,0,0,1-.25.32c-.17.09-.38.26-.54.26s-.1.07-.1.1-.23.12-.3.07a.34.34,0,0,0-.14.09c-.05.1-.14.1-.26,0l-.19,0A.78.78,0,0,1,174,21a.23.23,0,0,0-.23-.07c-.07,0,0,.09,0,.14a1.52,1.52,0,0,1-.19.22.6.6,0,0,0-.09.24c0,.19-.07.43-.07.62a1.42,1.42,0,0,0,0,.29c0,.12.09.24,0,.33s0,0,0,0c.05.17-.07.26,0,.4a.19.19,0,0,0,0,.13c.12,0,.12.09.14.16a2.56,2.56,0,0,1,.14.31.38.38,0,0,0,.05.17h.09l-.07.05h0l.16-.05.24,0s.07.09.07.12h0a2.84,2.84,0,0,1,.84-.08l0,0c.18-.08.3,0,.44,0s.17-.14.21-.24.05,0,.07,0a2.45,2.45,0,0,0,.63-.12s0,0,0,0,0,0,.07,0,.12-.16.24-.19,0,0,.07,0,.14-.05.14,0l0-.05c0-.09,0-.12,0-.24s.14.07.18.07.1,0,.14,0,.17-.09.17-.19a0,0,0,0,1,0,0,1.23,1.23,0,0,1,.26-.08c.09,0,.16-.12.21-.16s.21-.17.47-.27c.75-.43.91-.72,1.52-1-.12-.09.38-.19.4-.23a8,8,0,0,0,1.41-1.35c.14,0,.28-.12.35-.09l0,0a.09.09,0,0,0,.05-.09c0-.22.21-.15.16-.34a1.26,1.26,0,0,1,.16-.24l.15-.05c.09,0,.11.05.16.1s0,0,0,0,0,0,0-.07-.07-.12-.09-.19l.28-.14s0,0-.05,0,0-.07,0-.05,0-.07.09-.12,0,.05.12,0,0,0,.16-.07v-.07l.07,0s0,0,0,0,.16,0,.16-.07c-.14-.21.33-.45.23-.29,0,0,0,.05,0,0s-.07.12,0,.12a.25.25,0,0,0,.16.07c.05,0,.05-.05.05,0s-.05.1-.19.12l0,0c-.1,0,0-.05-.19,0a.29.29,0,0,0,0,.08c.07,0,0,.07.07.12-.28.09-.4.38-.68.62,0,0,0,0,0,0s-.11,0,0,0,0-.05,0-.1v0c0,.05-.1.05-.1.08s.14.07.1.19c-.19.14-.43.38-.61.48,0,.07,0,0-.07.05a.07.07,0,0,1,0,0c0,.05,0,.05,0,.07s.05.1.07.12a.26.26,0,0,1-.11.12s0,.05-.07,0-.07,0-.07.07l0,.12c.07.12-.35.17-.39.21.11.17-.05.32-.24.48-.09,0-.49.48-.47.56s-.11,0-.18.09l-.12.14c-.1,0-.17,0-.26.05s-.14.15-.26.15-.09,0-.07,0,0,.12-.07.1-.07-.05-.21-.05-.19.05-.14.15,0,0,0,.09c.16,0-.1.24-.14.31-.07-.09-.19-.12-.14-.21s0,0,0,.05,0,.14-.14.21c.12,0,.12,0,.14,0s0,.12-.11.14l-.24.14c-.12-.09,0-.21,0-.28l-.07-.12H179c0-.41-.35,0,0,.07.09.12-.05.26-.05.36s0,.09,0,.09a.26.26,0,0,1-.1-.09.15.15,0,0,1,0-.1v-.05l-.1,0v.09a.66.66,0,0,1,0,.17.57.57,0,0,1-.19.19l.28-.16h0s0,0,0,.07l-.14.21c-.12.07-.14,0-.14,0l-.12-.05s.12,0,.07-.07-.12,0-.19,0-.09-.05-.21,0-.05.34-.12.29-.23,0-.21.1,0,0,0,0a.08.08,0,0,1,.07,0Zm-.26-8.1-.09-.21a.5.5,0,0,0-.29-.08c-.18,0-.49,0-.56.2s-.09.12-.11.12a.51.51,0,0,0-.31.16c-.14.12-.26.34-.42.41s-.14.34-.35.43c-.05,0-.05,0-.05.07a0,0,0,0,1,0,0c-.09,0-.14.1-.18.19a1.08,1.08,0,0,1-.35.65v.05a1.27,1.27,0,0,1-.24.53c-.09.19-.28.31-.26.57v0c-.16.09-.18.28-.23.5,0,0,0,.1-.12.12s-.07.24-.12.38a.71.71,0,0,0,.15.1.91.91,0,0,0,.35-.07.82.82,0,0,0,.49-.34c0-.09.05-.09.12-.12.23-.07.35-.26.6-.38s.15-.19.26-.31.19-.24.33-.36.14-.12.21-.17a3.71,3.71,0,0,0,.4-.43,5.54,5.54,0,0,0,.54-.79c0-.05,0-.17.14-.2s0,0,0-.07c.05-.21.12-.36.17-.52a.5.5,0,0,0,0-.24A.52.52,0,0,0,177.5,16.09Zm.07,8.13s0,0,0,0Zm4.57-5.16,0,.05s.12-.12.1-.17-.12,0-.14,0S182.18,19.06,182.14,19.06Zm.14-.12.09,0A.18.18,0,0,1,182.28,18.94Zm.84-.16s0,0,0,.07,0,0,0,0l0,0S183.17,18.82,183.12,18.78Z" transform="translate(0 0)"/><path class="cls-1" d="M184.36,24l-.05,0,0-.1s0,0,0,0-.07,0-.07-.05l-.12-.12c-.16,0-.18,0-.28-.19h0l-.12-.05-.42-.41-.05-.12c.1-.09,0-.21-.11-.33l0-.12s0,0,0-.1,0,0-.07-.12-.09,0-.09-.09l0-.1.05,0c-.05-.07,0-.07-.05-.14l0-.1s0-.09,0-.14,0-.07,0-.12a.2.2,0,0,0,0-.14c0-.05,0-.2,0-.24s0-.05,0-.08S183,21,183,21a.64.64,0,0,1,.11-.36l0-.05c0-.05,0-.26,0-.29s.07-.14.12-.14,0-.07,0-.12,0-.07,0-.1,0,0,0-.16a.25.25,0,0,0,.12-.08l0-.12c0-.28,0-.43,0-.52l.1-.05a.18.18,0,0,1,0-.12l0-.15.12,0-.05-.24.14-.09.07-.15,0-.09s0-.05,0-.12l.14-.12s-.05-.05-.05-.08-.12-.26.16-.26c0,0,0,0,0-.05h0l.05-.17a.11.11,0,0,1,.09-.09s0,0,.07,0v0l.05,0a0,0,0,0,1,0-.05s0-.05.07-.07l.17-.22,0,0,.1-.09.09-.1h.05c-.05-.07,0-.17.14-.14s0,0,.09,0,.07,0,.09-.08.1,0,.19.05.12,0,.14,0l.31.19.23.08c.05.09.1.09.1.11a.15.15,0,0,1,.09,0s0,.07.05.05a1.14,1.14,0,0,1-.38.86h0l-.24.17v0l0,.09-.12.15a.12.12,0,0,0,0,.07l-.24.17,0,.14a.12.12,0,0,1-.09.05.6.6,0,0,1-.12.24l.1.09a.2.2,0,0,0-.14.07s0,.1,0,.12l0,0c0,.05,0,.07,0,.12s0,.17-.14.19,0,0,0,0l.14.08c0,.07,0,.09-.16.09a.45.45,0,0,1,0,.31l-.05.12a.4.4,0,0,0-.16.27s0,0,0,.09,0,0,0,.05h0a.31.31,0,0,1,0,.14c-.05,0-.05.08-.08.15h-.09a.15.15,0,0,1,0,.09l-.09.44s-.05.09,0,.14l0,.1s0,0,0,.07a.33.33,0,0,0,0,.26c0,.07,0,.1,0,.12v0l0,.1c-.05.05,0,.12.09.22-.09,0-.09.07,0,.14l0,.1.12.19.16.26a.08.08,0,0,0,.07,0l.12.07h0v0c.07,0,.14,0,.31-.05s.28-.05.33-.12l0,0,.24-.2.28-.24.63-.48a.23.23,0,0,1,.21-.09,1.18,1.18,0,0,1,.47-.38l.09-.08c0-.09.24-.24.28-.33v0l.19-.17.07-.12a1.66,1.66,0,0,1,.38-.28l.16-.24h0c0-.08,0-.12.23-.2h.09l.19-.26c-.07-.05.05-.14.19-.21s0-.08.05-.08,0,0,0,0,0,0,.05-.09.09-.17.09-.17l0,0s0-.05,0-.12.11-.05.11-.07l.36-.38v0l.21-.22a.27.27,0,0,0,.07-.14l.09-.05s0-.38.23-.24l0,0c-.14-.17.14-.24.14-.46l.14,0,.12-.16s0-.12,0-.15l.14-.14c-.07,0,0-.1.14-.15l.07,0,0-.15.19-.21.21-.29.26-.29.12-.24h-.33l0,0h-.19l-.05,0h0l0,0v-.07h0v0h0v0h0v.07l0,0h-.07s0-.07-.1-.07l.12,0h-.21c-.09-.09-.28-.16-.42-.28s-.07-.08,0-.15c-.23,0-.28-.21-.4-.4s0-.17,0-.22-.07-.1,0-.24-.07,0-.07,0a.29.29,0,0,1,0-.26,3.84,3.84,0,0,1,.12-.67c0-.08,0-.1,0-.15s.14-.19.1-.36l.26-.31c0-.05,0-.05,0-.17a.12.12,0,0,0,0-.09.65.65,0,0,0,.16-.27c0-.11.1-.16.1-.21s0-.1,0-.1a3.19,3.19,0,0,0,.26-.26c.07-.12.05-.17.09-.24a.29.29,0,0,1,.12-.26c.12-.15.26-.22.33-.34a.34.34,0,0,1,.23-.1c.07-.07.1-.16.19-.24H192c.28,0,.47,0,.75,0a.86.86,0,0,1,.49.22.22.22,0,0,1,.19.07s0,0,.05.05a.53.53,0,0,1,.21.07h.11a2,2,0,0,0,.19.26,4,4,0,0,0,.14.46c0,.09-.07.19-.07.31s-.11.41-.14.6-.19.41-.19.65c0,.09,0,.14,0,.24s-.12.19-.17.43h-.09a.44.44,0,0,1-.07.31c-.12.14-.09.26-.14.38s0,.07-.14.15,0,.12,0,.14v.05a1.16,1.16,0,0,0,.42-.05l.21,0a4.87,4.87,0,0,0,.65-.17c.26-.07.47-.07.71-.12h.37c.26,0,.35,0,.47,0s.26,0,.26,0h.23c.12.07.35.09.47.19s.05,0,.12,0,.25.12.32.19a1.25,1.25,0,0,0,.43.33c.14.1.21.15.23.32a1.38,1.38,0,0,1,.09.43,1.53,1.53,0,0,1,0,.33l0,.08c0,.07,0,.09,0,.09s0,.29,0,.41,0,.14,0,.21-.19.32-.24.48a1,1,0,0,1-.25.58v.07a.31.31,0,0,1,0,.17.42.42,0,0,0-.23.38c0,.07-.05.07-.05.15s-.05,0-.05.09l0,.07a.61.61,0,0,0-.17.29.28.28,0,0,1-.14.22s0,.09-.07.09c0,.17,0,.24-.16.39a0,0,0,0,1-.05.05c0,.14-.09.21-.14.35s-.07.15-.07.29a.07.07,0,0,0-.07.07.92.92,0,0,0-.21.44.09.09,0,0,1-.09.09.71.71,0,0,0-.21.46c-.05.12-.12.26-.19.45a.46.46,0,0,0-.14.15,1.28,1.28,0,0,0-.21.5l-.14.24a.22.22,0,0,0-.14.22l-.19.52c-.07.1-.05.27-.07.31s0,.27-.1.32a.72.72,0,0,0,0,.31,1.47,1.47,0,0,0,0,.31v.07c0,.22.12.43.38.43a.5.5,0,0,1,.23.12c0,.07.14.15.14.19s0,.17,0,.27h-.07a1.09,1.09,0,0,1-.32,0,3.32,3.32,0,0,1-.47,0c-.05-.07-.12-.07-.21-.19s-.07,0-.14,0a1.31,1.31,0,0,1-.45-.43c-.05-.1-.19-.22-.21-.31v-.07a.87.87,0,0,0,0-.36c0-.2,0-.41,0-.56a1.79,1.79,0,0,1,.18-.62.9.9,0,0,0,.07-.34s0-.11.1-.21.09-.26.21-.48c.07-.05,0-.1.12-.26a1.28,1.28,0,0,0,.18-.46c.12,0,.12,0,.1-.05a.31.31,0,0,1,.09-.21c.09-.12.09-.34.19-.39s.07-.14.14-.21a.88.88,0,0,1,.12-.24.66.66,0,0,1,.21-.39c.16-.26.23-.55.44-.86,0,0,.07-.12.05-.14a2.27,2.27,0,0,0,.19-.43c.09-.24.28-.46.32-.65.1,0,.07-.05.07-.14s.1-.24.14-.32a1.86,1.86,0,0,0,.17-.36,2.61,2.61,0,0,0,.19-.6c.07-.19.09-.38.14-.5s0-.17.07-.17a1.91,1.91,0,0,0,0-.21l.07-.1c0-.07,0-.14,0-.19a.28.28,0,0,0-.21-.34.64.64,0,0,0-.47,0h-.42a1.17,1.17,0,0,1-.47.07l-.05,0a2.27,2.27,0,0,1-.63.09.6.6,0,0,1-.28.08c-.07,0-.12.09-.17.09h-.16a.26.26,0,0,1-.19.07,1.47,1.47,0,0,1-.4,0c-.11,0-.16.07-.28.14s-.18.05-.28,0h-.09a2.42,2.42,0,0,0-.38.1s-.09.05-.14.09h0v0h-.05l0,0h-.05l0,0,0,.09-.07.1v.12l0,0-.07.14H192v.22l-.07,0v.17c0,.05,0,.05-.09.09l-.19.17a2.62,2.62,0,0,1-.19.31.08.08,0,0,0-.07.1c.07.07.1.24-.11.24l0,0a.28.28,0,0,1-.09.2,1.17,1.17,0,0,1-.52.48s0,0,0,.07,0,.16,0,.21l-.12.05-.1.12.05.17c0,.17-.09.19-.23.19h0s0,.07-.07.22l-.21.16v0a.24.24,0,0,1-.14.14l0,0c0,.17,0,.24-.14.26l-.17.19a.47.47,0,0,1-.14.22l-.21.19,0,0c0,.07-.12.24-.21.21l-.07.08c-.1.09-.15.16-.19.16l0,0c0,.07-.09.19-.28.26l-.09,0s0,.1-.12.17,0,0,0,.14l-.23.1,0,0a.74.74,0,0,1-.33.32l-.28.28c-.09,0-.16.1-.18.15l-.1,0a.26.26,0,0,1-.23.17.21.21,0,0,1-.14.1.23.23,0,0,1-.12.12.94.94,0,0,1-.4.28.87.87,0,0,0-.14.08s0,0-.09.12a1.09,1.09,0,0,0-.28.11c0,.05-.1.1-.28.2l-.12-.08s0,0,0,0a.76.76,0,0,1-.49.1.11.11,0,0,1-.07,0V24h-.16Zm.94-9.51v-.29a.29.29,0,0,1,.09-.14.15.15,0,0,1,.07-.22l0-.12a.06.06,0,0,0,0-.05.44.44,0,0,0,0-.48s0-.07-.07-.19h.28l.21.19v0a1.67,1.67,0,0,1,.24.1h.11l.1.12v0l.32.29c0,.05,0,.05.05.14l.07.1c0,.09.07.17-.19.17,0,0-.07,0-.09,0a.32.32,0,0,1-.09.1.24.24,0,0,1,0,.07.23.23,0,0,1-.23.17c0,.07-.07.14-.16.21v.07c0,.08-.1.1-.24.17a.32.32,0,0,1-.35,0c-.07,0-.12,0-.14-.15l0-.21A.06.06,0,0,0,185.3,14.44ZM191,15a.39.39,0,0,0,.24.07h.26c0-.07,0-.07.11-.11a1,1,0,0,1,.26-.27c0-.14.07-.26,0-.31s.14-.19.23-.24,0-.17.07-.22a3.82,3.82,0,0,0,.14-.5.64.64,0,0,0,.19-.26.42.42,0,0,1,0-.17,1.12,1.12,0,0,0,.17-.48.42.42,0,0,0,.11-.22.45.45,0,0,1,0-.14l0-.09a.7.7,0,0,0,.11-.37l0-.09c-.09,0-.09,0,0,0l.07,0c0-.07,0-.14,0-.22a.34.34,0,0,1,0-.12v-.09h-.09c-.07,0-.12.09-.16.09s-.17.05-.21.12-.07.08-.05.12-.16.1-.23.24a.26.26,0,0,0-.07.17.33.33,0,0,0-.22.24c0,.05,0,.05,0,.14-.17.12-.17.32-.26.44s-.07.21-.07.24a4.08,4.08,0,0,1-.28.5c0,.07,0,.19,0,.24a.71.71,0,0,0-.17.24,1.32,1.32,0,0,0,0,.36c-.14.12-.12.36-.12.5S191,15,191,15Z" transform="translate(0 0)"/><path class="cls-1" d="M198.67,20.81s0,0,0-.07a.13.13,0,0,1,.07-.14v-.05a0,0,0,0,0,0,0c-.05,0-.1-.12-.1-.15s.05-.17.12-.19,0,0,.07,0h.07c0-.22,0-.24.07-.27s.05-.07-.07-.14,0,0,0-.05h0s0-.07.07-.07,0,.07,0,.07.12,0,.12,0-.12-.05,0-.1a.5.5,0,0,0,0-.17s.07,0,.07,0,.05,0,.07.07a.05.05,0,0,1,.05-.07c0-.07-.07-.26,0-.29s-.05,0,0,0,.12-.1.16,0,.12,0,.07-.12.1-.14.14-.24.07-.07.07-.07v0l-.09,0,.09.05c-.09,0-.16,0-.21-.05a.12.12,0,0,1,.12-.12c.07,0,.09,0,.19,0s0,0,0-.07v0h0s-.1,0-.12,0,0,0,.09,0,.07-.12.17-.09.09,0,.09,0,.07-.09.14-.09l0-.24s-.07-.1,0-.1l.07-.17-.05-.09h-.07c0,.09,0,.09-.14,0s0,.16-.07.12v0l0-.09,0-.08h.05l.09,0,0-.07,0-.12h.14v0l.05-.12h0l0,0,.16-.05v-.05l.14-.07,0-.07.09-.05,0,0h.07l0,0,.07-.14.08,0h.09l.07-.05c.05-.1.07-.1.19-.1l.18-.12c0-.12,0-.14,0-.19s.07,0,.07,0a1.19,1.19,0,0,0,.23-.05s.05,0,.05-.07l.14.1c.17,0,.33.19.38.19s.14.05.23.05l.07.12a.14.14,0,0,1,.07.24s0,0,0,.12,0,.09-.09.14a.37.37,0,0,0-.17.05l0,.09-.42.34s-.14,0-.19,0-.07.12-.12.24v0c-.14,0-.19.12-.26.19s-.11.12-.14.22,0,.07,0,.1-.14.12-.16,0h-.1l0,0s0,.09,0,.09,0,.07,0,.12l-.11.14h-.17s0,.05,0,.15a.14.14,0,0,0-.09,0c-.09,0,.05,0,.05,0s0,.07-.1.07-.16.1-.21.1h0l0,.17s0-.05-.07-.05h0l0,.05.07,0,0,0h0c0,.09,0,.12-.07.12s-.21,0-.07.16,0,0,0,.1-.14.22-.28.36c0,.1,0,.1,0,.1s-.14,0-.12.07-.12.14-.09.21.07.1,0,0c.1.12-.07.19-.14.27s-.07.09-.07.12l0,.19s0,0-.12.05v.14s-.11.05,0,.07l.05,0c-.17,0-.12.23-.21.28l-.1,0c.07.12.07.17.05.24s-.19.14-.14.24,0,0-.1.07,0,0,0,0a1.06,1.06,0,0,1,0,.28c0,.1,0,.12-.05.1l0,0c0,.05.07.08,0,.08s0,.16.07.24,0,.12,0,.24v0c.1.07.12.27.17.36h.07c.09,0,.16-.07.26-.09s0-.12.11-.12.12-.1.17-.1.18-.09.21-.21.11,0,.14,0l.14-.05c0-.12,0-.12.12,0s.11,0,.07-.1h0s.05-.07,0-.12l0-.14,0,0s.09,0,.09,0,.07,0,.24,0c0,0,.07,0,.07-.05s-.05-.19-.05-.36h.05l0,.17c.07,0,.07,0,0-.1l0-.12s0-.05,0-.05.12.05.05.1a.11.11,0,0,0,.11.07s.1,0,0-.07.1-.1-.09-.22a.06.06,0,0,1,0-.07s0,0,.07,0h.31s0,0,0-.05,0-.19.05-.24h.09c.05.1.14.05.12,0s0-.1,0-.12,0-.1-.09-.1v0c0-.1.28,0,.28-.2s0,0,0,0,0-.12.08-.24,0,0,0,0-.12,0-.12.07,0,.07,0,.07l0-.07a.23.23,0,0,1,.14-.29s0,0,0,0,0,0,0,.1,0-.07.05-.07,0,0,.09,0a.34.34,0,0,0-.14-.19c-.19-.17-.42-.22-.49-.38s-.35-.32-.42-.53,0-.19-.07-.27a.37.37,0,0,1,0-.16h.14s.07,0,.07,0a.46.46,0,0,1,.23-.19h.09l0,.07c-.05.1-.1.12-.05.15s.07-.05.09-.05,0-.1,0-.1,0,0,.05-.07l.09.14c0,.05,0,.05.1,0l0,0H202c0,.2.17.1.35.2l.47.21a.12.12,0,0,1,.05.1s0,0,0,.12.07.07.18,0a.45.45,0,0,0,0,.1h0l0,0s.12,0,.05,0l.56,0a.19.19,0,0,1,.19-.07,1.59,1.59,0,0,1,.56-.12l0,0s.05,0,.17,0a.31.31,0,0,0,.14,0v-.07a2.61,2.61,0,0,1,.42-.07c0-.05,0,0,0,0s.14,0,.14.08c0-.08,0-.08,0-.1v0c0-.05,0-.05,0-.05s.19.05.17,0,.12-.1.26-.05,0,0,.09,0c.05-.17.14-.12.23,0l.1.1,0-.05a.19.19,0,0,0,0-.09c0-.05,0-.1,0-.1a.3.3,0,0,0,.1.05.37.37,0,0,1,.32-.19h0s0,0,0,0l-.11,0v.15l.14,0s0,0,0,0,.05-.1.07-.12H207v-.08l0,0c.19,0,.29-.05.36-.22h0c.05.17.12.1.16,0l.31-.07c0,.17.16.24-1.45,1.29h0c0,.17-.19,0-.26.15-.07-.1-.16,0-.23.05s0,0-.16,0h-.1l-.58.26s-.1,0-.07.09a.67.67,0,0,1-.35,0h-.1c0,.12-.14,0-.23.08l0,0h-.14a.09.09,0,0,0-.16,0h-.05l0,.12c-.14-.1-.23,0-.28,0a.88.88,0,0,0-.54.14V21l-.11.24c0,.12-.07.15-.17.15s-.05,0,0,.09.05.1.07.17-.07.05-.09,0h0c0,.07-.05.07-.09.22s0,.07,0,.09-.07.26-.25.34c0,0,0,0-.05,0l.05.15s0,.05,0,.07-.1.1-.1.14,0,.05,0,.05c-.16.07-.38.17-.33.27s0,0,0,0-.1,0-.1,0l-.11.19c0,.13,0,.13-.12,0,0,.15,0,.22-.19.25l-.3.14c0,.05,0,.05,0,.05s-.05,0-.12.07,0,.12-.07.12-.17.05-.17.07-.09.17-.18.07-.05,0-.05.1-.05,0-.07,0a.87.87,0,0,1-.24.07s0,0-.07,0-.14.12-.16,0h-.05c-.07.22-.21,0-.25,0s-.14,0-.26-.14l-.49-.27a.49.49,0,0,0,0-.19l-.09,0c-.09,0-.09-.12-.14-.24l-.09-.31s0-.08,0-.12,0,0,0,0l0-.09c.07-.2-.05-.51-.05-.7v-.12c0-.14.07-.19.07-.29s0,0,0-.07a.91.91,0,0,1,.07-.53,1.93,1.93,0,0,1,0-.24Zm-.07,1.61c-.07,0-.07,0-.07.12v.05c0-.05.07-.05.07-.15Zm0-1.61v0C198.62,20.5,198.6,20.65,198.57,20.81Zm.05.24c-.05,0-.05.08-.05.08v.07c.07,0,.07-.05.12-.07Zm.4-1.31v0h0Zm.09.09s0,.07,0,.1h0s.14,0,0-.12Zm.45-1.08v0h.07v0Zm.53-.6H200c0,.08,0,.08,0,.1s-.05-.1-.05-.14l.1-.08Zm.07-.12h0s0,0,0,0h0Zm.82,5.42a.31.31,0,0,1-.16-.05c0,.05,0,.05,0,.05l.05,0Zm.12-1.1s0,.14-.09.14l0,0h.07c.05,0,.05,0,.05-.15Zm.26-3.43v0h.07v0Zm.16,4.22c0-.05,0-.05,0-.05s0,.07.09.14Zm.52-1.66.14,0H202Zm0,.2s0,0,0,0,0,0,0,0l0-.05Zm.19-.43h-.09l0,.07h.09Zm.09-.1-.07,0,0,.09.07,0Zm.31-.26v0c0,.08.11,0,.11,0Zm2.41-1.44c0,.07,0,.07.07.07S205.13,19.45,205.06,19.45Zm.84-.15a.13.13,0,0,1,0,.1v0h0c.05,0,.05-.07,0-.12Z" transform="translate(0 0)"/></g></g></svg>