<svg xmlns="http://www.w3.org/2000/svg" viewBox="0 0 226.47 63.59"><defs><style>.cls-1{fill:#1e1e1c;}</style></defs><title>LOGO</title><g id="Capa_2" data-name="Capa 2"><g id="LOGO"><path class="cls-1" d="M0,16.4V.29H2.23L5.39,9.12c.22.56.42,1.12.6,1.69s.38,1.15.58,1.72h.1c.21-.57.41-1.15.59-1.72s.37-1.13.56-1.69L10.93.29h2.26V16.4H11.5V7.09c0-.46,0-1,0-1.5s.05-1.08.08-1.63.07-1.06.1-1.53h-.1L10.35,6.08,7.21,14.74H5.93L2.77,6.08,1.5,2.43H1.4c0,.47.07,1,.11,1.53s.07,1.09.1,1.63,0,1,0,1.5V16.4Z"/><path class="cls-1" d="M20.62,16.4V.29h9.14V1.84H22.43V7.16h6.18V8.68H22.43v6.18H30V16.4Z"/><path class="cls-1" d="M36.41,16.4V.29h1.86l6.08,10.45,1.77,3.31h.09c0-.82-.1-1.66-.15-2.51S46,9.84,46,9V.29h1.72V16.4H45.82L39.74,6,38,2.65h-.1c.06.8.12,1.61.17,2.44s.07,1.65.07,2.49V16.4Z"/><path class="cls-1" d="M55.14,16.4V.29h4a8.35,8.35,0,0,1,4.15,1A6,6,0,0,1,65.77,4a10.12,10.12,0,0,1,.84,4.32,10.36,10.36,0,0,1-.84,4.35,6.06,6.06,0,0,1-2.52,2.79,8,8,0,0,1-4.09,1ZM57,14.91h2a6,6,0,0,0,3.25-.81,4.89,4.89,0,0,0,1.92-2.28,8.77,8.77,0,0,0,.64-3.53,8.65,8.65,0,0,0-.64-3.5,4.72,4.72,0,0,0-1.92-2.23,6.28,6.28,0,0,0-3.25-.77H57Z"/><path class="cls-1" d="M79,16.7a6.27,6.27,0,0,1-3.55-1A6.88,6.88,0,0,1,73,12.75a10.59,10.59,0,0,1-.87-4.46A10.36,10.36,0,0,1,73,3.86,6.73,6.73,0,0,1,75.42,1,6.71,6.71,0,0,1,82.5,1a6.73,6.73,0,0,1,2.42,2.85,10.36,10.36,0,0,1,.87,4.43,10.59,10.59,0,0,1-.87,4.46,6.88,6.88,0,0,1-2.42,2.92A6.28,6.28,0,0,1,79,16.7Zm0-1.6a4.21,4.21,0,0,0,2.59-.84,5.52,5.52,0,0,0,1.73-2.38,9.81,9.81,0,0,0,.61-3.59,9.53,9.53,0,0,0-.61-3.56,5.29,5.29,0,0,0-1.73-2.31,4.49,4.49,0,0,0-5.2,0,5.29,5.29,0,0,0-1.73,2.31A9.34,9.34,0,0,0,74,8.29a9.61,9.61,0,0,0,.61,3.59,5.52,5.52,0,0,0,1.73,2.38A4.2,4.2,0,0,0,79,15.1Z"/><path class="cls-1" d="M90.64,16.4V15.32L99.32,1.84H91.43V.29h10.15V1.37L92.9,14.86h8.75V16.4Z"/><path class="cls-1" d="M105.6,16.4,111.11.29h2l5.5,16.11H116.7l-2.91-9.12c-.3-.91-.58-1.82-.85-2.71s-.54-1.81-.82-2.76H112c-.24.95-.5,1.87-.77,2.76s-.56,1.8-.87,2.71l-2.94,9.12Zm2.79-5.07V9.88h7.38v1.45Z"/><path class="cls-1" d="M131.44,16.4V.39h3.36V13.58h6.42V16.4Z"/><path class="cls-1" d="M152.55,16.7a7.06,7.06,0,0,1-3.77-1,6.73,6.73,0,0,1-2.53-2.88,10.1,10.1,0,0,1-.91-4.47,9.85,9.85,0,0,1,.91-4.44,6.56,6.56,0,0,1,2.53-2.82,7.23,7.23,0,0,1,3.77-1,7.13,7.13,0,0,1,3.75,1,6.54,6.54,0,0,1,2.52,2.82,9.85,9.85,0,0,1,.91,4.44,10.1,10.1,0,0,1-.91,4.47,6.7,6.7,0,0,1-2.52,2.88A7,7,0,0,1,152.55,16.7Zm0-2.92a3.1,3.1,0,0,0,2-.66,4.17,4.17,0,0,0,1.31-1.89,8.14,8.14,0,0,0,.47-2.89,7.82,7.82,0,0,0-.47-2.86,4.08,4.08,0,0,0-1.31-1.83,3.2,3.2,0,0,0-2-.63,3.25,3.25,0,0,0-2,.63,4.06,4.06,0,0,0-1.3,1.83,8.06,8.06,0,0,0-.45,2.86,8.39,8.39,0,0,0,.45,2.89,4.15,4.15,0,0,0,1.3,1.89A3.15,3.15,0,0,0,152.55,13.78Z"/><path class="cls-1" d="M168.31,16.4l-4.88-16H167L169,8c.27.9.49,1.76.68,2.59s.4,1.69.65,2.58h.1c.26-.89.49-1.76.68-2.58s.41-1.69.64-2.59l2-7.65h3.43l-4.88,16Z"/><path class="cls-1" d="M181.94,16.4V.39h9.91V3.21H185.3V6.72h5.57V9.54H185.3v4h6.79V16.4Z"/><path class="cls-1" d="M198.25,16.4V.39h5.64A9.46,9.46,0,0,1,207,.85a4.39,4.39,0,0,1,2.2,1.52A4.72,4.72,0,0,1,210,5.3a5,5,0,0,1-.82,2.94A4.76,4.76,0,0,1,207,9.93a8.26,8.26,0,0,1-3.06.54h-2.28V16.4Zm3.36-8.6h2a3.66,3.66,0,0,0,2.3-.63,2.23,2.23,0,0,0,.79-1.87,1.86,1.86,0,0,0-.79-1.74,4.41,4.41,0,0,0-2.3-.5h-2Zm5.32,8.6-3.66-6.81,2.36-2.11,5.07,8.92Z"/><path class="cls-1" d="M220.53,16.7a8.64,8.64,0,0,1-3.12-.6,8.42,8.42,0,0,1-2.76-1.73l1.94-2.31a6.76,6.76,0,0,0,1.92,1.25,5.23,5.23,0,0,0,2.1.47,3,3,0,0,0,1.81-.45,1.51,1.51,0,0,0,.62-1.27,1.28,1.28,0,0,0-.31-.89,2.85,2.85,0,0,0-.83-.59c-.36-.17-.77-.36-1.24-.55l-2.11-.91A7.29,7.29,0,0,1,217,8.21a4.24,4.24,0,0,1-1.21-1.41,4.1,4.1,0,0,1-.47-2A4,4,0,0,1,216,2.43a5.05,5.05,0,0,1,2-1.69A6.23,6.23,0,0,1,220.9.1a7.27,7.27,0,0,1,2.74.54A7,7,0,0,1,226,2.18l-1.69,2.13a6.59,6.59,0,0,0-1.6-1A4.68,4.68,0,0,0,220.9,3a2.71,2.71,0,0,0-1.58.41,1.33,1.33,0,0,0-.6,1.15,1.28,1.28,0,0,0,.32.89,2.67,2.67,0,0,0,.89.6l1.27.55,2.06.83a6.46,6.46,0,0,1,1.69,1,4.45,4.45,0,0,1,1.11,1.41,4.38,4.38,0,0,1,.41,1.95,4.53,4.53,0,0,1-.7,2.44,4.91,4.91,0,0,1-2,1.79A7,7,0,0,1,220.53,16.7Z"/><path class="cls-1" d="M19.13,46.34l-.09.11h-.13l-.25,0-.06.09h-.11l0,.08-.05-.05-.11,0h-.06v.09H18l0,0-.11,0-.08,0v0l-.14,0v.06l-.05,0-.36.06,0,0,0,.08h-.23l-.36.06L16.5,47l-.36.09L16,47l-.16.11-.06.09-.3-.06-.14,0c-.08.4-.36.57-.47.82s-.08.34-.22.65l-.55.66s.05,0,0,0-.06.14-.14.26-.14,0,0,.19c-.33,0-.44.4-.58.6a.62.62,0,0,1-.28.31l-.66.62h-.08c0,.2-.28.4-.47.54s-.39.2-.5.25-.19.17-.36.37a.52.52,0,0,0-.25,0,5,5,0,0,0-.61,0,.46.46,0,0,1-.19,0c-.19-.17-.19-.22-.28-.22s-.24,0-.38-.2c0,0-.22,0-.25-.12-.19-.11-.19-.16-.22-.25v-.06a1.12,1.12,0,0,1-.14-.79c.11,0,0-.17,0-.2A1.61,1.61,0,0,1,9.12,50a.38.38,0,0,1,.2-.26,6.38,6.38,0,0,1,1.08-1c.11-.23.35-.29.52-.54.14,0,.14,0,.17,0l.11-.06c0-.05.08-.08.19-.08.19-.26.61-.4.83-.57.39-.22.77-.53,1.19-.76a5.38,5.38,0,0,1,.8-.26l.14-.62c.38-.25.38-1,.41-1.38h0v-.2h0V44.1h0v-.05c-.27-.34-.33-.37-.16-.48-.09-.09-.06-.37-.28-.37a.71.71,0,0,0-.55-.12,2.06,2.06,0,0,0-.58,0c-.28.08-.69,0-1,.14s-.5.34-.72.34-.36,0-.33.2c-.14,0-.14,0-.14.11l-.14-.2c-.17.14-.28.14-.33.34-.14-.08-.14.17-.28.17s-.22.09-.3.09-.14.17-.25.19,0,.09-.08.15h0a2.29,2.29,0,0,1-.47.53c-.19,0-.19.06-.22.17s-.17.31-.42.43-.16.51-.49.54a.68.68,0,0,1-.25.5c-.17,0-.17.17-.31.29s-.19.14,0,.39a2.59,2.59,0,0,1-.31.2s0,0,0,.2c0,0,0,.17,0,.17-.2,0-.23,0-.2.14C6.72,48,6.66,48,6.66,48c.2.37,0,.62-.11.65a2,2,0,0,0-.47.71c0,.14-.11.42-.27.48,0,.17-.08.25-.2.25H5.53a2,2,0,0,1,0,.42s-.08,0-.08,0,.08.34,0,.34-.25.12-.42.2c0,.23.14.28.17.45a.3.3,0,0,0-.25.15c.06.14-.14.19-.14.33s-.08.15,0,.17a.34.34,0,0,1-.11.32l0,.08a2.25,2.25,0,0,1-.19.57A7.19,7.19,0,0,0,4,54.32c.06.08.06.11-.14.11,0,.23,0,.31,0,.34A1.71,1.71,0,0,1,3.43,56c0,.12-.36.15-.52.12S2.57,56,2.55,56c-.2,0-.28-.17-.5-.48C2,55.48,2,55.31,2,55.28c0-.54,0-1.08,0-1.59,0-.34,0-.7.23-.87a3.51,3.51,0,0,1,.16-1,16.29,16.29,0,0,1,.5-2.07l.44-1.78a8.62,8.62,0,0,0,.33-1.75,1,1,0,0,0,.25-.54,4.68,4.68,0,0,0,.22-1.19,3.29,3.29,0,0,0,.36-.93c.08-.37.17-.51.28-.93a4.77,4.77,0,0,0,.36-1,2.13,2.13,0,0,1,.3-.9c0-.57.17-1,.19-1.25l0,.09L6,38.36l0-.08h0l.27-.57v-.06l.25-.79,0-.11h0L6.69,36l0,0v0l.08,0,.25-.9.11-.2c0,.28.11-.12.08-.23.14-.28.34-.34.39-.68a4.42,4.42,0,0,0,.28-.9c.11-.12.11-.2.25-.29a3.6,3.6,0,0,1,.33-1.13c.14-.31.27-.65.39-.87a7.27,7.27,0,0,0,.46-1.62,1.59,1.59,0,0,0,.34-.7l.22-.6a3.75,3.75,0,0,0,.19-.9l-.08-.2c0-.14-.06-.31,1.16-.34.11,0,.22.31.36.31a.68.68,0,0,1,.3.71c0,.34,0,.45,0,.65s.08.48.06.73c0,.09,0,.09-.17.26,0,.2-.19.31-.25.62a5.65,5.65,0,0,0-.3.57,2.05,2.05,0,0,1-.34.48c0,.14-.11.53-.3.68a1.25,1.25,0,0,1-.36.7s.06,0,0,.15l0,.25a1,1,0,0,1,.22-.76l-.11-.15c-.09,0-.17.15-.25.34,0,0,0,.17,0,.2-.08.2-.14.54-.28.91.2,0,.2,0,.2-.12s.08-.39.25-.42L9.93,33l-.31.76h0l0-.11c0-.06,0-.06.14-.2s0-.34,0-.45a4.66,4.66,0,0,0-.22.45H9.32a1.12,1.12,0,0,1-.11.59s0-.14-.11-.14a1.56,1.56,0,0,0-.2.62c-.14.09-.14.12-.16.12,0,.25,0,.54,0,.71,0,0,0,0,0,.19l0,0v0c0,.06,0,.06,0,.09V35.5c-.3-.19-.22.2-.38.2s-.14,0-.11.26c0-.23.05-.23.16-.23,0,.28-.16.82-.41.93.05,0,0,.12,0,.17,0,.23,0,.31-.22.46,0,.22,0,.22-.11.28v-.06a.89.89,0,0,0,.11-.37s.16-.11.11-.31v-.08l-.22.11a1.23,1.23,0,0,1-.14.68c.16.25.16.25.16.37s0,0,0,0c0,.28,0,.31,0,.31s0,.14-.25.28v.06c-.11-.2.2-.31-.11-.68.06.28.11.31.06.31-.14.31-.14.68-.25.85a17.76,17.76,0,0,0-.66,2c-.06.4-.34.68-.39,1.25a9.84,9.84,0,0,1-.47,1.39,2.83,2.83,0,0,1-.19.84l0,.23c.06.17.11.2.14.11a2.1,2.1,0,0,1-.22.6c0-.2.14-.4.11-.51,0,.05,0,.05,0,.08a2.55,2.55,0,0,0-.52,1.22c-.06.06,0,.31-.06.4,0,.25-.14.59-.19.87s-.17.82-.39,1.39c0,.06-.05.06-.05.2s0,.11,0,.17-.06,0-.06.08c-.08.37-.28.6-.19.91s-.17.31-.11.62c0-.14,0-.14.11-.23s0-.08.13-.08c.17-.17.17-.6.36-.82a3,3,0,0,1,.53-1c0-.15.14-.15.33-.34.08-.4.25-.51.47-.94A1.77,1.77,0,0,1,6,47a4.35,4.35,0,0,0,.5-.45c0-.12,0-.26.11-.31h0A.46.46,0,0,0,7,45.89a.35.35,0,0,1,.16-.29c.14,0,0-.11,0-.28a2.19,2.19,0,0,0,.39-.26c.11-.14.11-.45.28-.5s.11,0,.08-.06,0-.2.11-.2a2.85,2.85,0,0,0,.58-.73,2.9,2.9,0,0,0,.58-.4c.22-.09.52-.34.8-.45s.14-.17.17-.17a3.76,3.76,0,0,0,.88-.4c.19,0,.5-.06.8-.06a3.15,3.15,0,0,1,.55-.08H13a6.72,6.72,0,0,1,1,.4,2.59,2.59,0,0,1,.69.42,2,2,0,0,1,.58.48l.14.26v0h0l.22.32,0,.05v.09h0v.08c-.06.06-.06.09,0,.17a3,3,0,0,1,.16,1.25s0,.05,0,.05a.52.52,0,0,1-.09.31v0a.19.19,0,0,0,0,.12h0v0l-.08.09v0h0v.14h0c.06,0,.25,0,.25-.08l1-.28v0l.64-.2s.58,0,.63-.09l1.72-.71s.58-.28,1.74-1v0h0l0,.09.08,0,.06,0v0h.06l0,.06a.13.13,0,0,1,0,.06c-.2,0-.25,0-.23.17.17.14,0,.39-.52.37H21l-.24.31a3.29,3.29,0,0,1-1.47.82s0,0,0,.17Zm-10.78-2c-.17.2-.3.62-.66.85,0,.14,0,.14,0,.14-.19.2-.19.31-.39.34a.57.57,0,0,0-.3.43c0,.14-.25.19-.25.33a4.07,4.07,0,0,1-.69.94s-.08,0-.08,0l0,.19a1.41,1.41,0,0,0-.27.46,4.56,4.56,0,0,0-.39.85c-.28.25-.47.36-.39.53-.19.4-.22.63-.33.65-.14.46-.3.68-.44,1.08a1,1,0,0,1-.39.76c0,.34,0,.6,0,.65,0,.31-.19.46-.22.8l0,.19.17-.17a.75.75,0,0,1,.17-.53s0-.17,0-.34a.46.46,0,0,1,.22-.37s0,0,0-.23a.68.68,0,0,0,.28-.7c.08,0,.08,0,.08-.17a1.17,1.17,0,0,0,.08-.37.39.39,0,0,0,.28-.31c0-.09.06-.23.06-.31s-.09,0,0-.23c.08,0,0-.06,0-.06,0-.34.25-.36.22-.51a.32.32,0,0,0,.31-.36l0-.15.09-.05c0-.14.16-.28.25-.14,0-.14-.06-.2,0-.4S6,48,6,48s.08-.43.3-.46.06-.19.06-.19c-.06-.2.14-.2.14-.31s.13,0,.08-.15,0-.14,0-.14.16-.14.41-.14l0-.42h.13a.38.38,0,0,0,.34-.51.54.54,0,0,0,.3-.4c.19-.14.3-.14.3-.37.11.17.11.17.2.17,0-.25,0-.51.22-.59l.19-.26c.06-.11.25-.11.25-.36A1.45,1.45,0,0,0,8.35,44.3ZM4.26,49.59a1.05,1.05,0,0,1,0,.43A2.27,2.27,0,0,1,4.26,49.59ZM4.9,46.9c0,.4-.11.46-.11.68h0C4.79,47,4.79,47,4.9,46.9Zm.71-2.8a4.54,4.54,0,0,1,.23-.65c0-.08,0-.28,0-.28h.17c-.17.2-.2.28-.2.42a1.31,1.31,0,0,1-.22.8s.09.17-.11.19C5.42,44.41,5.56,44.27,5.61,44.1Zm.53-1.33v-.11A.93.93,0,0,1,6.36,42h.08C6.39,42.35,6.39,42.66,6.14,42.77Zm.44-1.47c0-.2,0-.37.06-.39A1.22,1.22,0,0,1,6.58,41.3Zm.22-.9c0-.23.17-.6.17-.85h.16a5.23,5.23,0,0,1-.33,1Zm.86-1.81a.81.81,0,0,0,.28-.82c.11,0,.16-.2.16-.23s0-.2,0-.25a.22.22,0,0,1,.16-.2c0-.06,0-.34.14-.43l.06-.36c0-.12,0-.26.14-.29s.08,0,.11-.28c0,0,0,0,0,0a2.55,2.55,0,0,1-.16.71c-.14.34-.31.88-.47,1.36a1.42,1.42,0,0,1-.3.65c0,.17-.09.28-.12.51C7.66,38.7,7.71,38.64,7.66,38.59ZM8.21,36c-.14,0-.14.17-.19.45A1,1,0,0,0,8.21,36Zm.11-.51a.4.4,0,0,0,.14-.28C8.32,35.22,8.32,35.48,8.32,35.5Zm.17-2.91a.61.61,0,0,0-.14.37v.2h0a1,1,0,0,0,.11-.49Zm.19,2c-.22.28-.22.4-.14.59,0-.31.17-.39.14-.56Zm.06-.28c0-.09.25-.23.14-.34C8.85,34,8.74,34.17,8.74,34.29Zm.16.87c.09-.31.22-.39.17-.56v0c.22,0,.22-.17.25-.26l0-.11.08.09a3.2,3.2,0,0,1-.47,1.19s0-.15-.08-.17C8.93,35.31,8.9,35.22,8.9,35.16ZM9.18,31c-.06.17-.19.17-.08.25-.11.06-.11.06,0,.2C9.1,31.32,9.18,31.23,9.18,31ZM9.07,43.76c-.06,0,0,.12,0,.2.11-.08.3-.08.27-.25A1.15,1.15,0,0,0,9.07,43.76Zm.83-.59c-.11,0-.2,0-.36.25A3.39,3.39,0,0,1,9.9,43.17Zm0,6.51c.14-.17.14-.2.17-.2l.28-.34.55-.43c.14,0,.22-.11.27-.17l0-.08c.11,0,.22-.11.38-.2s.17-.2.25-.2H12s.11,0,0-.08c.33-.14.47-.26.83-.4h0c.11-.08.11-.11.23-.25a1.6,1.6,0,0,0,.35-.14c.2-.14.34-.17.53-.31H14a.2.2,0,0,1,0-.12l.09-.17a.1.1,0,0,0-.06,0c-.11.11-.39.14-.52.28h-.17c0,.12,0,.12-.19.12,0,.11-.11.2-.2.28s-.25.17-.52.23-.47.19-.53.34a.38.38,0,0,1-.36,0,.33.33,0,0,1-.16.42,1.72,1.72,0,0,0-.86.59,3.3,3.3,0,0,0-.55.37s-.06,0,0,.17.05.06-.14.09H9.76c0,.11-.08.11-.08.17l-.06,0c.06,0,.06.09.06.09a.08.08,0,0,0,.08-.09C9.9,49.68,9.9,49.68,10,49.68Zm3.71-2.07a.74.74,0,0,0-.23.14c-.24.09-.24.26-.41.26l-.55.31-.86.62c-.17,0-.19.06-.3.2a.61.61,0,0,1-.25.34,1.67,1.67,0,0,0-.64.59c-.19.09-.3.29-.49.6,0,0-.06,0,0,.08a1.19,1.19,0,0,0-.17.4v.17H9.7s0,0,.06,0h.11c.5,0,.61-.34.91-.43a3,3,0,0,1,.58-.48,4.61,4.61,0,0,0,1-1l.8-1C13.13,48.15,13.43,47.81,13.66,47.61Zm-1.77-4c.11-.14.3-.36.47-.39C12.22,43.51,12,43.51,11.89,43.59Zm1-.42s-.06,0-.06,0v0Zm0,0,.08-.06h.14Zm1.66,4h0l-.25.14a.46.46,0,0,0,0,.2,1.26,1.26,0,0,0-.38.54c-.2.11-.2.28-.47.68v.25c.08,0,.33-.08.27-.37.06,0,.25-.28.34-.34-.09-.11,0-.11,0-.17,0-.28.22-.45.58-.65A.73.73,0,0,1,14.57,47.13Zm1.21-.79v-.06h0S15.78,46.31,15.78,46.34Z"/><path class="cls-1" d="M23.74,49.45c-.13-.06-.13-.06-.16.09s.08.11,0,.14l-.17,0c-.11,0-.11,0-.05.17v0h.08c-.05.14-.05.14-.14.09a1.59,1.59,0,0,1-.41.48l-.08.05s0-.05,0-.05-.06,0-.06.2v0c-.05,0-.08,0-.11,0l-.11-.11s0-.06,0,0a.1.1,0,0,0-.06,0c0,.14-.08.34-.08.51a.1.1,0,0,1-.11.11c-.11,0-.22,0-.31-.11s-.16,0-.19,0a.57.57,0,0,0-.11.11h.19s.06,0,.06,0,0,.06,0,.06-.22.08-.25.2l-.05-.06c-.06,0,0-.17-.11-.11s-.06.08,0,.11a.38.38,0,0,1-.08.31.17.17,0,0,1-.17,0l-.11,0s-.08-.05-.11,0a.62.62,0,0,1-.58.11,1.78,1.78,0,0,0-.75-.11c-.11,0-.27,0-.27-.17,0,0,0,0-.06,0s-.08-.12-.11-.17a1.06,1.06,0,0,1-.05-.34c-.09-.12-.17-.2-.17-.34s-.11-.17-.08-.31l.14-.43c0-.14,0-.25.11-.31a.37.37,0,0,1-.06-.4.9.9,0,0,0,.11-.56,1,1,0,0,1,.28-.65c.08,0,.05-.06,0-.09a.11.11,0,0,1,.08-.08c.11,0,.11-.09,0-.26a.38.38,0,0,1,.11-.28c.14-.08.11-.31.28-.37s.05-.08.08-.14c.05-.28.25-.4.3-.56a1.77,1.77,0,0,1,0-.4c.06-.11.08-.2.25-.2s.14-.08.17-.11l.08-.2a3.38,3.38,0,0,1,.36-.74l.16-.31c.11-.08.14-.22.23-.31a.34.34,0,0,0,.13-.22,1,1,0,0,1,.22-.23.45.45,0,0,0,.12-.2.71.71,0,0,1,.24-.28c.06,0,.11-.17.17-.17a.5.5,0,0,1,.36,0,5,5,0,0,1,.77.36v0h0l-.08.09h0c.14.11.17.28.25.42a.43.43,0,0,1-.06.09s-.08,0-.14,0a.7.7,0,0,0-.41.43,2.74,2.74,0,0,1-.44.7c-.06,0-.11.09-.08.12a.63.63,0,0,1-.28.42l-.06.12a.85.85,0,0,1-.24.53.47.47,0,0,0-.2.54c0,.06,0,.11-.11.11s-.16.12-.19.26,0,.14-.06.17c-.19.05-.22.14-.16.31,0,0,0,.06-.06.08l-.11.06c-.19.09-.19.09-.17.28,0,0,0,.09,0,.09a.24.24,0,0,0-.2.2s-.11.08-.16.11a.1.1,0,0,1,0,.06l.11,0s.06,0,.08,0,.11,0,.11,0-.3.74-.41.71h-.08c-.09,0-.11,0-.14.09s0,.17.08.14h.06v.06l-.28.53c-.08.09,0,.31.25.09h.14l.25-.09-.09.09-.05,0-.06,0-.08.06-.08,0h-.06l-.08.06.08,0,.14,0,.08-.06h.06l.11,0,.08-.06.06,0,0,0,.09-.09v0a4,4,0,0,0,.66-.5c.08-.09.19-.17.19-.32s0-.11.11,0a.17.17,0,0,0,.14-.09c.11-.08.25-.14.39-.22.11-.51.75-.68,1.05-1l.08-.12c.31-.19.5-.45.8-.65l.17-.17a1,1,0,0,1,.33-.25s.08-.06.11-.09c.2-.19.44-.31.64-.5a.2.2,0,0,1,.14-.06s.11,0,.05,0a.14.14,0,0,1,.14-.17c0-.06.08-.06.11-.08s0,.11,0,.17l0,0c.08,0,.08-.09.08-.17s0-.17.08-.2c.58-.31,1.05-.79,1.58-1.13.16-.09.27-.23.44-.31s.14-.09.19.08a.1.1,0,0,0,.06,0s0,0,.05-.06V44s0-.06,0-.09,0-.14.08-.14.08,0,.08,0c.2-.25.44-.08.58-.22s.06-.12.11-.17.06.08.11,0a.25.25,0,0,1,.31-.06c.05.06.14.06.16,0s.11-.08.2-.11.11.06.08.11,0,.09,0,.12.55-.34.58-.06c.22.08.44.23.67.34,0,0,0,0,.05.06a4.21,4.21,0,0,1,.55.93.81.81,0,0,1,.11.65s.06,0,0,.08a1.29,1.29,0,0,1,.09.46,2,2,0,0,0,0,.42,1,1,0,0,1,0,.6.1.1,0,0,0-.06.11c.23.23.09.48.11.71s0,.39,0,.59c-.19.11,0,.25-.05.31s0,.26,0,.4l0,.42v.37s0,.08,0,.11a.68.68,0,0,0-.11.37,2,2,0,0,1,0,.4.18.18,0,0,0-.05.14l.11.42.52-.71c.06-.05.08-.14.14-.19l.19-.17c.2-.26.39-.46.56-.68a5.41,5.41,0,0,1,.94-1.08l.93-.82.75-.56.11-.06s.06,0,.08,0,0,.06,0,.06a1,1,0,0,1-.39.42,1.44,1.44,0,0,0-.33.25.55.55,0,0,1-.14.17,11,11,0,0,0-.86.74l-.58.68c-.25.25-.44.56-.72.82l-.22.17-.11.17a.94.94,0,0,1-.36.42,1.61,1.61,0,0,0-.19.31c-.08.09-.17.06-.28,0a.59.59,0,0,1,0,.29.45.45,0,0,0-.14.22c0,.14-.14.26-.11.37s0,.08-.05.11v.12c0,.08-.09.17,0,.28s0,.17,0,.22a.54.54,0,0,0-.06.29s-.05.08-.11.11c-.49.2.2.37-.11.62,0,.14-.08.43-.22.46l-.14,0c-.05.12,0,.09.06.09s.08,0,0,.08l0,0a.11.11,0,0,1,0,.09l0,0h0v0c-.16.08-.27.28-.05.33s.11.06.05.15l-.19.17a.14.14,0,0,1,0,.17c-.11.11-.08.31-.22.45s-.06.11-.06.14a2.8,2.8,0,0,1-.08.59,1.17,1.17,0,0,0-.19.26c-.06.17-.06.17-.25.14H30s-.09.06-.06.09,0,.28-.16.42,0,.14,0,.2,0,0,0,0,.06,0,.09,0l.08-.09s0,.06.05.11,0,.06.06.09,0,.17-.47.71c0,.08,0,.11,0,.17s.05.17-.08.22h-.14c0-.22-.06-.22-.08-.2l-.17.29s0,0,.05.08a.13.13,0,0,1,.09,0l.11-.14.05.23s0,.08-.05.08a.68.68,0,0,0-.33.43.73.73,0,0,0-.14.54s0,.05,0,.05c-.41.11-.08.54-.47.62a.11.11,0,0,0,0,.17c0,.06,0,.15-.08.12a1.06,1.06,0,0,1-.14,0s-.08,0,0,0-.12.22-.17.31a.2.2,0,0,0,0,.25l.14.12c.05.08.05.2-.11.25,0,0-.06,0-.06-.08s0-.09-.14-.06v.06s0,0,0,0,0,0,0,0,0,0,0-.06-.13,0-.16,0l-.06.2c0,.11,0,.08.09,0h.08v.09c-.08.08-.14.2-.36.17s-.08,0-.06.17V63a.06.06,0,0,1-.05.06c-.14-.09-.14,0-.17.08s-.16.15-.25,0l-.13-.08s0,0-.06.11-.05,0-.08,0-.09-.11-.2-.06-.24-.08-.3-.25l0-.34s0-.06-.05-.06,0,0,0,.06a.23.23,0,0,1-.11.23,1.16,1.16,0,0,0-.08-.31c-.06-.12-.2-.26,0-.43v-.08a.58.58,0,0,1,0-.29.24.24,0,0,0,.11-.2,1.14,1.14,0,0,1,.22-.53l.36-.62c0-.46.47-.68.47-1.11,0,0,.06,0,.06-.08s0-.2.08-.2a.27.27,0,0,0,.14-.17,2,2,0,0,1,.11-.4s.08-.08.16-.11a.23.23,0,0,1,.06-.2L28,57.4l.38-.74c.06-.11.14-.22.22-.34a4.79,4.79,0,0,1,.34-.53,7.47,7.47,0,0,1,.77-1.22c.33-.2.28-.31.28-.68a2.6,2.6,0,0,1,.19-.42.49.49,0,0,0,0-.2c0-.06.11-.11.16-.17s.14-.51.14-.57A1.05,1.05,0,0,1,30.6,52a1.28,1.28,0,0,0,0-.26c0-.11,0-.25.14-.31v0a3.71,3.71,0,0,1,.14-.71c.06,0,0-.14,0-.22s.06-.26,0-.34a.09.09,0,0,1,0-.06c.06-.08.17-.2.14-.31s.11-.48,0-.71c-.06,0-.11,0-.06-.11s.11,0,.14,0,.08-.14.06-.26a.06.06,0,0,0-.06-.05c-.14-.06-.05-.12,0-.17s.09-.26.11-.37.09-.23-.05-.34a.21.21,0,0,1,0-.28c.14-.09.11-.2.11-.34s0,0-.06,0-.11.06-.11-.06l0-.54v-.19A5.61,5.61,0,0,1,31,45.23c-.06-.22-.11-.42-.17-.59l-.19-.31c0-.09-.11-.09-.11-.2s0,0-.06-.05-.24,0-.3.14-.08.08-.11.08a1.8,1.8,0,0,0-1,.51c-.08,0-.08,0-.13.06s-.09.11-.11.08-.2,0-.2.11a.28.28,0,0,1-.25.26l-.05.08H28.3v0a.24.24,0,0,1,.11-.06l-.11,0a1.4,1.4,0,0,0-.25.06.19.19,0,0,0-.13.22s0,.06,0,.09,0,0-.05.06-.28.11-.44.22h-.06a.18.18,0,0,0-.11,0s-.05.06-.05.09a.1.1,0,0,0,.05.08c.06,0,.17-.08.17,0s-.09.09-.14.14a.06.06,0,0,1-.06.06.15.15,0,0,1-.16,0c-.17-.08-.17-.08-.22.08s0,.12-.14.12c-.42,0-.58.62-.17.14,0,0,0,0,0-.06s.06,0,.06.06c.08.25-.34.37-.53.45,0,.09-.06.12-.08.2s-.2-.08-.2.06-.11.11-.13.19-.06.06-.09,0-.05,0-.08,0-.08,0-.08.08,0,.26-.14.37,0,.06,0,.09a.08.08,0,0,1,0,.05c0,.09-.08.14-.13.09s-.09-.09-.17,0l-.08.08s0,0-.06,0a.09.09,0,0,1,0-.08v-.12s0,0,0,0c0,.23-.14.34-.28.48v0l-.22-.08c-.05.08,0,.14.08.22l.14.2c-.05.14-.14.14-.25.14s-.16.09-.16.2-.06.06-.08.06-.06-.06-.06-.09,0,0,0-.08-.06,0-.06-.06a.06.06,0,0,0-.05.06.34.34,0,0,0,0,.17.37.37,0,0,0-.05.17S23.77,49.48,23.74,49.45Zm-4.64.28v-.08l.06-.26s0,0,0,0l0,0c0,.12,0,.2-.05.23Zm2.79,1s-.05,0-.08,0,0,.06.05.09l.12,0ZM22,51c.08-.06.08-.09,0-.15H22V51Zm2.29-2c.06-.09.06-.12,0-.12s-.06,0-.09,0l0,.12s0,0,.06,0A0,0,0,0,0,24.32,49Zm.25-.43c.14.11.14.14,0,.28ZM24.66,47s.08.08.11,0l.11-.14a.1.1,0,0,0,0-.06h0Zm1.1-.12a.09.09,0,0,1,.08,0c.31,0,.34-.22,0,0Zm1.3-.25s0,0,.05-.06a.1.1,0,0,1,0,.06.27.27,0,0,1-.05.11S27,46.68,27.06,46.65Zm.05,16.69.17.11c.06.06.08.14,0,.14a.37.37,0,0,1-.17-.05.22.22,0,0,1-.05-.14s0,0,0-.06Zm.2-2.57s0,0,0,0,.05,0,.05,0,0-.06,0-.09A.11.11,0,0,0,27.31,60.77Zm.27-.68c.06,0,0,0,0-.06l-.11.06a5.25,5.25,0,0,0-.16.59A.6.6,0,0,0,27.58,60.09Zm-.13,3.36-.06-.05a.11.11,0,0,1,0-.14l.08-.06s.06,0,0,.06v.14Zm.33-2-.06,0s0,0,0,0a.19.19,0,0,0-.09.15.17.17,0,0,0,0,.11s.09,0,.11-.06a.2.2,0,0,0,.06-.14Zm-.08,1.33c0,.06,0,.12,0,.17s0,0,0,0h0a.38.38,0,0,1,0-.2s0,0,0,0S27.7,62.77,27.7,62.77Zm.05-17.34s0,0-.05,0,0,0,0,.06a.11.11,0,0,0,0,.09s0,0,.05.05,0-.05,0-.08A.11.11,0,0,0,27.75,45.43Zm1.93,10.1s-.05-.05-.08-.05a.57.57,0,0,0-.3.22,2.68,2.68,0,0,1-.17.34c-.16.11-.22.34-.33.57a1.76,1.76,0,0,1-.17.34c-.05.14-.13.14-.24.14a1.9,1.9,0,0,1,0,.34l-.09.31c0,.08-.05.14-.11.11s-.11,0-.11.06c-.11.25.06.37-.11.65,0,.08-.08.11-.19.11l0,0a1.09,1.09,0,0,0,.06.28.07.07,0,0,0,.05,0,.1.1,0,0,1,.06,0c0-.17.11-.25.16-.39l.39-.77a.45.45,0,0,1,.28-.28s.08-.08.08-.14.11-.25.08-.37.17-.25.25-.37,0-.08,0-.11a.44.44,0,0,1,.08-.2l.14-.28c0-.06.06-.06.14,0s0,0,.05.06.06,0,.09,0,0-.31,0-.51A.13.13,0,0,1,29.68,55.53ZM28,59.15a.35.35,0,0,0-.16.06s0,.06,0,.08h0c.06,0,.11,0,.14,0Zm0,3.31s0,0-.05.06a.1.1,0,0,1,0-.06s.06-.05.06-.08A.13.13,0,0,1,27.94,62.46Zm.56-3.9c-.06,0-.14-.06-.2,0a.21.21,0,0,0-.11.17.1.1,0,0,0,0,.06c.11,0,.19-.09.28-.12Zm-.09,2.18s0,0-.05,0l-.17.08v0a.22.22,0,0,0,.14.06s.06-.09.08-.09Zm.11-2.46s-.05,0-.08,0l-.05.08s0,0,.05,0Zm.56-.74c.11-.11.11-.11,0-.23l.09-.16.16-.32a.1.1,0,0,0,0,0,.13.13,0,0,1-.09,0c0,.11-.11.19-.14.28s-.08.11,0,.22Zm.11-13.07,0-.11h0l-.06.08,0,0ZM30.13,55s0,0,0,0h0Zm.22,2.49-.14.22s0,0-.06,0,0,0,0,0a2.56,2.56,0,0,1,0-.37c0-.08.09-.08.12,0S30.38,57.4,30.35,57.46Zm-.08-2.78-.12.26a.16.16,0,0,0,.17-.11.77.77,0,0,1,0-.26Zm0,2.21,0,0s0,0,0,0,0-.28,0-.42,0,0,0,0h0a.51.51,0,0,0,0,.2Zm.41-1.56v0s0,0,0,0a.27.27,0,0,0,0,.15v0a.08.08,0,0,0,.05,0,.11.11,0,0,0,0-.09S30.68,55.36,30.65,55.33Zm.64-5.71a.1.1,0,0,0-.06,0,.09.09,0,0,0,0,.08s0,0,0,.06a.1.1,0,0,0,.06,0ZM31.4,53a.06.06,0,0,0,0,0s.05,0,.05,0a.09.09,0,0,0,0-.06S31.4,52.93,31.4,53Zm.16-4.39a.13.13,0,0,0,.09,0l-.09,0c-.08,0-.11,0-.13.11Zm.31,1.22a.61.61,0,0,0-.11.42s0,.06,0,0l.13-.39,0,0Zm.14-.65c0-.06,0-.06,0-.06a.11.11,0,0,0-.09,0l-.08.17a.1.1,0,0,1,0,.06s.05,0,.05,0Z"/><path class="cls-1" d="M49.25,58.59a1.42,1.42,0,0,0,.83.17c.11,0,.33.14.53.14h.27a1.22,1.22,0,0,1,.83.25H52a1,1,0,0,1,.63-.25h.61c.25,0,.36-.14.53-.14s.83-.17,1.13-.17.3-.26.44-.26a1,1,0,0,0,.39-.11H56c.36-.23.86-.23,1.11-.42l.17-.17a.48.48,0,0,0,.33-.2H58c.14-.14.25-.14.25-.37h.36a4.86,4.86,0,0,0,.64-.4c.11,0,.25,0,.25-.14h.25V56.3h.13a1.09,1.09,0,0,0,.36-.17c0-.15.11-.15.25-.15s.14,0,.39-.39a.41.41,0,0,1,.41-.2,1,1,0,0,0,.33-.4h.11c.25,0,.25-.16.42-.16,0-.15.25-.15.25-.4.16-.09.22-.06.25,0,.11-.34.47-.34.47-.48h.16s.14,0,.14-.23h.08c.22-.17.36-.17.36-.31h.09a.08.08,0,0,0,.08-.05v.05h.19c0-.39.17-.39.17-.59h.25l.19-.2H65c0-.2,0-.2.16-.2s.11-.17.11-.17c0-.2.28,0,.31-.2l0-.19c.08,0,.11-.06.14-.09v.09a.69.69,0,0,0,.61-.54c.16,0,.22-.17.3-.23h-.08v-.17c.14,0,.14,0,.14.17.13-.17.13-.17.38-.17v-.2h-.16c.16,0,.16-.19.33-.19.11.19.11,0,.11,0s.33-.12.5-.34.33-.4.44-.4a5.39,5.39,0,0,0,.5-.56c.19-.12.08-.12.44-.12,0-.2,0-.37.11-.2,0,0,0-.17.08-.17,0-.17.25-.17.25-.17l.08-.16h.14l.14-.2c0-.14,0-.14.19-.14a2.11,2.11,0,0,0,.53-.68c.14,0,.14-.26.25-.4s.19,0,.19-.11.11,0,.25-.23c0,0,0-.11.17,0,0,0,0-.11.16-.11v.11c-.16.23-.16.23,0,.23a.11.11,0,0,1,.11.11H71.8c-.14.14-.14.37-.33.51.17,0,.19-.11.33-.11l.11-.26a.43.43,0,0,1,.31-.14v.14c-.2.26-.31.26-.31.37s-.11.25-.11,0c-.16,0-.16,0-.16.25a1,1,0,0,1-.61.66l-.11.16c-.14,0-.14,0,0,.17h-.28l-.17.37-.08.2a.14.14,0,0,1-.14.14h-.19s0-.14-.14,0a.12.12,0,0,0,.14.12h.33v.28a.62.62,0,0,0-.47.34v-.23l.14-.11h-.28c-.08,0-.08,0-.08.11h-.25c0,.31-.08.17-.19.23s0,.22-.14.22,0,0-.11.12v-.12h-.19c-.17,0,0,.12,0,.12v.19H69V50.5l.11.19V50.5s.14-.12.14,0,0,.19-.14.56c-.11,0-.11.23-.3.23,0,.17-.17.4-.31.4h-.19c-.11.14-.11.14-.3.14h-.14a1,1,0,0,1-.36.76c-.14,0-.14.2-.25.2,0,.2-.17,0-.17.2v.39l-.25-.25c-.13,0-.13.25-.27,0v.25a1,1,0,0,0-.36.31s-.11,0-.11.23c-.14,0-.36,0-.36.14s-.14.26.22.26c0,.11-.22.11-.22.11-.14.25-.5.4-.61.56,0,0-.16,0-.33.23-.14-.08-1.27,1.08-1.33.91L63.4,56v.32c.08,0,0,0,0,.22-.14,0-.3.14-.52.14h-.14c-.11.29-.11.29-.11,0-.25,0-.25-.14-.25,0s-.11,0,0,.29v.11c-.11.23-.25.23-.42.37h-.25v.2c-.11-.2-.11,0-.24,0l-.34.36c-.13,0-.27.23-.52.23,0,0-.14,0-.14.11v.26a.73.73,0,0,0-.5.17.86.86,0,0,0-.49.14.81.81,0,0,1-.72.39s-.17.23-.36.23h-.28c0,.2-.14.2-.36.2s-.3,0-.3.14H57.1a6.12,6.12,0,0,1-1.24.57c-.14,0-.14-.2-.36,0,0,0-.17,0-.17.14a.51.51,0,0,0-.44-.14.41.41,0,0,0-.3.14c-.23.31-.39,0-.53,0H54c-.22,0-.22.31-.22.31-.28-.31-.53,0-.67,0H51.52c-.14,0-.14,0-.31-.31H51.1c-.22.31-.22.31-.38,0,0-.14,0-.14-.11-.14v.14c-.2,0-.42-.14-.53-.14-.11-.2-.11-.2-.36-.2a.5.5,0,0,0-.47-.17h-.44a4.9,4.9,0,0,0-1-.34,2.75,2.75,0,0,0-1-.82c0-.14-.25-.31-.25-.31-.19-.26-.36-.37-.5-.6-.16,0-.39-.36-.47-.56a3.84,3.84,0,0,1-.69-.77c0-.14,0-.14-.14-.36s-.36-.51-.36-.91-.11-.71-.22-1.07v-.94a.67.67,0,0,1-.25-.59v-.2s0-.2.25-.2v.2h.11v-.37s0-.2-.11,0C44,52.22,44,52,44,52a.74.74,0,0,1-.06-.33v-.8c0-.2,0-.39.25-.51a.11.11,0,0,1,.11.12.11.11,0,0,0,.11-.12h.09s-.09-.05-.09-.17V50a.18.18,0,0,0,.17.12V50h-.17v-.26h.17a1,1,0,0,1,.19-.39,2.11,2.11,0,0,1,.14-.88v-.2a1.08,1.08,0,0,1,.17-.76c.14-.09.14-.09,0-.4l.14-.11c0-.26,0-.43.22-.43,0-.14,0-.14.16-.14,0-.2.08-.37.08-.59s.23-.14,0-.4c0-.17,0-.17.23-.31a.76.76,0,0,1,.16-.59v.19l.14-.19a8.35,8.35,0,0,0,.17-.94.77.77,0,0,0,.3-.51c.14-.45.14-.62.36-.79s.14-.2.14-.37.14-.39.14-.53c.19-.26.35-.43.19-.57h.16v-.37h.11v-.25c.17-.12.17-.12.17-.37h.22v-.2l.11-.08c.17-.26.17-.4.36-.65,0-.15.14-.34.14-.57H49c0-.08,0-.11-.06-.14h.28a.15.15,0,0,0-.09.14h.14V38c-.16-.2.17-.25.2-.54.13,0,.13-.22.27-.42s.25-.34.36-.76c.11,0,.11,0,.11-.12.22,0,.22-.22.42,0l.11-.22c0-.23.38-.4.16-.57.36.23.14-.14.33-.14s.17-.23.17-.4l.14-.2c0,.2.19,0,.19,0,0-.19.14-.19.14-.19.14-.2.14-.2.14-.34h.19V34a.29.29,0,0,0-.16-.29c.13,0,.16,0,.16-.14v-.11c0,.05.08.11.17.11v.14h.14c.13-.14.13-.37.38-.53h-.38l.38-.34V33H53a.94.94,0,0,1,.08-.51s0,0-.06,0h.11l-.05,0c.05.08.08.2.19.2s.25,0,0-.23c0,0,0-.14.25-.14s.11,0,.11-.26,0-.17.17-.17h.3c-.08-.36.14-.19.14-.36.16,0,.16,0,.39-.15v-.25s-.23,0-.23-.17a.25.25,0,0,0,.23-.14c0,.14.11.14.11,0v-.23c.38,0,.49-.19.8-.31,0,0,0-.17.22-.17s.27-.28.52-.28v-.11c.11,0,.11-.29.11-.29s.11-.14.5-.34c0,0,.14-.14.25-.14a4.26,4.26,0,0,1,.66-.53H58c.14-.26.25-.43.42-.43v-.2h-.17c.17-.14.36-.14.53-.36,0,.22-.17.22-.17.22v.14c.17,0,.17-.14.25-.14s.22-.22.39-.22c0,0,.11,0,.11-.2h-.5c.22-.12.5-.12.64-.37h.25c.13.25.13,0,.24,0s.25,0,.25-.11l.11-.23A1,1,0,0,0,61,26c.27,0,.47-.12.71-.12a1.89,1.89,0,0,1,.92-.17c.11-.19.25-.19.47-.19.16-.2.16,0,.3,0l.08-.2h.22a.13.13,0,0,0,.14-.14.18.18,0,0,0,.17.14h.19a1.46,1.46,0,0,1,.94-.2h.39a5.05,5.05,0,0,1,1.19.4.62.62,0,0,0,.55.19c.11.17.25.17.44.29l.17.28c.33,0,.44.4.63.51a5,5,0,0,0,.5.79,1,1,0,0,0,.25.51c0,.26.22.4.22.57v1.1a1.9,1.9,0,0,1,0,1c0,.34-.22.74-.22,1.1,0,.17-.14.43-.14.57A9.92,9.92,0,0,1,68.65,34c-.14.14,0,.28-.14.28s-.19.2-.3.39-.19.37-.33.74a5.6,5.6,0,0,0-.5.79s0,.12-.11.12c0,.28,0,.28-.17.42-.25.34-.52.76-.74,1.13a2.46,2.46,0,0,0-.39.74c-.22,0,0,.19-.22.19,0,.15-.14.15-.22.4l-.28.14c-.11.26-.11.26-.11.34-.16.2-.33.2-.52.45s-.42.51-.78.74a1.19,1.19,0,0,1-.44.31c-.14.26-.3.26-.52.4h-.5c-.11.22-.11,0-.25.22-.17,0-.42-.22-.53-.22v-.14h-.13c-.2,0-.34-.26-.34-.43s0-.14-.13-.14a.8.8,0,0,1-.14-.37s0-.25.14-.25.13-.12.27-.12c.2-.25.2-.25.33-.25s.36-.2.53-.2a9,9,0,0,1,1.13-1.07A2.13,2.13,0,0,1,63.7,38c.14,0,.14,0,.31-.17,0-.22,0-.37.19-.37.17-.42.42-.76.61-1.18.17-.12.33-.12.33-.34a2,2,0,0,1,.47-.71c.14-.23.14-.4.36-.6.14,0,.14-.19.14-.19v-.2a.82.82,0,0,0,.25-.57c.22-.14.22-.53.36-.87a1.23,1.23,0,0,0,.38-.8.17.17,0,0,0,.17-.17c0-.19.11-.19.11-.36s.14-.15.14-.4v-.34c0-.23,0-.23.19-.42v-.12a.8.8,0,0,0,.17-.56V28.09a2.73,2.73,0,0,0-.78-1.3A4.16,4.16,0,0,1,66,26.45H64c-.17.23-.31.23-.31.23h-.44a.93.93,0,0,1-.52.11c-.36,0-.47.25-.61.37H61.6c-.13.2-.47.2-.74.56h-.39v.2c-.25,0-.5,0-.61.17a3.11,3.11,0,0,1-1.1.79c-.17.14-.17.14-.17,0-.19-.22-.19,0-.33,0h.14c.19.14.19.14,0,.14v.2c-.17,0-.28.14-.64.14,0,.29-.13.29-.27.29,0,0,0,.05,0,.11-.19.28-.36.28-.47.45s-.14.12-.14,0-.25,0-.27.09,0,0-.12,0l.12.19h-.12c0,.23,0,.23-.11,0v.23c-.11.17-.49.34-.63.59,0-.42-.22-.25-.22-.25,0,.25,0,.25-.17.25s-.14,0-.14.15v.17h-.11a.94.94,0,0,1-.38.76h-.11c-.23-.14-.23,0-.23,0v.23c-.27,0-.33.31-.38.51-.22.16-.39.16-.5.39s0,.14-.25.14h-.14a.94.94,0,0,0-.13.57s0,.2-.09.2a4.25,4.25,0,0,0-.69.79c0,.14-.19,0-.19.14v.17c-.14.17-.28.17-.28.4h-.19c0,.22-.14.34-.31.62,0,.14-.11.14-.11.14s0-.14-.22,0v.14l.22-.14c0,.14-.22.34-.38.54s-.11.37-.31.37a.37.37,0,0,0-.33.39,1.11,1.11,0,0,1-.11.57v.19c-.25,0-.25.15-.39.4,0,0,0,.14-.13.14h-.2c.2.34-.14.54-.27.91l-.17.25c-.14.14-.14.37-.33.37v.57a1.44,1.44,0,0,1-.28.53c-.22,0-.22,0-.22.17.22.2,0,.37-.17.54a.89.89,0,0,0-.11.45c0,.4-.16.51-.35.88a2.85,2.85,0,0,1-.64,1.47v.26c0,.36-.11.53-.11.87h-.19v.54c0,.31-.17.4-.17.65s-.14.28,0,.51c-.3.2-.14.34-.14.34-.16.23,0,.45-.16.57v.17a1.41,1.41,0,0,1-.23,1s-.08,0-.08.12h.08v3c0,.17,0,.4.23.4a4.74,4.74,0,0,0,.3,1.47c0,.2,0,.2.17.4a1.57,1.57,0,0,1,.3.73c0,.14,0,.14.14.14a8.52,8.52,0,0,0,.85,1A8.74,8.74,0,0,0,49.25,58.59Zm-3-14.6H46.1l.14-.23Zm.47-1.33H46.6l.11-.2Zm0,1.33H46.6l.11.17Zm.36-1.87h-.22V42s.19,0,.22-.14Zm.14-.7-.14.14v-.14Zm1.1-1.31c-.11,0-.11,0-.11.12h.11Zm.94,20.32v-.2h.2A.2.2,0,0,1,49.25,60.43ZM49.45,38v-.17C49.31,37.91,49.33,37.94,49.45,38Zm.27-.76v0s.11,0,.25,0v-.2C49.72,37.06,49.72,37.26,49.72,37.26Zm0,.76c.25,0,.25-.17.25-.17C49.72,37.85,49.72,37.85,49.72,38Zm.47-1.44s-.11,0-.11.14,0,0,0,.14l.11-.14h.22v-.14Zm.22-.4s0,.12.2.12C50.61,36.18,50.61,36.18,50.41,36.18Zm.47-.79v.17h-.16Zm1.47-2.23v.16h-.17C52.18,33.16,52.35,33.16,52.35,33.16Zm.14,1.3-.14.19h.14s.13,0,.13-.19Zm0-1.5.13-.14A.13.13,0,0,1,52.49,33Zm.38-.31c0,.17-.25.17-.25.17C52.62,32.65,52.62,32.65,52.87,32.65Zm.09-.23v.23h-.09Zm1.1-1.08v-.25l.14.25Zm1.8-.53s-.06.11-.09.11h.09ZM56,29.56c0-.34.25-.34.36-.34C56.24,29.36,56,29.36,56,29.56Zm.25.77c-.25,0-.25,0-.25.19h.25Zm.75-.57V30s.11,0,.11-.28Zm1.13-1.84c0-.2.11-.2.11-.2S58.23,27.92,58.12,27.92Zm.64,31v-.14c-.17,0-.17.14-.17.14Zm1-31.74s0-.12-.25-.12v.12Zm-.25.76.25.17v-.17Zm.74-.88h.11v-.25C60.22,26.79,60.22,26.79,60.22,27Zm.64-.59h-.25v.23A.23.23,0,0,0,60.86,26.45ZM63.1,55l.16.23s0-.23.11-.23Zm2.48-.56H65v.25a.15.15,0,0,1-.17.15V55c.17-.16.33-.16.44-.31A2.3,2.3,0,0,1,65.58,54.43Zm-.6-.82a.09.09,0,0,1,.08-.09H65Zm1,.45h.14v.26Zm.39-18.16c0-.06.08-.14.16-.17h-.16Zm.22,16.49h-.22v.2c.16-.14.19-.08.25,0A.45.45,0,0,1,66.58,52.39Zm.94-.17h.19c0-.2,0-.2-.16-.2Zm.19-1.53c0,.2,0,.2.17.2Zm.31.77c-.14,0-.14.23-.14.23H68Zm.66-.57a.27.27,0,0,1,.14.14v0H69c0-.17-.19-.17-.19-.17Zm1.38-2s-.14,0-.14.2h.14Zm.53-.34c-.14,0-.14-.16-.2-.16v.16C70.45,48.69,70.47,48.54,70.59,48.54Zm.33-1.07v.25H71c.14,0,.19-.11.19-.25h-.3Zm0,.57v.14L71,48Zm1-1.53v-.23c.11-.14.31-.14.42-.39C72.33,46.28,72,46.28,71.91,46.51Zm.11.34-.11-.23H72v-.11C72.22,46.62,72.22,46.62,72,46.85Zm.89-1.11c-.11,0-.11.15-.34.4,0,.14-.11.14-.24.37s-.09,0-.25,0h.14c0-.23.11-.23.24-.37s.34-.4.34-.54Zm-.45-.14h.11v.14c0,.15-.11.15-.24.15S72.46,45.74,72.46,45.6Zm.11.68c.23,0,.23,0,.23.23,0,0,0,.11-.23.11Zm.23-.9v-.15h.11v.15c-.11,0-.11.22-.11.22C72.57,45.6,72.57,45.38,72.8,45.38Zm.52-.48c-.14.16-.25.16-.25.33h-.16c0-.17,0-.17.16-.17.11-.16.25-.36.39-.36Zm-.14.7c-.11,0-.11,0-.11.14h-.16c0-.14.16-.14.16-.36h.11Zm-.11.54h-.16l.16-.25Zm-.16,0,.16.14h-.16Zm.41-.25h-.14v-.15h.14C73.32,45.89,73.46,45.89,73.32,45.89Zm-.08-.66c.08,0,.08-.17.22-.17v.17Zm.33.15v.22c-.11,0-.11-.22-.11-.22Zm.22-1.05-.22.2C73.57,44.33,73.57,44.33,73.79,44.33Zm0,.57s-.22,0-.22-.2Zm.36-.71c0-.11.19-.11.19-.11h.06c-.06,0-.06.11-.06.11Zm0,.51c0-.17.19-.17.19-.17A.17.17,0,0,1,74.15,44.7Zm.3-.37c0,.2-.11.2-.11.2S74.34,44.33,74.45,44.33Z"/><path class="cls-1" d="M93.66,42.24l0,.08c0,.09,0,.11,0,.11s0,.34,0,.49,0,.16,0,.25a4.37,4.37,0,0,1-.3.57,1.48,1.48,0,0,1-.28.67v.09a.51.51,0,0,1,0,.2c-.17.08-.22.25-.25.45s-.08.08-.08.17-.06,0-.06.11l-.06.09a.64.64,0,0,0-.16.34.34.34,0,0,1-.17.25s0,.12-.08.12c.06.19-.08.28-.22.45a.05.05,0,0,1-.06,0c0,.17-.08.26-.13.43s-.09.17-.09.34a.08.08,0,0,0-.08.08.91.91,0,0,0-.28.51s0,.12-.08.12a1.1,1.1,0,0,0-.28.53c0,.14-.13.31-.22.54a1.42,1.42,0,0,0-.13.17,1.85,1.85,0,0,0-.28.59l-.17.29a.29.29,0,0,0-.14.25l-.24.62c-.09.12-.06.32-.09.37,0,.2,0,.31-.11.37,0,.23,0,.31,0,.37a1.38,1.38,0,0,0,0,.37v.08c0,.25.14.51.47.51a.51.51,0,0,1,.25.14c0,.09.2.17.2.23s0,.19,0,.31h-.11a1.38,1.38,0,0,1-.36,0,2.81,2.81,0,0,1-.55,0c0-.08-.14-.08-.27-.22s-.09-.06-.17-.06a2.25,2.25,0,0,1-.52-.51,2.49,2.49,0,0,1-.23-.37v-.08a1.29,1.29,0,0,0,0-.43c0-.22,0-.48,0-.65a2.6,2.6,0,0,1,.19-.73,1.09,1.09,0,0,0,.08-.4c.06-.06.06-.14.11-.25a5,5,0,0,0,.28-.57c0-.06,0-.11.11-.31a1.83,1.83,0,0,0,.25-.54c.14,0,.14,0,.11-.06a.41.41,0,0,1,.11-.25c.08-.14.08-.4.19-.45s.09-.17.2-.26a1.28,1.28,0,0,1,.13-.28,1,1,0,0,1,.23-.45c.22-.31.3-.65.52-1,0-.06.08-.14.06-.17a2,2,0,0,0,.24-.51,6.25,6.25,0,0,0,.36-.76c.11,0,.09-.06.09-.17s.14-.29.19-.37a1.26,1.26,0,0,0,.17-.43c0-.25.22-.45.22-.7a4.34,4.34,0,0,0,.19-.6c0-.11,0-.2.08-.2a1.19,1.19,0,0,0,0-.25l.08-.11c0-.09,0-.17,0-.23a.32.32,0,0,0-.27-.4.77.77,0,0,0-.56,0h-.47a1.43,1.43,0,0,1-.55.08l-.05,0a2.91,2.91,0,0,1-.78.12.61.61,0,0,1-.3.08c-.08,0-.17.11-.22.11H89a.21.21,0,0,1-.19.09,2.32,2.32,0,0,1-.47,0c-.14,0-.19.08-.36.17s-.19.05-.3,0h-.11l-.25.05v.29l-.06,0v.15c-.11,0-.16.14-.22.17a1,1,0,0,1,0,.17l-.09,0-.19.32-.06,0c-.08.09-.08.14-.08.14v0l-.17.2v0l-.13.2a.17.17,0,0,0-.06.11,1.28,1.28,0,0,0-.19.23l-.14.25-.33.37a3,3,0,0,1-.61.79l-.08.09a1.35,1.35,0,0,0-.11.22l0,0-.22.26c-.13,0-.19.17-.27.34a.58.58,0,0,0-.31.28l-.38.45a.2.2,0,0,1-.2.17l-.14.2-.3.37c-.17,0-.17,0-.17,0v0a.74.74,0,0,1-.33.45c0,.11-.13.14-.22.2a.69.69,0,0,1-.25.42l-.11.11a.44.44,0,0,0-.36.26l-.11.08-.14.23a.26.26,0,0,1-.16.06.34.34,0,0,1-.17.17l0,.11c-.08,0-.08.06-.14.08a.23.23,0,0,1-.17.06l-.13.11h0a.31.31,0,0,1-.19.12l-.11.08a.44.44,0,0,0-.17.12h0l-.14,0a.29.29,0,0,1-.17.06.27.27,0,0,0-.16.08l0,0-.3,0-.11.17h0a.92.92,0,0,1-.39-.14.07.07,0,0,0,0,0,.32.32,0,0,1-.17-.06s0,0-.08-.05a1.59,1.59,0,0,1-.31-.11.78.78,0,0,0-.27-.2h-.11c-.11-.06-.09,0-.11,0l-.22-.23-.06-.14a1,1,0,0,0-.25-.22.33.33,0,0,1,0-.12.47.47,0,0,1-.09-.17,1.64,1.64,0,0,1-.19-.51,1.85,1.85,0,0,1-.08-1l-.56.6-.27.42-.22.31a.83.83,0,0,0-.11.17l0,0a1.08,1.08,0,0,0-.39.34.75.75,0,0,1-.27.31.12.12,0,0,1-.06.11.14.14,0,0,0-.05.09l0,0c-.11,0-.22.11-.36.28h0c-.05,0-.08,0-.11.06a.42.42,0,0,1-.14,0,1.72,1.72,0,0,1-.19.09h0c-.06.08-.09.08-.14.08a.56.56,0,0,1-.44,0,.91.91,0,0,1-.31.06,1.16,1.16,0,0,1-.58-.39s-.14,0-.16-.06h0L72,50.21s0,0-.06-.05a.19.19,0,0,1-.16-.2l-.06-.14a2.46,2.46,0,0,1-.19-.43v-.34s0-.11,0-.19a4.14,4.14,0,0,1,.14-1.14,1.15,1.15,0,0,1,.25-.62v0l.33-.74a.13.13,0,0,1,0-.08v0l.11-.28a1,1,0,0,0,.41-.54l.14-.2c.17-.14.28-.28.47-.42a1,1,0,0,1,.28-.37l.27-.34h0l.17-.06h0a.54.54,0,0,1,.28-.11l.11-.14.05-.06v0a.36.36,0,0,1,.11-.2.48.48,0,0,1,.31-.08c0-.15.13-.17.25-.17s0-.17,0-.17l.25-.06a.6.6,0,0,0,.22-.06h0s.06,0,.11,0h.64s0,0,0,0h.11c0,.06.08.06.16.06H77a.47.47,0,0,1,.25.08.57.57,0,0,0,.3.17c.45.4.47.34,1,.26,0,0,0,0,0,0s.08,0,.22,0l.3.06h0l.25.28c.19.12.25.26.08.34v0l-.16.32-.23.42a.5.5,0,0,1-.08.28.47.47,0,0,1-.14.29.25.25,0,0,1-.16.22.36.36,0,0,1,0,.17l-.2.51-.19.31s0,0,0,0a.59.59,0,0,1-.11.4.58.58,0,0,1,0,.28,1.5,1.5,0,0,0,0,.37s-.06.11-.08.2v.17s0,.14,0,.22v.45l.14.06v.17c.17.06.39.23.47.23s.17,0,.2-.06v0a.77.77,0,0,1,.3-.2l.08,0a.22.22,0,0,0,.22-.14,1.32,1.32,0,0,0,.17-.17h0a1,1,0,0,0,.47-.32,3.81,3.81,0,0,0,.41-.28l.17-.14.25-.2a.75.75,0,0,1,0-.11l.17-.2,0,0c0-.06.08-.11.08-.17l.19-.14.28-.23a1.11,1.11,0,0,1,.33-.31l0-.11a.65.65,0,0,1,.28-.29l0,0v0a1.27,1.27,0,0,1,.14-.31s.3-.29.19-.26l.11-.06c.11-.11.22-.28.22-.19l.11-.23.11,0h0l.19-.11,0-.12.06-.05h0c.08,0,0-.17,0-.17v-.06a.36.36,0,0,0,.19-.2v0s.06,0,.06-.08,0-.06.06-.09a.08.08,0,0,1,0,0l.2-.09v0s.08,0,.08-.08v0s.05,0,.11-.11v0c0-.09,0-.15.08-.15l.25-.31.08,0h0l0,0,.08-.17s0-.06.09-.09l.13-.34v0l.22-.34s.06-.14.2-.14a.41.41,0,0,1,.08-.25h0l.25-.17h.06l.19-.23c.06,0,.06-.08.08-.11h-.33l0,0h-.24l-.06.05h0l0,0V41.7h0v0h-.06v0h0v.08l0,0h-.09c0-.05,0-.08-.11-.08l.14-.06H85.1c-.11-.11-.31-.2-.47-.34,0,0-.11-.08-.09-.17-.25-.06-.3-.25-.44-.48s0-.2,0-.25-.11-.12,0-.29-.11,0-.11,0a.43.43,0,0,1,0-.32,5.46,5.46,0,0,1,.17-.79c0-.08.05-.11.05-.17s.14-.22.11-.42l.28-.37c0-.06,0-.06,0-.2s.09-.11.09-.11a1,1,0,0,0,.19-.31c0-.14.08-.2.08-.26S85,37,85,37s.27-.23.33-.31,0-.2.11-.28a.39.39,0,0,1,.11-.31c.14-.17.33-.26.41-.4a.33.33,0,0,1,.25-.11c.09-.09.11-.2.25-.29h.09c.3,0,.55,0,.85,0a.87.87,0,0,1,.58.25.31.31,0,0,1,.25.08s0,0,.06.06a.42.42,0,0,1,.22.09h.14c.11.17.19.22.24.31a3.46,3.46,0,0,0,.14.53c0,.12,0,.23,0,.37s-.14.48-.17.71-.25.48-.25.76c0,.12,0,.17,0,.29s-.11.22-.17.51h-.11a.51.51,0,0,1-.08.36c-.17.17-.14.31-.2.46,0,0,0,.08-.13.17s0,.14,0,.17v0a1.7,1.7,0,0,0,.5,0l.22,0a5.18,5.18,0,0,0,.8-.2,5.13,5.13,0,0,1,.83-.14h.44c.28,0,.39-.06.55-.06s.28,0,.28.06h.3c.14.08.39.11.56.22,0,.06,0,.06.13.06s.28.14.39.23a1.34,1.34,0,0,0,.47.39c.19.12.28.17.3.37a1.66,1.66,0,0,1,.09.51C93.63,41.9,93.63,42.07,93.66,42.24ZM73.13,49.51a1.36,1.36,0,0,0,.75-.68l0,0a.53.53,0,0,0,.23-.11l.27-.31a1.12,1.12,0,0,0,.36-.51v0a2.31,2.31,0,0,0,.53-.51v0l.19-.26a2.08,2.08,0,0,0,.39-.45,1.29,1.29,0,0,0,.3-.26l.41-.36c0-.12,0-.31.17-.34h0l.45-.63v0l.13-.28c.11-.14,0-.25-.22-.31a2.74,2.74,0,0,0-.69-.45s-.08,0-.16.05h0a.5.5,0,0,0-.22.09.64.64,0,0,0-.47.25l-.14.14c-.14.09-.19.15-.28.15l-.72.82L74,46v0a.71.71,0,0,1-.33.48,2.3,2.3,0,0,1-.22.4l-.16.34a.59.59,0,0,0-.09.25.34.34,0,0,1-.08.17s0,.06,0,.23v0a1.11,1.11,0,0,0-.3.93c0,.08,0,.14,0,.25v.51A1.58,1.58,0,0,1,73.13,49.51Zm12.19-8.77a.37.37,0,0,0,.25.08h.33c0-.08,0-.08.14-.14a.66.66,0,0,1,.27-.31c.06-.17.11-.31.08-.37s.17-.23.25-.28a.39.39,0,0,1,.09-.26,5.25,5.25,0,0,0,.16-.59.58.58,0,0,0,.25-.31.42.42,0,0,1,0-.2,1.88,1.88,0,0,0,.16-.57.39.39,0,0,0,.14-.25.45.45,0,0,1,0-.17l.09-.11a.84.84,0,0,0,.14-.43l0-.11c-.11,0-.11,0,0,0l.08,0c0-.09,0-.17,0-.26a.64.64,0,0,1,0-.14v-.11h-.11c-.12,0-.17.11-.23.11s-.16.06-.22.14-.08.09,0,.15-.22.11-.31.28a.31.31,0,0,0-.08.2.38.38,0,0,0-.22.28c0,.06-.06.06-.06.17-.22.14-.22.37-.33.51a.45.45,0,0,1,0,.28c-.09.26-.31.45-.36.6s0,.22,0,.28a.53.53,0,0,0-.16.28,1.8,1.8,0,0,0,0,.43c-.17.14-.14.42-.14.59S85.32,40.68,85.32,40.74Z"/><path class="cls-1" d="M96.93,43.88v-.12l0,0c0-.09.11-.14.2-.09s.16-.2,0-.39c0,0,0-.06.06-.06s.08,0,.08,0a1.18,1.18,0,0,0,.31-.79s.11-.2-.06-.14l0,0v-.06a.05.05,0,0,1,0,0c.14-.09.42-.6.28-.63v0h0v0h0v-.09l0-.05v-.09l.06,0V41h0v-.17l.06-.08v-.09l0-.08v-.06l0,0v0l.06,0V40.4l0,0v-.06l0-.05v0l.06-.06v0l0,0V40l0,0v-.08h0V39.8l0-.08v0l.06-.11v-.17l0-.06v-.14l0,0v-.06l.06-.08,0,0V39l.09-.08v0h0v0l.08-.05v0l0-.06v0l.06,0V38.5l.08-.14v0l0,0,0-.09,0-.06v-.05l.06-.09v0l0-.05v0l0-.09,0,0v-.06l0,0V37.6l.08-.06,0-.08v0l.06-.06v-.06l0,0v0l.06,0,0-.06s0,.06,0,.06c.31-.26.14-1.42.5-1.59,0,0,.08-.08.19,0a.14.14,0,0,0,.22-.11.28.28,0,0,0,0-.26c0-.06-.11-.17.14-.17,0-.14.08-.28,0-.31.69-2,1.79-3.4,2.07-5.12a1.5,1.5,0,0,1,.27-.68s0-.09,1.19-2.06l0,0,.06,0c.3-.26.49-.2.58-.14a0,0,0,0,0,0,.05l.28.2a.45.45,0,0,1,.08.26.81.81,0,0,0,.06.67c0,.12,0,.29-.17.4s-.08,0-.11.06c0,.31-.22.56-.25.87-.22.4-.33.83-.55,1.22a4.15,4.15,0,0,1-.42.91,3.32,3.32,0,0,1-.27.53c-.06.17,0,.37-.14.48l-.17.09a2.12,2.12,0,0,1-.14.65,3.36,3.36,0,0,0-.46,1.1.53.53,0,0,1-.25.48c-.09.09,0,.26-.14.29s-.17.14-.06.22c-.27.26-.27,1-.44,1.19l-.08.11c0,.15-.17.12-.14.26s0,.23,0,.34-.05.25-.14.28a1.36,1.36,0,0,0-.11.2l-.05.09-.39,1,0,.06a1,1,0,0,1-.27.51l-.17.2s0,0,.11.08a1.14,1.14,0,0,1-.44.43c-.17,0-.25.11-.25.22s.08.14.08.14.14,0,.14-.08l0-.17.14,0v0c-.11.23,0,.6-.36.77V41a.3.3,0,0,1,0,.26l-.17.22c0,.09,0,.12.11.09s0,0,0,.08a.18.18,0,0,1-.08.14c0-.19-.06-.05-.09,0s-.08.12-.08.2c-.36,1.08-.39.85-.58,1.42,0,0-.11.08-.11.11H99l-.09.06s0,0,0-.06,0,0,0,0v.09s0,.08,0,0a.1.1,0,0,0,0,.08c.11.06.11.06,0,.09s-.14,0-.14.08l.14,0c.06.08,0,.08-.08.17l-.06,0c-.08,0-.11,0-.14,0a.09.09,0,0,1,.09.08h-.06a.09.09,0,0,0,.09.08s.08,0,0,.06a.09.09,0,0,1,.06.11l-.2.2c0,.12-.16.09-.11.26s0,.05-.08.05l-.17,0h.11l-.11-.06h0v.06h0l-.14.05h.09a.38.38,0,0,1,.25.28s0,.09-.09.09-.13.14-.13.17a.5.5,0,0,0,0,.17.24.24,0,0,0,.11.06c0,.08,0,.14-.08.17h0v0h-.08l0,.11h0v.09s-.11-.09-.17,0a.23.23,0,0,1-.08.22c0,.14,0,.09.08,0h.11a.45.45,0,0,0,0,.14l-.31.17v.06c0,.06,0,.06,0,.08l0,0,.06.06,0-.09h-.08l.06-.11s0,.09,0,.09l0,0h.06c-.06.06,0,.12-.06.12a.44.44,0,0,1-.19-.06c.11.06.08.11.08.11h.25l0,.06c-.11.11-.19.11-.36.2l-.13,0,.13.14h.06v.09c.11,0-.19,0-.11.08s0,.11-.08.09l0,.08c.11,0,.23,0,.06.14l-.06.23,0,0s-.08.14,0,.14,0,.2-.11.26-.06.14.08.11l0,.08c-.11.17-.11.23,0,.29s0,.11-.11.14l-.06.08c-.16,0,0,0,0,.09s-.08.06-.08.08l.08.09c.22,0,0,.17,0,.28-.28,1.19-.36,1.1-.39,1.1a.33.33,0,0,0,0,.15h0v0h0v0h0l0,0a2,2,0,0,1-.25.6c-.11.37.22.54,0,.82l-.05.25.05,0c.22-.05.09.57,0,.68a.52.52,0,0,1,.06.17c.08.06.14.06.11.11a.69.69,0,0,0,0,.51v0l0,0h0a3.84,3.84,0,0,1,.11.79v0c0,.08.09.08.09.08s.08-.11.16-.08l0-.23c0-.08.11,0,.19-.11s.11,0,.09,0a.8.8,0,0,1,.3-.45s.08,0,.08,0,.2-.26.2-.42a.12.12,0,0,1,.11-.12s.08-.14.13-.14a1.36,1.36,0,0,0-.11.14c0,.06.09.14,0,.2S98,53.92,98,54a1.72,1.72,0,0,1,0,.31c0,.09-.2.15,0,.26,0,.34-.06.25-.28.68,0,0,0,0,0,.08l-.25.23a.1.1,0,0,1-.11.11.17.17,0,0,0,0-.11.19.19,0,0,1-.14.06c0,.14.09.17-.11.17,0,0-.16.16-.22,0h-.05c-.2.25-.42,0-.56,0,0-.08.09-.08.09-.08s.05,0,.05,0-.05-.08-.11-.08l-.08.08c-.22.09-.22.09-.28,0a3.45,3.45,0,0,1-.25-.51l-.11-.31a.27.27,0,0,1-.11-.42l.11-.26-.11.09-.08.05c0-.05,0,0,0-.05s0-.29-.06-.31a.36.36,0,0,1,0-.37c-.06,0,0-.06.08,0s0,0,0,0a.38.38,0,0,0-.14-.4c-.11-.08-.11-.08,0-.2s0-.08,0-.08,0-.09.09-.06l-.09,0s0-.08-.11-.11a1,1,0,0,1,.33-.85c.09,0,0-.11-.05-.11s-.17,0-.25,0-.11-.06-.08-.11a.13.13,0,0,1,.08-.12c0-.08,0-.08-.08-.08l0-.09a.83.83,0,0,1,.11-.31h.08a.39.39,0,0,0,.14-.37c0-.11.11-.25.11-.39s0-.34,0-.54a.41.41,0,0,1,.11-.37v0a.34.34,0,0,0-.14,0,.7.7,0,0,0,.14-.42l.17-1.13c.13-.09.19-.2,0-.2s0-.11.09-.17h.08a.45.45,0,0,0,.08-.31c-.08,0-.08,0-.08.08s-.11,0-.11-.08-.06-.06-.06-.11l0-.09H96c.08.09.19,0,.19-.08s.11-.43.17-.68l.11-.23,0-.17s.06-.2.06-.23,0-.19.22-.25l.08-.93c.2,0,.17-.2.28-.26a.38.38,0,0,0,0-.2l0-.14,0,.14-.08,0c0,.11,0,.22-.11.22S96.93,43.91,96.93,43.88ZM96,51.6s.08,0,.08,0-.08,0-.08-.08-.05,0,0,.08Zm0,.68.08,0v0Zm.16-2.69v-.08h-.08Zm0,4.3v0h0v-.09S96.18,53.89,96.18,53.89Zm.11-2.32.08,0-.08-.11Zm.08-2.63s0,0-.05,0,.05.08.05.14l.14-.11Zm-.05,4.75a.29.29,0,0,1,.16.06v-.11c0-.06-.08-.14-.08-.2S96.32,53.58,96.32,53.69ZM96.4,50v0l0-.09.09-.2s0,0,0,0h-.08c0,.11,0,.17,0,.22V50S96.37,50,96.4,50Zm.06.6,0-.09c-.08,0-.11.06-.11.06s0,0,0,0S96.46,50.67,96.46,50.64Zm0-.37a0,0,0,0,1,0,0l0,0s0,0,0,.06S96.4,50.27,96.43,50.27Zm-.06,2.86,0,.08.11-.11A.21.21,0,0,0,96.37,53.13Zm.06-.62,0-.09h0C96.37,52.51,96.43,52.51,96.43,52.51Zm0,1.49s0,0,0,.12.11.14.11.25-.06.12,0,.09l0-.43S96.46,54,96.46,54Zm0-4.78,0,0v0s0,0,.11,0S96.48,49.22,96.48,49.22Zm0-.53a.08.08,0,0,0,.08.08s0-.08.14-.06l-.14,0Zm0,6.25a.05.05,0,0,1,.06.05c.08,0,.08-.05.08-.05s0-.09,0-.11S96.57,54.94,96.51,54.94Zm0-.31a0,0,0,0,1,0,0v0Zm.08-7.58s0,.05,0,.08h0C96.73,47.07,96.65,47.07,96.62,47.05Zm0,6.62c0-.06,0-.06,0-.06v.06ZM96.71,49v0h-.06Zm0,.84-.06.15.08-.09c.06-.11.17,0,.25,0h.08v0h-.19C96.79,49.82,96.76,49.87,96.71,49.87Zm.05,4.76s0-.09-.11-.09C96.76,54.63,96.65,54.63,96.76,54.63Zm-.05-4s0,0,0,0,.09,0,.11-.09,0-.2-.11-.22S96.57,50.5,96.71,50.64Zm.05-1.08v0l-.05,0v.06S96.76,49.56,96.76,49.56Zm0,5.6v.15s0-.09,0-.09S96.73,55.16,96.73,55.16Zm.06-3.81h0v-.09a0,0,0,0,0,0,0Zm0-3.46a.24.24,0,0,1,0,.09v-.09a.11.11,0,0,0,.11-.11C96.87,47.81,96.82,47.81,96.79,47.89Zm.08,1.25V49l-.08.11v0h0A0,0,0,0,1,96.87,49.14Zm.06,1.53h-.09v0h.09Zm0-.51c0,.05.09.05.11.05v-.05C97,50.1,97,50,97,50h-.08C96.87,50.1,96.87,50.16,97,50.16Zm0,4.78h-.08v-.09H97Zm.06.31c0,.06-.08.06-.08.11l0,.12H97l.06-.09A.27.27,0,0,1,97,55.25Zm-.06-6c0,.08,0,.08,0,.08s.11-.08.11-.11H97A0,0,0,0,1,97,49.2Zm.25-1.28s0-.08,0-.08a.58.58,0,0,1-.14.08A.3.3,0,0,0,97,48C97.12,48,97.12,48,97.2,47.92Zm-.08-.34,0-.08C97.09,47.38,97.06,47.5,97.12,47.58Zm0-4.72,0-.09.08-.08A.55.55,0,0,1,97.09,42.86Zm.06,6.9s0,.09,0,.09l0-.09,0,0Zm0-1.13,0,.06S97.17,48.63,97.17,48.63Zm.17-.57a.2.2,0,0,1-.11,0l0,0,.14,0Zm.06,6.79h0l0-.08Zm.08.4v-.06h-.06A.06.06,0,0,0,97.48,55.25Zm0-7.92v0s0,0,0,0,0-.09,0-.09S97.45,47.33,97.53,47.33Zm.14-.43s0,0,0,0l0,0,0,.08Zm.22.57v-.09c.06,0,.06.06.06.06ZM98,45.94s0,0,0,0,0,0,0,0l0,0Zm0,.4s0,0,0,.08l.06,0L98,46.25Zm.19-.43,0,0-.06,0a.32.32,0,0,0,0,.28h0C98.09,46,98.09,45.94,98.14,45.91Zm.22,0v0a.09.09,0,0,1-.08,0C98.28,45.91,98.31,45.89,98.36,45.89Zm0-.23s.09-.09.14-.09l0,.09Zm.09-.45.08-.06h-.08Zm.49-.8s0,0,0-.08h0Zm2.08-9h0C101,35.45,101,35.45,101,35.36Z"/><path class="cls-1" d="M112,49.14c-.08.06-.19.28-.33.34a.56.56,0,0,0-.22.11c.08.17-.31.09-.53.23-.22.39-.77.25-.91.54a.52.52,0,0,1-.58.16c-.11-.05-.19.12-.33,0a.3.3,0,0,0-.31,0,1.92,1.92,0,0,1-.33.12l0-.06a.8.8,0,0,1-.24-.14,3,3,0,0,1-.53-.37,1.2,1.2,0,0,1-.55-.79l-.14-.4a3,3,0,0,1,0-.73c0-.23.08-.4,0-.68a.09.09,0,0,1,0-.06s0-.06,0-.06-.14-.31,0-.39.05-.2.05-.31.64-1.33.44-1.59a.12.12,0,0,0,0-.08s0,0,0,0l0,0a.12.12,0,0,0,0,.08.71.71,0,0,0-.45.43,2.34,2.34,0,0,1-.41.54c-.17.17-.25.33-.41.5a1,1,0,0,0-.25.4.74.74,0,0,1-.53.54.53.53,0,0,0-.19.42,3,3,0,0,1-.64.85c-.11.14-.19.31-.41.31,0,.06-.08.09-.08.2a.45.45,0,0,1-.45.34c-.11,0-.16.06-.16.17s0,.14-.06.17a4.85,4.85,0,0,1-.72.4.17.17,0,0,1-.22-.06c0-.09-.08-.06-.08,0s0,.14-.14.08a1.54,1.54,0,0,1-.58-.14,1.62,1.62,0,0,1-.52-.28.54.54,0,0,0,0-.2c-.06-.06-.08-.14,0-.17v-.11a.27.27,0,0,1-.14-.23,5.83,5.83,0,0,1,.19-1c.11-.23.14-.45.28-.71s.11-.25.22-.48a.44.44,0,0,1,.17-.28.23.23,0,0,0,.08-.14c.11-.17.28-.32.33-.43l.06-.2a.21.21,0,0,0,.11,0c.08-.14.25-.23.3-.4a2.78,2.78,0,0,0,.5-.71c.16-.22.3-.36.47-.56s.28-.34.47-.48c0,0,.08-.06.08-.09s.2-.25.39-.37c0-.05.08-.08,0-.14s.06-.2.11-.28a.09.09,0,0,1,.06,0c.19.14.41,0,.63.09s.25,0,.36-.09a1.86,1.86,0,0,1,.31.26,1.45,1.45,0,0,0,.47.19.31.31,0,0,1,.3.09c.25.2.33.17.58,0a.2.2,0,0,1,.06-.14c.25-.09.33-.29.52-.48s.11-.17.2-.2.19.11.3.14a.13.13,0,0,0,.17,0h.13a.88.88,0,0,1,.47.2c.28.11.25.17.25.34a.42.42,0,0,1,0,.2,1.52,1.52,0,0,0-.11.7.44.44,0,0,0,0,.12,3.39,3.39,0,0,0-.17.51c0,.11,0,.22-.11.25s-.08.14-.08.2a.27.27,0,0,1-.09.28,1.67,1.67,0,0,0-.24.71c0,.08-.06.17-.11.28a2,2,0,0,1-.12.54c0,.06,0,.14-.08.17s-.14.08-.11.17a1.77,1.77,0,0,0,.06.42c0,.09,0,.17-.06.23a.56.56,0,0,0,0,.28,3.27,3.27,0,0,0,.11.94.52.52,0,0,0,.27.28l.17,0c.14.08.36.14.39.11A10.7,10.7,0,0,0,112.43,48a42.39,42.39,0,0,0,3.42-3.26c.09.12,1.88-1.64.28.17A13.58,13.58,0,0,1,112,49.14Zm-6.27-3.54v-.05s0,0,0,0,0,0,0,0a2.51,2.51,0,0,1,.41-.4c.06-.08.2-.14.2-.25a.62.62,0,0,1,.27-.26c.09,0,.17-.14.22-.28l-.11-.06a2.47,2.47,0,0,0-.38-.05.93.93,0,0,0-.75.08c-.11.12-.17.23-.28.29s-.24.08-.24.14-.23.08-.28.17-.06.22-.14.31-.08,0-.08.08-.14.09-.17.17a3.19,3.19,0,0,0-.38.48,4.59,4.59,0,0,0-.39.48c-.14.06-.11.23-.2.32a1.87,1.87,0,0,0-.55.65c-.11,0-.16.14-.16.36a.49.49,0,0,1-.14.32c-.28.25-.28.62-.42,1a.17.17,0,0,0,0,.14s0,.06.09.06a.14.14,0,0,0,.13,0s.09-.09.14-.12a7.1,7.1,0,0,0,1.27-1.3c.06-.08.06-.08.23,0s.11,0,.11.06.08,0,.11,0v-.09c-.06-.11-.25-.14-.14-.25a.48.48,0,0,1,.14-.23l.16-.17c.06-.11.17,0,.28,0a.44.44,0,0,1,.3-.62s.06-.06.06-.11.14-.28.27-.4a1.88,1.88,0,0,0,.31-.25C105.69,45.72,105.69,45.72,105.69,45.6Zm-1.08,1.47s0,0,0,0Zm0,0s0,0,0,0Z"/><path class="cls-1" d="M154.93,49.22c0-.28.42-.14.55-.28s.34-.23.53-.34a2.21,2.21,0,0,0,.8-.73c.25-.17.66-.29.86-.46.22.12.27.12.25-.11v-.11c.38,0,.44-.31.66-.4a2.14,2.14,0,0,1,.61-.45c0,.11,0,.11.19.28h-.25c-.22,0-.33.23-.41.4v.11a1.07,1.07,0,0,0,.66-.51c.41.4-.36.76-.58,1a1.67,1.67,0,0,0-.83.62,2.82,2.82,0,0,1-.36.54,6.57,6.57,0,0,0-1.27.71c-.22.14-.3.37-.44.45a12.65,12.65,0,0,1-1.83.93c-.52.34-1,.63-1.51,1a6.13,6.13,0,0,1-1.5.68c-.11,0-.22.22-.3.33a4.35,4.35,0,0,0-1.24.46,15.06,15.06,0,0,0-2.19.59c-.47,0-1,.28-1.6.34l-1.58.2a9.5,9.5,0,0,1-2,.17,6.49,6.49,0,0,1-3.95-1.76,10.27,10.27,0,0,1-1.16-1.1l.2-.17-.36-.71c-.11,0-.11-.14-.22-.14-.11-.25-.23-.28-.23,0s.14.85.14,1.22a.51.51,0,0,0-.16.43c-.14.34-.72,1.89-.86,1.55-.3-.25-.33-.28-.33.23,0,.14-.2.28-.2.45s-.05.48.2.34c0,0,0,.23,0,.23,0,.22,0,.22,0,.17-.64-.32-.75-.17-.64.39a1.58,1.58,0,0,1-.11,1.25v1c0,.17,0,.48-.14.6.25.22,0,.34,0,.54l-.13-.06c-.25-.4-.25-.4-.25,0-.14.08-.25.06-.25,0a1,1,0,0,1-.11-.88c-.47-.25-.17-.53-.17-1a.93.93,0,0,1-.14-.51.7.7,0,0,0,.14-.46c0-.82.67-3.08.78-3.93a20.23,20.23,0,0,1,.63-2c.06-.45.22-.9.31-1.47a11.26,11.26,0,0,0,.74-2.35,5.63,5.63,0,0,0,.31-.85l.13,0,.06-.08c-.3-.2-.06-.29-.06-.34.14-.71.5-1.22.67-1.9.44-1.05.74-2.23,1.21-3.31a4.12,4.12,0,0,0,.5-1.16c.33-.93.72-1.75,1-2.63s.67-1.73,1-2.52a29.2,29.2,0,0,0,1.11-2.91c.13-.31.24-.28.33-.26.27.26.6.34.83.65a.65.65,0,0,1,.44.29.85.85,0,0,1,.3,1l-1,1.95c-.17.34-.31.71-.42,1-.19.54-.44,1.1-.61,1.64a5.05,5.05,0,0,0-.52,1.42c-.11,0-.11.08-.22.22-.08.31-.08.74-.3,1-.34.91-.64,1.76-1,2.66-.14.37-.33.71-.47,1.05-.3.54-.47,1.08-.8,1.75a6.13,6.13,0,0,1-.3,1.11c-.25.17-.09.39-.25.65a.14.14,0,0,1-.2.14v.17a1.52,1.52,0,0,0-.11.71s-.11.08-.16,0c.27.15.47.32.72,0a14.51,14.51,0,0,1,1.32-.65,4.42,4.42,0,0,0,1.25-.71s.22-.05.3-.17l.08,0v-.11c.31-.06.64-.25.94-.31v.14s.11,0,.11-.14h-.11c.2-.09.28-.31.47-.37,0,0,0-.06,0-.06s0,0,0,0h.06s0,0,0,0a2.7,2.7,0,0,0,.36.26c-.06-.14-.14-.26-.25-.28a20.38,20.38,0,0,1,2-1.28c.6-.36,1.16-.85,1.68-1.1a4.7,4.7,0,0,1,.91-.82c.31-.17.58-.57.94-.74a4.9,4.9,0,0,0,.58-.36c.14-.12.23-.23.34-.26.38-.31.69-.62,1.13-.93a4.64,4.64,0,0,1,.63-.57c.5-.48.89-.85,1.41-1.41a3.3,3.3,0,0,0,.69-.82,20.75,20.75,0,0,0,3.93-5.38c0-.2.19-.42.27-.65a6.75,6.75,0,0,0,.42-3,3.27,3.27,0,0,0-.89-2.35,3.71,3.71,0,0,0-1.9-1,1.53,1.53,0,0,0-.89-.25,5.57,5.57,0,0,0-1.38-.14c-.86,0-1.66.08-2.51.06a1,1,0,0,1-.61,0c-.39.05-.77.08-1.22.11a7.51,7.51,0,0,1-1.77.28c-.27,0-.6.26-.93.31-.09,0-.31.12-.39.06a1.08,1.08,0,0,1-.39.2,5.32,5.32,0,0,0-2,.45c-.52.23-1,.31-1.57.54-.28.14-.61.22-1.05.42h-.08c-.11-.05-.11,0-.23,0a10.27,10.27,0,0,1-1.82.9,18,18,0,0,1-2,.91c-.61.34-1.3.76-1.91,1.08-.08.14-.08.14-.22.19s-.19,0-.3-.05-.06,0-.06,0v.08c.06.17.06.17,0,.23a21.26,21.26,0,0,0-2.29,1.61.49.49,0,0,0-.19,0,2.14,2.14,0,0,1-.69.71,29.77,29.77,0,0,0-3.07,3.08,17.33,17.33,0,0,0-1.91,2.61c-.27.42-.58,1-.83,1.41a12.75,12.75,0,0,1-.8,2,5.61,5.61,0,0,0-.33,2.54,4.76,4.76,0,0,0,1.11,2.64,1,1,0,0,0,.94.25c.08-.08.3-.06.41-.2a1,1,0,0,1,1.13.31,6.8,6.8,0,0,1,.47.74h.14a3.19,3.19,0,0,0-.86.56,2.11,2.11,0,0,1-1.79-.19,5,5,0,0,1-1.41-1,5.31,5.31,0,0,1-1.63-2.65,3.55,3.55,0,0,1-.22-1.81,4.31,4.31,0,0,1,.25-1.28,3,3,0,0,0,.16-.79c.22-.4.31-1,.53-1.44.44-.74.85-1.5,1.27-2.18L125,35.16v0c.44-.17.58-.51.88-.8a3.68,3.68,0,0,0,.72-.84,7.57,7.57,0,0,1,.8-.77,22.73,22.73,0,0,1,2.1-1.86c.61-.51,1.24-.85,1.82-1.31.14-.14.25,0,.25-.11.06,0,.06,0,.06-.06h.14a4.85,4.85,0,0,1,.41-.28,2,2,0,0,1,1.13-.76c.17-.09.28.05.28-.17h.14c.19.31.3-.29.58-.09.14,0,.22-.11.14-.36,0,0,.08-.12.19-.06v-.09a.9.9,0,0,1,.19,0c.09-.25.31-.22.53-.2s.16-.08.16-.08a1.72,1.72,0,0,1,1.25-.65c.11,0,.11-.06.11-.06l.08-.08a6.63,6.63,0,0,1,.72-.34,1.47,1.47,0,0,0,1-.31.24.24,0,0,1,.27-.06c.17-.11.22-.09.22-.09.34-.14.25-.33.61-.33s.28,0,.39-.17.41-.06.69-.15c.06,0,.06-.08.17-.08a.45.45,0,0,1,.6,0l.23-.09c0-.25.19-.25.41-.28a3.2,3.2,0,0,1,1-.28A3.59,3.59,0,0,1,145,24a.91.91,0,0,1,.2,0c0-.12-.11-.15-.2-.15v-.08h.2c.27.17.41,0,.6-.11a.5.5,0,0,1,.34-.06c.19-.09.41-.06.58-.14a1.78,1.78,0,0,1,.85-.09.71.71,0,0,1,.47-.05,2.65,2.65,0,0,1,.64-.09A5.15,5.15,0,0,1,150,23c.55,0,1.07,0,1.57,0h.2a6.05,6.05,0,0,1,.74,0,2.48,2.48,0,0,0,.61,0,4,4,0,0,1,1.13.31c.53.22,1.11.45,1.61.62A5.83,5.83,0,0,1,158,26.14a10.19,10.19,0,0,1,.91,1.7,1.34,1.34,0,0,1,.11.93,2.2,2.2,0,0,0,.2.82c0,.11-.11.31-.11.45s-.2.43-.31.71l.11.09L159,31a1.77,1.77,0,0,1-.2.79c-.14.23-.22.54-.36.73a2.55,2.55,0,0,1-.38.91c-.22.42-.56.71-.64,1.13v.11c-.55.63-1,1.22-1.57,2a2.05,2.05,0,0,1-.75.8c-.47.28-.75,1-1.11,1.1-.19.42-.77.2-1.05.59,0,.17-.08.17-.08.17a.3.3,0,0,1-.27.09l.08,0c0,.17,0,.17-.11.17-.31-.09-.5.34-.72.42a4.09,4.09,0,0,1-.64.6c-.19.19-.27.36-.49.48v.17c-.42-.12-.42.25-.5.48h.08c.22.28,0,.25-.08.25v-.25c-.25-.17-.31.05-.53.14a2.22,2.22,0,0,0-.63.45,7,7,0,0,1-.69.65c0,.17,0,.28.11.31s-.36.43-.53.4,0-.11,0-.11.06-.12.17-.06c0-.14.14-.26-.11-.28a1.91,1.91,0,0,1-.69.45c0,.11,0,.11-.09.23a.47.47,0,0,1,.17,0,.11.11,0,0,1,.14-.11s.08-.11.14-.08-.06.22-.06.34c-.3.19-.55.39-.86.56,0,.09-.08.09-.19.09l.06,0a2.06,2.06,0,0,1,.33-.62c-.33.16-.67.39-1,.53s-.3.48-.64.6l.06,0c0,.06-.06,0-.06,0v0a1.92,1.92,0,0,0-.8.42c.09,0,.2.2.25.23s0,.14-.25.25v-.48c-.22.09-.49.14-.6.48a.12.12,0,0,0-.12.12H144c0-.09,0-.06,0-.23.22-.06.33,0,.44.11-.11.12-.3.28-.49.45-.39.34-.89.34-1.25.63a.28.28,0,0,0-.14-.12v-.22c0,.08-.16.08-.16.2s-.06.08-.06.19c-.11-.11-.11-.22-.3,0a5.47,5.47,0,0,1-.91.33.65.65,0,0,0-.09.26c0-.09.09-.09.2-.09a3.54,3.54,0,0,1,.72-.19l.08.14c-.08,0-.08,0-.08,0-.22.12-.42.46-.61.57a1,1,0,0,0-.58.34,2.54,2.54,0,0,1-1.11.42,2.58,2.58,0,0,0-1.08.46c0,.22-.24.08-.44.14s-.44.28-.19.54a2,2,0,0,0,.19.45v.2l-.08.08,0,0c.39.45.75.85,1.13,1.27a1.92,1.92,0,0,0,1.5.71,9.71,9.71,0,0,0,3,.08c.63,0,1.24-.22,1.9-.31s1.16-.34,1.74-.51a23.18,23.18,0,0,0,2.74-1c.33-.25.75-.2,1-.39.22,0,.22,0,.33-.06,0,.23.22-.06.47-.17A8.3,8.3,0,0,1,153.3,50a3.62,3.62,0,0,1,.89-.5h.11l0,.25-.11.14h.11v-.14C154.52,49.45,154.52,49.2,154.93,49.22ZM129,31.71h-.08v.12S129,31.83,129,31.71Zm6.85,18.87c0,.2-.13.34-.13.48C136,51,136,50.81,135.86,50.58Zm.14-.11v-.11l-.14,0a.24.24,0,0,0,.06.19Zm.22,1.55L136,52l.17.11Zm2.38-25v.17h.08Zm.25,21.55,0,.09h.08Zm1-.08h-.08a1,1,0,0,0-.41.28c-.12-.05-.12.06-.12.06s.12.14.2.06a.44.44,0,0,1,.41-.2c0-.09,0-.09.14-.17Zm.45-.14.08,0c.11,0,.25-.14.3-.2A.42.42,0,0,0,140.29,48.32Zm.24-23.17a.17.17,0,0,0,.12.17C140.65,25.15,140.65,25.15,140.53,25.15Zm.14,23,.06,0C140.67,48.12,140.67,48.06,140.67,48.15ZM141,48h-.08l-.08,0v.17C140.92,48,140.92,48,141,48Zm2.38-1.59-.08,0v.08l.08,0Zm1.13-1.66v-.12s-.11,0-.11.09Zm.25,1.13a.18.18,0,0,1,.25-.17,0,0,0,0,1,0,0C145,45.94,144.93,45.86,144.76,45.86Zm.31-.17c-.06-.26.11-.34.24-.43a.6.6,0,0,0,.06.29c-.06.08-.17.08-.3.14s0,0,0,.05l-.08-.05Zm.88-.54c0-.28.06-.31.3-.25,0,.19-.22.19-.3.36Zm.58-.42c-.05.05-.11.05-.17.08s.06,0,.06-.11Zm1-2.3.09.17v-.14a.1.1,0,0,1-.06,0Zm.67-.45h-.14s0,.09.14.11Zm1.63.28c0-.14.08-.14.08-.14v.2A.1.1,0,0,0,149.85,42.26Zm1-.9c0,.14.09.17,0,.23a.64.64,0,0,1-.55.14A.7.7,0,0,1,150.81,41.36Zm.36-.37c0-.17.14-.17.28-.25l.05,0v.14c-.05.11-.33.17-.38.28s-.22-.06-.14-.14A.85.85,0,0,1,151.17,41Zm.64-.28a.45.45,0,0,1-.22-.2s0-.06.11,0a.4.4,0,0,1,.33-.11C151.92,40.48,151.92,40.57,151.81,40.71Zm1.88-17.17s0-.14-.11-.17v.14Zm3.2,24.84v.11l.09-.11Zm2.63-2-.08.06v-.08s0-.12.08-.09Zm.52-.08c-.11.11-.08.4-.3.45S159.82,46.48,160,46.31Z"/><path class="cls-1" d="M168.78,46.51a.08.08,0,0,1-.08.05l-.22.15a.38.38,0,0,1-.2.22c-.05,0-.11,0-.08.09s.05.34-.11.25h0a.31.31,0,0,1-.11.2,1.47,1.47,0,0,1-.52.31c0,.06-.06.06-.06.09s0,.14,0,.19h-.16l-.09.09a.91.91,0,0,1,0,.2c0,.19-.14.17-.25.11h0s0,.08-.06.2l-.25.11v0c0,.06,0,.09-.11.09l0,.05c0,.2,0,.23-.13.23l-.17.14a.55.55,0,0,1-.22.2h0l-.2.11,0,.06c0,.06-.11.2-.24.14s-.09.06-.09.06-.11.11-.16.08V50a.33.33,0,0,1-.33.17h-.09s0,.08-.14.11,0,0,0,.14a.6.6,0,0,0-.24,0l0,0a.52.52,0,0,1-.39.23l-.28.22a.15.15,0,0,0-.19.06h-.11c0,.06-.11.14-.19.08a.23.23,0,0,1-.2.06.15.15,0,0,1-.16.09.47.47,0,0,1-.39.14.38.38,0,0,0-.11,0c-.05,0-.08,0-.14.09a.78.78,0,0,0-.27,0c0,.06-.14.08-.28.14l-.11-.14s0,0,0,0a.66.66,0,0,1-.52-.06c-.09-.08-.11-.14-.22-.08h-.31v-.14s0,0-.11,0-.08,0-.08-.06l-.14-.14c-.19,0-.22,0-.3-.23h0l-.11-.06-.47-.48,0-.14c.08-.11,0-.25-.11-.39l0-.14c0-.06-.09-.06-.06-.12s0,0-.05-.14c-.11,0-.11,0-.11-.11l.05-.12.06,0c-.06-.09,0-.09,0-.17l0-.12a1.39,1.39,0,0,0,0-.17s0-.08,0-.14.05,0,0-.17,0-.22,0-.28,0-.06,0-.08.09-.09,0-.12a.78.78,0,0,1,.2-.42l0-.06c0-.05,0-.31.05-.34s.09-.17.14-.17,0-.08,0-.14,0-.08,0-.11.06-.06,0-.2.08,0,.11-.08l.08-.15c0-.34.06-.51,0-.62l.14-.06a.12.12,0,0,1,0-.14l0-.17a1.06,1.06,0,0,0,.14,0,1.06,1.06,0,0,1,0-.28l.17-.11.08-.17,0-.11c-.06,0,0-.06.06-.15l.16-.14a.1.1,0,0,1,0-.08c0-.14-.11-.31.22-.31,0,0,0,0,0-.06h0l.08-.2s0-.08.11-.11,0-.06.08,0v0l.09-.06s0,0,0-.05a.14.14,0,0,1,.05-.09l.22-.25,0,0,.12-.11.11-.12h.08c-.06-.11,0-.22.17-.2s.05,0,.11,0a.11.11,0,0,0,.11-.08s.11-.06.24.06a.16.16,0,0,0,.14,0l.33.22.28.09c.06.11.11.11.11.14a.18.18,0,0,1,.11,0s0,.08.06,0a1.6,1.6,0,0,1-.5,1h-.06l-.27.2v.06l-.06.11-.16.17a.13.13,0,0,0,0,.08l-.28.2V45a.16.16,0,0,1-.11.06.51.51,0,0,1-.16.28s0,0,.11.11c-.09,0-.14.06-.2.09s.09.11,0,.14l0,.06c0,.05-.06.08-.06.14a.21.21,0,0,1-.17.23,0,0,0,0,0,0,0l.14.09c0,.08-.06.11-.2.11a.42.42,0,0,1,0,.37l-.06.14a.58.58,0,0,0-.25.31s0,.06,0,.12,0,0,0,.05h0a.81.81,0,0,1,0,.17.24.24,0,0,0-.11.17h-.11a.23.23,0,0,1,0,.11l-.13.51c0,.06-.09.12-.09.17l-.05.12s0,0,0,.08a.54.54,0,0,0,0,.31c0,.09,0,.12,0,.14v0l0,.12s0,.14.09.25c-.12,0-.12.09,0,.17v.11l.16.23.14.31a.1.1,0,0,0,.08,0l.17.08v0a1,1,0,0,0,.58.25c.17.06.28.06.36,0l.06,0,.22-.14.3-.11.64-.29v0a.18.18,0,0,1,.22,0,2,2,0,0,1,.49-.26l.09,0c.08-.08.27-.14.33-.22v0l.16-.15s.09-.08.11-.08a1.44,1.44,0,0,1,.39-.2l.17-.17h0c0-.08.11-.11.28-.14l.11,0,.16-.2c0-.09,0-.11.2-.17v0s0-.09.08-.09,0,0,0,0,0,0,0-.08a.18.18,0,0,1,.09-.14l0,0s0-.06.06-.11a.22.22,0,0,0,.08,0l.42-.29v0l.19-.17s0,0,.11-.11l.08,0s0-.42.25-.17v0c0-.25.25-.22.25-.42l.11.08a1,1,0,0,0,.14-.17s0-.11,0-.14l.11-.11c-.09,0,0-.09.19-.09h0l.11,0v-.14l.2-.17.22-.2.27-.23a2.87,2.87,0,0,1,.64-.82c.05-.08.05-.11.14-.08s.05-.17.08-.17c.36-.2.94-.65-.08.73l-.06,0v.11l-.27.4v.11L169,46v.14h-.08l0,.26h-.08Zm-6.44-6.42s0,0-.05-.06l0-.34a.52.52,0,0,1,.11-.17.19.19,0,0,1,.11-.25l.06-.15a.06.06,0,0,0,0,0,.54.54,0,0,0,.08-.57s0-.08-.08-.22H163l.25.22v0l.25.12h.11l.11.14v0l.38.34c-.05.06-.05.06,0,.17l.08.11c0,.12.06.2-.22.2-.05-.06-.08,0-.11,0s0,.05-.14.11a.41.41,0,0,1,0,.09.31.31,0,0,1-.28.19c0,.09-.08.17-.19.26v.08c0,.09-.17.12-.33.2a.36.36,0,0,1-.42,0c-.08,0-.14,0-.16-.17Zm4.92,6.73s0,0,0,0Z"/><path class="cls-1" d="M183.32,46.34l-.09.11h-.14l-.24,0-.06.09h-.11l0,.08-.05-.05-.11,0h-.06v.09h-.22l0,0-.11,0-.08,0v0l-.14,0v.06l0,0-.36.06,0,0-.06.08h-.22l-.36.06-.08-.06-.36.09-.14-.09-.16.11-.06.09-.3-.06-.14,0c-.08.4-.36.57-.47.82s-.08.34-.22.65l-.55.66s.05,0,0,0-.06.14-.14.26-.14,0,0,.19c-.33,0-.44.4-.58.6a.62.62,0,0,1-.28.31l-.66.62h-.08c0,.2-.28.4-.47.54s-.39.2-.5.25-.19.17-.36.37a.52.52,0,0,0-.25,0,5,5,0,0,0-.61,0,.41.41,0,0,1-.19,0c-.19-.17-.19-.22-.28-.22s-.25,0-.38-.2c0,0-.23,0-.25-.12-.2-.11-.2-.16-.22-.25v-.06a1.12,1.12,0,0,1-.14-.79c.11,0,0-.17,0-.2a1.61,1.61,0,0,1,.41-.56.38.38,0,0,1,.2-.26,6.67,6.67,0,0,1,1.07-1c.11-.23.36-.29.53-.54.14,0,.14,0,.16,0l.12-.06c0-.05.08-.08.19-.08.19-.26.61-.4.83-.57.38-.22.77-.53,1.19-.76a5,5,0,0,1,.8-.26l.13-.62c.39-.25.39-1,.42-1.38h0v-.2h0V44.1h0v-.05c-.27-.34-.33-.37-.16-.48-.09-.09-.06-.37-.28-.37a.71.71,0,0,0-.55-.12,2.09,2.09,0,0,0-.58,0c-.28.08-.69,0-1,.14s-.49.34-.71.34-.36,0-.34.2c-.13,0-.13,0-.13.11l-.14-.2c-.17.14-.28.14-.33.34-.14-.08-.14.17-.28.17s-.22.09-.3.09-.14.17-.25.19,0,.09-.09.15h0a2.29,2.29,0,0,1-.47.53c-.2,0-.2.06-.22.17s-.17.31-.42.43-.16.51-.5.54a.63.63,0,0,1-.24.5c-.17,0-.17.17-.31.29s-.19.14,0,.39a1.94,1.94,0,0,1-.3.2s-.06,0,0,.2c0,0,0,.17,0,.17-.19,0-.22,0-.19.14-.08-.11-.14-.11-.14-.11.2.37,0,.62-.11.65a2,2,0,0,0-.47.71c0,.14-.11.42-.27.48,0,.17-.09.25-.2.25h-.08a2,2,0,0,1,0,.42s-.08,0-.08,0,.08.34,0,.34-.25.12-.42.2c0,.23.14.28.17.45a.3.3,0,0,0-.25.15c.05.14-.14.19-.14.33s-.08.15,0,.17a.34.34,0,0,1-.11.32l0,.08a2.25,2.25,0,0,1-.19.57,7.19,7.19,0,0,0-.53,1.16c.06.08.06.11-.14.11,0,.23,0,.31,0,.34a1.81,1.81,0,0,1-.44,1.21c0,.12-.36.15-.52.12s-.34-.06-.36-.09c-.2,0-.28-.17-.5-.48-.09-.05-.09-.22-.09-.25,0-.54,0-1.08,0-1.59,0-.34,0-.7.22-.87a3.84,3.84,0,0,1,.17-1,14.74,14.74,0,0,1,.5-2.07l.44-1.78a8.62,8.62,0,0,0,.33-1.75,1.09,1.09,0,0,0,.25-.54,4.68,4.68,0,0,0,.22-1.19,3.62,3.62,0,0,0,.36-.93c.08-.37.17-.51.28-.93a5.45,5.45,0,0,0,.36-1,2.13,2.13,0,0,1,.3-.9,12.33,12.33,0,0,1,.19-1.25l0,.09.42-1.19,0-.08h0l.28-.57v-.06l.25-.79,0-.11h0l.11-.77,0,0v0l.08,0,.25-.9.11-.2c0,.28.11-.12.08-.23.14-.28.34-.34.39-.68a4.42,4.42,0,0,0,.28-.9c.11-.12.11-.2.25-.29a3.6,3.6,0,0,1,.33-1.13c.13-.31.27-.65.38-.87a6.78,6.78,0,0,0,.47-1.62,1.46,1.46,0,0,0,.33-.7l.23-.6a4.31,4.31,0,0,0,.19-.9l-.08-.2c0-.14-.06-.31,1.16-.34.11,0,.22.31.36.31a.68.68,0,0,1,.3.71c0,.34,0,.45,0,.65s.08.48,0,.73c0,.09,0,.09-.16.26,0,.2-.2.31-.25.62a5.65,5.65,0,0,0-.3.57,2.05,2.05,0,0,1-.34.48c-.05.14-.11.53-.3.68a1.25,1.25,0,0,1-.36.7s.05,0,0,.15l0,.25a1,1,0,0,1,.23-.76l-.12-.15c-.08,0-.16.15-.24.34,0,0,0,.17,0,.2-.08.2-.14.54-.28.91.2,0,.2,0,.2-.12s.08-.39.24-.42l-.22.54-.3.76h-.06l0-.11c0-.06,0-.06.13-.2s0-.34,0-.45a4.66,4.66,0,0,0-.22.45h-.16a1.12,1.12,0,0,1-.11.59s0-.14-.12-.14a1.72,1.72,0,0,0-.19.62c-.14.09-.14.12-.16.12,0,.25,0,.54,0,.71,0,0,0,0,0,.19l0,0v0c0,.06,0,.06,0,.09V35.5c-.3-.19-.22.2-.38.2s-.14,0-.11.26c0-.23,0-.23.16-.23-.05.28-.16.82-.41.93,0,0,0,.12,0,.17,0,.23,0,.31-.22.46,0,.22,0,.22-.11.28v-.06a.89.89,0,0,0,.11-.37s.16-.11.11-.31v-.08l-.22.11a1.23,1.23,0,0,1-.14.68c.16.25.16.25.16.37s-.05,0-.05,0c0,.28,0,.31,0,.31s0,.14-.25.28v.06c-.11-.2.2-.31-.11-.68.06.28.11.31.06.31-.14.31-.14.68-.25.85a20.06,20.06,0,0,0-.67,2c0,.4-.33.68-.38,1.25a9.84,9.84,0,0,1-.47,1.39,2.52,2.52,0,0,1-.2.84l0,.23c.06.17.11.2.14.11a2.1,2.1,0,0,1-.22.6c0-.2.14-.4.11-.51,0,.05,0,.05,0,.08a2.46,2.46,0,0,0-.52,1.22c-.06.06,0,.31-.06.4,0,.25-.14.59-.19.87s-.17.82-.39,1.39c0,.06,0,.06,0,.2s0,.11,0,.17,0,0,0,.08c-.08.37-.28.6-.19.91s-.17.31-.12.62c0-.14,0-.14.12-.23s0-.08.13-.08c.17-.17.17-.6.36-.82a3,3,0,0,1,.53-1c0-.15.14-.15.33-.34.08-.4.25-.51.47-.94a1.77,1.77,0,0,1,.22-.62,4.35,4.35,0,0,0,.5-.45c0-.12,0-.26.11-.31h0a.46.46,0,0,0,.33-.31.33.33,0,0,1,.16-.29c.14,0,0-.11,0-.28a2.19,2.19,0,0,0,.39-.26c.11-.14.11-.45.27-.5s.11,0,.09-.06,0-.2.11-.2a2.85,2.85,0,0,0,.58-.73,2.9,2.9,0,0,0,.58-.4c.22-.09.52-.34.8-.45s.14-.17.16-.17a3.63,3.63,0,0,0,.89-.4c.19,0,.5-.06.8-.06a3,3,0,0,1,.55-.08h.58a7.15,7.15,0,0,1,1,.4,2.59,2.59,0,0,1,.69.42,2,2,0,0,1,.58.48l.14.26v0h0l.22.32,0,.05v.09h0v.08c-.06.06-.06.09,0,.17a3,3,0,0,1,.16,1.25s0,.05,0,.05a.52.52,0,0,1-.09.31v0a.15.15,0,0,0-.05.12h0v0l-.08.09v0h0v.14h0c.06,0,.25,0,.25-.08l1.05-.28v0l.64-.2s.58,0,.63-.09l1.71-.71s.58-.28,1.74-1v0h0l0,.09.08,0,.06,0v0H186l0,.06a.1.1,0,0,1,0,.06c-.19,0-.25,0-.22.17s0,.39-.52.37h-.06l-.25.31a3.19,3.19,0,0,1-1.46.82s0,0,0,.17Zm-10.78-2c-.17.2-.31.62-.66.85,0,.14,0,.14,0,.14-.2.2-.2.31-.39.34a.54.54,0,0,0-.3.43c0,.14-.25.19-.25.33a4.07,4.07,0,0,1-.69.94s-.09,0-.09,0l.06.19a1.89,1.89,0,0,0-.28.46,5.14,5.14,0,0,0-.38.85c-.28.25-.47.36-.39.53-.19.4-.22.63-.33.65-.14.46-.31.68-.44,1.08a1,1,0,0,1-.39.76c0,.34,0,.6,0,.65,0,.31-.19.46-.22.8l0,.19.17-.17a.79.79,0,0,1,.16-.53c.06,0,0-.17,0-.34a.46.46,0,0,1,.22-.37s0,0,0-.23a.68.68,0,0,0,.28-.7c.08,0,.08,0,.08-.17a1.17,1.17,0,0,0,.08-.37.41.41,0,0,0,.28-.31c0-.09.05-.23.05-.31s-.08,0,0-.23c.09,0,.06-.06.06-.06,0-.34.25-.36.22-.51a.31.31,0,0,0,.3-.36l0-.15.08-.05c0-.14.17-.28.25-.14,0-.14-.05-.2,0-.4s.11-.11.2-.11.08-.43.3-.46.06-.19.06-.19c-.06-.2.13-.2.13-.31s.14,0,.09-.15,0-.14,0-.14.16-.14.41-.14l0-.42h.14a.37.37,0,0,0,.33-.51.52.52,0,0,0,.31-.4c.19-.14.3-.14.3-.37.11.17.11.17.2.17,0-.25,0-.51.22-.59l.19-.26c.06-.11.25-.11.25-.36A1.38,1.38,0,0,0,172.54,44.3Zm-4.09,5.29a.89.89,0,0,1-.06.43A2.33,2.33,0,0,1,168.45,49.59Zm.63-2.69c0,.4-.11.46-.11.68h0C169,47,169,47,169.08,46.9Zm.72-2.8a6.19,6.19,0,0,1,.22-.65,2.07,2.07,0,0,0,.06-.28h.16c-.16.2-.19.28-.19.42a1.31,1.31,0,0,1-.22.8c-.06,0,.08.17-.11.19C169.61,44.41,169.75,44.27,169.8,44.1Zm.53-1.33v-.11a.93.93,0,0,1,.22-.62h.08C170.58,42.35,170.58,42.66,170.33,42.77Zm.44-1.47c-.06-.2,0-.37.06-.39A1.22,1.22,0,0,1,170.77,41.3Zm.22-.9c0-.23.17-.6.17-.85h.16a6.11,6.11,0,0,1-.33,1Zm.86-1.81a.78.78,0,0,0,.27-.82c.11,0,.17-.2.17-.23s0-.2,0-.25a.22.22,0,0,1,.16-.2c0-.06,0-.34.14-.43l.06-.36c0-.12,0-.26.13-.29s.09,0,.12-.28c0,0,0,0,0,0a2.55,2.55,0,0,1-.16.71c-.14.34-.31.88-.47,1.36a1.36,1.36,0,0,1-.31.65c0,.17-.08.28-.11.51C171.85,38.7,171.9,38.64,171.85,38.59ZM172.4,36c-.14,0-.14.17-.19.45A1,1,0,0,0,172.4,36Zm.11-.51a.4.4,0,0,0,.14-.28C172.51,35.22,172.51,35.48,172.51,35.5Zm.17-2.91a.61.61,0,0,0-.14.37v.2h0a1,1,0,0,0,.11-.49Zm.19,2c-.22.28-.22.4-.14.59,0-.31.17-.39.14-.56Zm.06-.28c0-.09.24-.23.13-.34C173,34,172.93,34.17,172.93,34.29Zm.16.87c.08-.31.22-.39.17-.56v0c.22,0,.22-.17.25-.26l0-.11.08.09a3.2,3.2,0,0,1-.47,1.19s0-.15-.08-.17C173.12,35.31,173.09,35.22,173.09,35.16Zm.28-4.18c-.06.17-.2.17-.09.25-.11.06-.11.06,0,.2C173.28,31.32,173.37,31.23,173.37,31Zm-.11,12.78c-.06,0,0,.12,0,.2.11-.08.3-.08.27-.25A1.15,1.15,0,0,0,173.26,43.76Zm.83-.59c-.11,0-.2,0-.36.25A3.39,3.39,0,0,1,174.09,43.17Zm0,6.51c.14-.17.14-.2.17-.2l.27-.34.56-.43c.13,0,.22-.11.27-.17l0-.08c.11,0,.22-.11.38-.2s.17-.2.25-.2h.17s.11,0,0-.08c.33-.14.47-.26.83-.4h0c.11-.08.11-.11.22-.25a1.5,1.5,0,0,0,.36-.14c.2-.14.33-.17.53-.31h0c0-.06,0-.09,0-.12l.08-.17s-.05,0-.05,0-.39.14-.53.28h-.16c0,.12,0,.12-.2.12,0,.11-.11.2-.19.28s-.25.17-.52.23-.47.19-.53.34a.38.38,0,0,1-.36,0,.33.33,0,0,1-.16.42,1.68,1.68,0,0,0-.86.59,2.93,2.93,0,0,0-.55.37s-.06,0,0,.17.06.06-.13.09H174c0,.11-.09.11-.09.17l-.05,0c.05,0,.05.09.05.09a.09.09,0,0,0,.09-.09C174.09,49.68,174.09,49.68,174.14,49.68Zm3.7-2.07a.83.83,0,0,0-.22.14c-.25.09-.25.26-.41.26l-.55.31-.86.62c-.17,0-.19.06-.3.2a.61.61,0,0,1-.25.34,1.67,1.67,0,0,0-.64.59c-.19.09-.3.29-.5.6,0,0-.05,0,0,.08a1.39,1.39,0,0,0-.16.4v.17h-.06s0,0,.06,0h.11c.5,0,.61-.34.91-.43a3,3,0,0,1,.58-.48,4.84,4.84,0,0,0,1-1l.8-1C177.32,48.15,177.62,47.81,177.84,47.61Zm-1.76-4c.11-.14.3-.36.47-.39C176.41,43.51,176.21,43.51,176.08,43.59Zm1-.42s-.06,0-.06,0v0Zm0,0,.08-.06h.14Zm1.66,4h0l-.25.14a.46.46,0,0,0,0,.2,1.37,1.37,0,0,0-.39.54c-.19.11-.19.28-.46.68v.25c.08,0,.33-.08.27-.37.06,0,.25-.28.33-.34-.08-.11,0-.11,0-.17,0-.28.22-.45.58-.65A.73.73,0,0,1,178.76,47.13Zm1.21-.79v-.06h0S180,46.31,180,46.34Z"/><path class="cls-1" d="M190.5,51.57l-.08.09-.14,0,0,.14a.08.08,0,0,1-.11,0c-.08,0-.13,0,0-.06s.08-.31.16-.31.06.06,0,0v0h0c-.13.2-.24.22-.44.34s0,.08,0,.11v.08h-.17s0-.08,0-.08v-.08s0-.17,0-.15,0,.12-.11,0c0,.09,0,.14,0,.2s-.06.06-.12.11,0,0,0,0-.17,0-.22,0-.22.2-.31.26-.25,0-.27.08-.06.2-.11,0a.09.09,0,0,0-.06,0s0,.09-.06.09-.11,0-.19,0a1.83,1.83,0,0,0-.8.28.48.48,0,0,1-.25-.08c-.05-.12-.11-.06-.17.05a.3.3,0,0,1-.11.12c-.11,0-.22,0-.13,0-.06-.09-.06-.14-.14-.17-.11.14-.28.08-.42.05s-.05,0-.05,0c0-.2-.42-.34-.55-.29s0,0,0,0c-.2.06-.39.06-.28-.14,0,0-.06,0-.06.06h-.05v0l.11-.06h.06v0a.13.13,0,0,1,0-.09h-.11c-.06,0-.17,0-.2-.08s-.16-.12-.16-.2.08-.14-.06-.17a.72.72,0,0,1-.22-.17.3.3,0,0,1-.08-.23c0-.05,0-.11-.08-.17s-.06-.08-.09-.11l-.08.11c0,.06,0,.06,0,.09l0,0a1,1,0,0,1-.08-.26.21.21,0,0,0,0-.22.45.45,0,0,0,0-.17,2.59,2.59,0,0,1,0-.51.72.72,0,0,0,0-.31.64.64,0,0,1,0-.34,2.63,2.63,0,0,0,0-.88v-.08a.75.75,0,0,1,.11-.46c.2-.08.2-.28.23-.45v-.05s-.06,0-.09,0a.17.17,0,0,1-.11,0s-.05-.06,0-.06a3.57,3.57,0,0,0,.25-.65c0-.06,0-.06,0-.09s.06.06.06.06v0c0,.08,0,.11.16,0a8,8,0,0,1,.42-1l.13-.46a.15.15,0,0,0,.12-.17.55.55,0,0,0,.13-.48c0-.08.09-.17.22-.2s.25-.22.28-.36a.18.18,0,0,0,.08-.17.26.26,0,0,1,.22-.4c.09-.06.14-.08.11-.14s0-.23.09-.23.19,0,.19-.14l.14-.31a.61.61,0,0,1,.22-.23,1.12,1.12,0,0,1,.44-.34c.09-.11.25-.14.33-.28a1.17,1.17,0,0,1,.31-.37.23.23,0,0,0,.19-.17c.08-.05.11-.14.2-.14s.22-.11.33-.14.16-.08.25-.11.35-.09.6-.06a.72.72,0,0,1,.22.14l1,.34a1.8,1.8,0,0,1,.74.63v.08c0,.37.2.76,0,1.13a1,1,0,0,0-.05.28,1.24,1.24,0,0,0-.14.37l-.14.17c-.16.34-.33.51-.47.88-.05.08-.16.06-.22.2a3.94,3.94,0,0,0-.19.36s-.06.09-.11.12-.11,0-.14,0l-.14.31c-.11.14-.11.28-.25.31l0,.11c-.11.12-.17.26-.31.31-.14.26-.36.37-.55.6a1,1,0,0,1-.3.36c-.2.12-.45.32-.64.32,0,0-.11.08-.11.11s-.28.14-.36.08a.41.41,0,0,0-.17.12c-.05.11-.16.11-.3.05l-.22,0a.87.87,0,0,1-.66-.2.3.3,0,0,0-.28-.09c-.08,0-.06.12-.06.17a1.44,1.44,0,0,1-.22.26.74.74,0,0,0-.11.28,6.2,6.2,0,0,1-.08.74,1.27,1.27,0,0,0,0,.34c0,.14.11.28,0,.39s-.06,0,0,0c.05.2-.09.31-.06.48a.18.18,0,0,0,.06.14c.13.06.13.11.16.2s.11.28.17.37a.42.42,0,0,0,.05.2h.11l-.08,0h0l.19,0,.28,0c0,.06.08.12.08.15h0a3.11,3.11,0,0,1,1-.09l0-.06c.22-.08.36,0,.52,0,.09-.17.2-.17.25-.29s.06,0,.09,0a2.56,2.56,0,0,0,.74-.14c0-.06,0-.06.06,0s0,0,.08,0,.14-.2.28-.23,0,0,.08,0,.17,0,.17,0l0,0c.06-.12,0-.14.06-.28s.16.08.22.08.11,0,.17,0,.19-.11.19-.22a0,0,0,0,1,0,0,1.62,1.62,0,0,1,.3-.09c.11.06.19-.14.25-.2s.25-.19.55-.31c.89-.51,1.08-.85,1.8-1.18-.14-.12.44-.23.47-.29a10,10,0,0,0,1.66-1.58c.16,0,.33-.14.41-.12l0,0a.13.13,0,0,0,.05-.12c0-.25.25-.17.2-.39a1.35,1.35,0,0,1,.19-.29l.17,0c.11-.06.13,0,.19.11s.06,0,.06,0,.05-.06.05-.09-.08-.14-.11-.22l.33-.17s0,0-.05,0,0-.09-.06-.06,0-.08.11-.14,0,.06.14,0,0-.05.19-.08v-.09l.09,0a.13.13,0,0,1,0,.06c.11-.06.2-.06.2-.09-.17-.25.38-.54.27-.34-.05,0,0,.06-.05,0s-.09.14,0,.14.16.09.19.09.06-.06.06,0-.06.11-.22.14l0,0c-.11.05,0-.06-.22.05a.41.41,0,0,0,0,.09c.09,0,.06.08.09.14-.33.11-.47.45-.8.73,0,0,0,0,0,0s-.14,0-.06,0,.06-.06,0-.12v0c0,.06-.11.06-.11.09s.17.08.11.22a7.17,7.17,0,0,1-.72.57c0,.08,0,0-.08,0a.13.13,0,0,1-.06,0s.06,0,0,.08.06.11.08.14a.26.26,0,0,1-.13.14s0,.06-.09,0-.08,0-.08.09l0,.14c.09.14-.41.2-.47.25.14.2,0,.37-.27.57-.11-.06-.58.56-.56.65s-.13,0-.22.11l-.14.17c-.11,0-.19,0-.3.06a.29.29,0,0,1-.3.17s-.11,0-.09.06,0,.14-.08.11c-.08.14-.08-.06-.25-.06s-.22.06-.16.17,0,0,0,.11c.19,0-.11.29-.17.37-.08-.11-.22-.14-.16-.25s0,0,0,0-.06.17-.17.26c.14,0,.14,0,.17,0s0,.14-.14.17l-.27.17c-.14-.12,0-.26.05-.34L192,50h-.06c0-.48-.41,0,0,.08.12.14,0,.31,0,.42s0,.12,0,.12a.41.41,0,0,1-.11-.12.12.12,0,0,1-.05-.11v0l-.12,0v.12a.8.8,0,0,1,0,.19.94.94,0,0,1-.22.23l.33-.2h0s0,.06,0,.09l-.17.25c-.14.09-.17.06-.17,0l-.13-.05c0-.06.13-.06.08-.09s-.14,0-.22-.06-.11,0-.25.06c0,.14-.06.4-.14.34s-.28,0-.25.11,0,0,0,.06a.1.1,0,0,1,.08,0ZM190.2,42l-.11-.25a.56.56,0,0,0-.33-.09c-.22.06-.58,0-.67.23A.36.36,0,0,1,189,42a.56.56,0,0,0-.36.2c-.17.14-.31.39-.5.48s-.17.39-.42.51c-.05,0-.05,0-.05.08a.06.06,0,0,1-.06.06c-.11,0-.16.11-.22.22a1.3,1.3,0,0,1-.41.77v0a1.43,1.43,0,0,1-.28.63c-.11.22-.33.36-.3.68v0c-.2.12-.22.34-.28.6,0,0,0,.11-.14.14s-.08.28-.13.45a.51.51,0,0,0,.16.12.9.9,0,0,0,.42-.09,1,1,0,0,0,.58-.4c0-.11.05-.11.13-.14.28-.08.42-.31.72-.45a3.38,3.38,0,0,1,.31-.37c.16-.14.22-.28.38-.42.09,0,.17-.14.25-.2a4.14,4.14,0,0,0,.47-.51,5.14,5.14,0,0,0,.64-.93c0-.06,0-.2.16-.23s0-.06,0-.08c.06-.26.14-.43.19-.63a.45.45,0,0,0,0-.28A.71.71,0,0,0,190.2,42Zm.08,9.59s0,0,0,0Zm5.39-6.08.06,0s.13-.14.11-.19-.14,0-.17,0S195.73,45.52,195.67,45.52Zm.17-.14.11-.06A.24.24,0,0,1,195.84,45.38Zm1-.2s0,0,0,.08,0,0,0,0l0,0S196.89,45.23,196.83,45.18Z"/><path class="cls-1" d="M198.3,51.29l-.06,0-.05-.12s0,0,0,0-.08,0-.08-.06l-.14-.14c-.2,0-.22,0-.33-.23h0l-.14-.06-.5-.48-.05-.14c.11-.11,0-.25-.14-.39l0-.14c0-.06-.05-.06,0-.12s0,0-.09-.14c-.11,0-.11,0-.11-.11l.06-.12.05,0c-.05-.09,0-.09-.05-.17l0-.12a1.39,1.39,0,0,0,0-.17s0-.08,0-.14a.27.27,0,0,0,0-.17s0-.22,0-.28,0-.06,0-.08a.11.11,0,0,0,0-.12.77.77,0,0,1,.13-.42l0-.06c0-.05-.06-.31,0-.34s.09-.17.14-.17,0-.08,0-.14,0-.08,0-.11.06-.06,0-.2a.32.32,0,0,0,.14-.08l.06-.15c0-.34,0-.51,0-.62l.11-.06a.22.22,0,0,1,0-.14l0-.17a1.06,1.06,0,0,0,.14,0l-.05-.28.16-.11.08-.17,0-.11c-.05,0,0-.06,0-.15l.17-.14s-.06-.05-.06-.08-.14-.31.19-.31c0,0,0,0,0-.06h0l.06-.2s0-.08.11-.11,0-.06.08,0v0l.06-.06s0,0,0-.05,0-.06.08-.09l.2-.25,0,0,.11-.11.11-.12h.05c-.05-.08,0-.2.17-.17s.05,0,.11,0a.1.1,0,0,0,.11-.08s.11-.06.22,0a.17.17,0,0,0,.17,0l.36.23.27.09c.06.11.11.11.11.14a.18.18,0,0,1,.11,0s0,.08.06,0a1.31,1.31,0,0,1-.44,1h0l-.28.2v.05l-.05.12-.14.17a.13.13,0,0,0,0,.08l-.27.2,0,.17A.16.16,0,0,1,199,45a.67.67,0,0,1-.14.28l.12.11a.23.23,0,0,0-.17.09s.05.11,0,.14l0,0c0,.05,0,.08,0,.14a.21.21,0,0,1-.17.23s0,0,0,0l.17.09c0,.08-.06.11-.19.11a.56.56,0,0,1,0,.37l-.06.14a.48.48,0,0,0-.19.31s0,.06,0,.12,0,0,0,.05h0a.36.36,0,0,1-.05.17c-.06,0-.06.09-.09.17H198a.17.17,0,0,1,0,.11l-.11.51c0,.06-.06.12,0,.17l0,.12s0,0,0,.08a.37.37,0,0,0,0,.31c0,.09,0,.12,0,.14v0l0,.12c-.06,0,0,.14.11.25-.11,0-.11.09,0,.17l0,.11.14.23.19.31a.1.1,0,0,0,.08,0l.14.08h0v0a2.86,2.86,0,0,0,.36-.05c.19,0,.33-.06.39-.14l0,0,.28-.23.33-.28.75-.57a.26.26,0,0,1,.24-.11,1.43,1.43,0,0,1,.56-.45l.11-.09c0-.11.27-.28.33-.39v0l.22-.19.08-.15a2,2,0,0,1,.45-.34l.19-.28h0c0-.08,0-.14.28-.22h.11l.22-.32c-.08-.05.05-.17.22-.25,0,0,0-.08.06-.08s0,0,0,0-.05,0,.06-.12.11-.2.11-.2l0,0s0-.06,0-.14.14-.06.14-.09l.42-.45v0l.24-.26a.27.27,0,0,0,.09-.17l.11-.05c0-.06,0-.46.27-.29l.06,0c-.17-.2.17-.29.17-.54l.16,0s.11-.17.14-.2,0-.14,0-.17l.17-.17c-.09,0,0-.11.16-.17a.26.26,0,0,0,.08-.06l0-.17.22-.25.25-.34L207,42l.13-.28h-.38l0,0h-.22l-.06.05h0l-.06,0V41.7h0v0h-.05v0h0v.08l0,0h-.08c0-.05,0-.08-.11-.08l.14-.06H206c-.11-.11-.33-.2-.5-.34a.18.18,0,0,1,0-.17c-.28-.06-.34-.25-.47-.48s0-.2,0-.25-.08-.12,0-.29-.08,0-.08,0a.39.39,0,0,1,0-.32A7.66,7.66,0,0,1,205,39c0-.08.06-.11.06-.17s.16-.22.11-.42l.3-.37a.45.45,0,0,1,0-.2.17.17,0,0,0,0-.11.86.86,0,0,0,.19-.31c0-.14.12-.2.12-.26s.05-.11.05-.11a2.88,2.88,0,0,0,.3-.31c.09-.14.06-.2.12-.28a.33.33,0,0,1,.13-.31c.14-.17.31-.26.39-.4a.36.36,0,0,1,.28-.11c.08-.09.11-.2.22-.29h.08c.33,0,.55,0,.88,0a1,1,0,0,1,.58.25.27.27,0,0,1,.23.08s0,0,0,.06a.59.59,0,0,1,.25.09h.14a1.58,1.58,0,0,0,.22.31,5.34,5.34,0,0,0,.16.53c0,.12-.08.23-.08.37s-.14.48-.16.71-.23.48-.23.76c0,.12-.05.17-.05.29s-.14.22-.19.51h-.11a.47.47,0,0,1-.09.36c-.14.17-.11.31-.16.46-.06,0-.06.08-.17.17.06.14.06.14,0,.17v0a1.6,1.6,0,0,0,.5,0l.25,0a5.52,5.52,0,0,0,.77-.2,7.2,7.2,0,0,1,.83-.14h.45c.3,0,.41-.06.55-.06s.3,0,.3.06h.28a4.2,4.2,0,0,1,.55.22c0,.06.06.06.14.06s.3.14.39.23a1.43,1.43,0,0,0,.49.39c.17.12.25.17.28.37a2.13,2.13,0,0,1,.11.51,3.21,3.21,0,0,1,.06.4l0,.08c0,.09,0,.11,0,.11s0,.34-.06.49-.06.16-.06.25-.22.37-.27.57a1.23,1.23,0,0,1-.31.67v.09a.29.29,0,0,1,.06.2.51.51,0,0,0-.28.45c0,.08,0,.08,0,.17s-.06,0-.06.11l-.05.09a.61.61,0,0,0-.2.34.3.3,0,0,1-.16.25s0,.12-.09.12c.06.19-.05.28-.19.45a0,0,0,0,1-.05,0c0,.17-.11.26-.17.43s-.08.17-.08.34a.08.08,0,0,0-.09.08.94.94,0,0,0-.24.51s0,.12-.11.12a.83.83,0,0,0-.25.53c-.06.14-.14.31-.22.54a1.1,1.1,0,0,0-.17.17,2,2,0,0,0-.25.59l-.16.29a.27.27,0,0,0-.17.25l-.22.62c-.08.12-.06.32-.08.37,0,.2,0,.31-.11.37,0,.23,0,.31,0,.37a1.38,1.38,0,0,0,0,.37v.08c0,.25.14.51.44.51a.64.64,0,0,1,.28.14c0,.09.16.17.16.23s0,.19,0,.31h-.08a1.58,1.58,0,0,1-.39,0,3,3,0,0,1-.55,0c-.06-.08-.14-.08-.25-.22s-.08-.06-.17-.06a1.49,1.49,0,0,1-.52-.51c-.06-.11-.22-.26-.25-.37v-.08a1.22,1.22,0,0,0-.06-.43c.06-.22,0-.48,0-.65a2.08,2.08,0,0,1,.22-.73,1.09,1.09,0,0,0,.08-.4c.06-.06.06-.14.12-.25s.11-.32.24-.57c.09-.06,0-.11.14-.31a1.2,1.2,0,0,0,.22-.54c.14,0,.14,0,.11-.06a.38.38,0,0,1,.12-.25c.11-.14.11-.4.22-.45s.08-.17.16-.26a1,1,0,0,1,.14-.28.82.82,0,0,1,.25-.45c.19-.31.28-.65.52-1,0-.06.09-.14.06-.17a2.25,2.25,0,0,0,.22-.51c.11-.28.33-.54.39-.76.11,0,.08-.06.08-.17a1.43,1.43,0,0,1,.17-.37,2.86,2.86,0,0,0,.19-.43c.05-.25.22-.45.22-.7s.11-.46.17-.6,0-.2.08-.2a1.4,1.4,0,0,0-.06-.25l.09-.11c0-.09,0-.17,0-.23a.33.33,0,0,0-.25-.4.75.75,0,0,0-.55,0h-.5a1.39,1.39,0,0,1-.55.08l-.06,0a2.6,2.6,0,0,1-.74.12.8.8,0,0,1-.34.08c-.08,0-.13.11-.19.11h-.19a.3.3,0,0,1-.22.09,2.08,2.08,0,0,1-.47,0c-.14,0-.2.08-.34.17s-.22.05-.33,0h-.11a2.31,2.31,0,0,0-.44.11c-.05,0-.11.06-.17.11h0V41.9h-.06l0,0h0l0,0,0,.11-.08.12v.14l-.05,0-.09.17h-.05v.26l-.09,0v.2s0,0-.11.11l-.22.2a2,2,0,0,1-.22.36.09.09,0,0,0-.08.12c.08.08.11.28-.14.28l0,0a.25.25,0,0,1-.11.22,1.26,1.26,0,0,1-.61.57c0,.06,0,.06,0,.09s0,.19,0,.25l-.14.06-.11.14.06.2c0,.19-.12.22-.28.22h0s0,.09-.08.26l-.25.2v0a.35.35,0,0,1-.17.17l0,0c0,.2,0,.29-.16.32l-.2.22a.51.51,0,0,1-.16.26l-.25.22,0,.06c0,.08-.14.28-.25.25l-.08.09c-.11.11-.17.2-.22.2l0,.05c0,.09-.11.23-.33.32l-.11,0s0,.12-.14.2,0,0,0,.17-.25.11-.28.11l0,.06a.92.92,0,0,1-.39.37l-.33.34a.28.28,0,0,0-.22.17l-.11,0A.33.33,0,0,1,201,50a.21.21,0,0,1-.16.12.27.27,0,0,1-.14.14,1.21,1.21,0,0,1-.47.34.91.91,0,0,0-.17.08c-.05,0-.05,0-.11.14a1.32,1.32,0,0,0-.33.15c0,.05-.11.11-.33.22l-.14-.08s0,0,0,0a1,1,0,0,1-.58.11.1.1,0,0,1-.08,0v.09h-.19Zm1.1-11.23v-.34a.43.43,0,0,1,.11-.17.18.18,0,0,1,.09-.26l0-.14s0,0,0,0a.53.53,0,0,0,0-.57s0-.08-.08-.23h.33l.25.23v0s.13.06.27.12h.14l.11.14v0l.39.34c-.06,0-.06,0,0,.17l.09.11c.05.11.08.2-.23.2-.05-.06-.08,0-.11,0a.33.33,0,0,1-.11.11.29.29,0,0,1,0,.08c-.06.12-.11.2-.28.2,0,.09-.08.17-.19.26v.08c0,.09-.11.12-.28.2a.37.37,0,0,1-.41,0c-.09,0-.14-.06-.17-.17l0-.26S199.46,40.09,199.4,40.06Zm6.77.68a.45.45,0,0,0,.28.08h.3c0-.08,0-.08.14-.14a1.1,1.1,0,0,1,.3-.31c0-.17.09-.31.06-.37s.17-.23.28-.28c-.06-.12.05-.2.08-.26a5.25,5.25,0,0,0,.16-.59.75.75,0,0,0,.23-.31.62.62,0,0,1,0-.2,1.4,1.4,0,0,0,.2-.57.43.43,0,0,0,.13-.25.66.66,0,0,1,0-.17l0-.11a.76.76,0,0,0,.14-.43l0-.11c-.11,0-.11,0,0,0l.09,0c0-.09,0-.17,0-.26a.44.44,0,0,1,0-.14v-.11h-.11c-.08,0-.14.11-.19.11s-.2.06-.25.14-.08.09-.06.15a.61.61,0,0,0-.27.28.29.29,0,0,0-.09.2.35.35,0,0,0-.24.28c0,.06-.06.06-.06.17-.19.14-.19.37-.3.51a.43.43,0,0,1-.09.28,4.35,4.35,0,0,1-.33.6c0,.08,0,.22,0,.28a.84.84,0,0,0-.19.28,2.54,2.54,0,0,0,0,.43c-.16.14-.14.42-.14.59S206.17,40.68,206.17,40.74Z"/><path class="cls-1" d="M215.18,47.58s0,0,0-.08,0-.12.08-.17v-.06s0,0,0,0-.12-.14-.12-.17.06-.19.14-.22,0,0,.09,0h.08c0-.26,0-.28.08-.31s.06-.09-.08-.17,0,0,0-.06h0c.06,0,.06-.08.09-.08s0,.08.05.08.14,0,.14,0-.14,0,0-.11a.46.46,0,0,0,0-.2s.08,0,.08.06.06,0,.09.08a.05.05,0,0,1,0-.08c0-.09-.08-.31,0-.34s0-.06,0-.06.14-.11.2,0a.09.09,0,0,0,.08-.14c0-.11.11-.17.16-.28s.09-.09.09-.09v0l-.11,0,.11.06c-.11,0-.2,0-.25-.06a.13.13,0,0,1,.14-.14c.08-.05.11,0,.22,0s0-.05,0-.08v0h0s-.11,0-.14,0,0,0,.11-.06.08-.14.19-.11.11,0,.11,0,.09-.11.17-.11l0-.29c0-.05-.09-.11,0-.11l.08-.2-.06-.11h-.08c0,.11,0,.11-.17,0s0,.2-.08.14v0l0-.11,0-.08h.06l.11,0,0-.09,0-.14h.16v0l.06-.14h0l0,0,.19-.05v-.06l.17-.09,0-.08.11-.06.06,0h.08l0,0,.08-.17.08,0h.11l.08-.06c.06-.11.09-.11.23-.11l.22-.14c-.06-.14-.06-.17.05-.23s.08,0,.08,0a1.38,1.38,0,0,0,.28-.06s.06,0,.06-.08l.16.11c.2,0,.39.23.44.23s.17.06.28.06l.08.14a.16.16,0,0,1,.09.28s-.06.06,0,.14-.06.11-.11.17a.51.51,0,0,0-.2.06l0,.11-.5.4s-.17,0-.22,0-.08.15-.14.29v0c-.17,0-.22.14-.3.22s-.14.14-.17.26,0,.08,0,.11-.16.14-.19,0h-.11l0,0s0,.11,0,.11,0,.09,0,.14l-.14.17h-.19c-.06,0,0,.06,0,.17a.16.16,0,0,0-.11.06c-.12,0,.05,0,.05,0s0,.08-.11.08-.19.12-.25.12h0l0,.19s0-.05-.08-.05h-.06l0,.05.08.06,0-.06h0c.05.12,0,.15-.08.15s-.25,0-.09.19,0,0,0,.12c-.17,0-.17.25-.34.42,0,.11,0,.11,0,.11s-.17.06-.14.09-.14.17-.11.25.08.12,0,0c.11.15-.08.23-.17.31s-.08.12-.08.15l0,.22s0,0-.13.06V48c-.06,0-.14.06,0,.08l0,0c-.19,0-.13.29-.25.34l-.11.06c.09.14.09.2.06.28s-.22.17-.17.28,0,0-.11.09,0,0,0,0a1.51,1.51,0,0,1,0,.34c0,.11,0,.14-.05.11l-.06,0c0,.05.08.08,0,.08s0,.2.08.29,0,.14,0,.28v.06c.11.08.14.31.2.42h.08c.11,0,.19-.09.3-.11s0-.15.14-.15a.29.29,0,0,1,.19-.11c.12,0,.23-.11.25-.25s.14,0,.17,0,0,0,.17-.06c0-.14,0-.14.13,0,0,0,.14,0,.09-.11h0s.06-.09,0-.14l0-.17,0,0s.11,0,.11,0,.09,0,.28,0c0,0,.08,0,.08-.06-.11-.2-.05-.23-.05-.42h.05l0,.19c.08,0,.08,0,.06-.11l-.06-.14s0-.06.06-.06.13.06.05.12a.14.14,0,0,0,.14.08s.11,0,0-.08.11-.12-.11-.26a.05.05,0,0,1,0-.08s0,0,.08,0h.36s0,0,0-.05,0-.23.05-.29h.11c.06.12.17.06.14,0s0-.11-.06-.14.06-.11-.11-.11v-.06c0-.11.34,0,.34-.22s0,0,.05,0,0-.14.08-.29,0,0,0,0-.13,0-.13.08,0,.09,0,.09l0-.09a.27.27,0,0,1,.16-.34s0,0,0,0,0,0,0,.11,0-.08.05-.08,0-.06.12-.06c0,0,0-.14-.17-.22s-.5-.26-.58-.46-.42-.36-.5-.62c0-.08,0-.22-.08-.31a.4.4,0,0,1,0-.2h.17s.08,0,.08,0a.57.57,0,0,1,.28-.22h.11l0,.08c0,.12-.11.14,0,.17s.08-.05.11-.05-.06-.12,0-.12,0,0,.05-.08l.12.17s0,0,.11,0l0,0h.09c0,.22.19.11.41.22l.55.26a.12.12,0,0,1,.06.11s0,0,.06.14.08.09.22,0a.31.31,0,0,0,.05.11h0l0,0,.06,0,.66,0a.22.22,0,0,1,.22-.09c.19,0,.41-.17.66-.14l.06,0s0,0,.19,0a.45.45,0,0,0,.17,0V46a3.91,3.91,0,0,1,.5-.08c0-.06,0,0,0,0s.17,0,.17.09c0-.09,0-.09,0-.12v0c0-.06,0-.06,0-.06s.22.06.19-.06.14-.11.31-.05.05,0,.11,0c.05-.2.16-.14.27,0l.11.11,0-.05a.43.43,0,0,0,0-.12c0-.05,0-.11,0-.11a.36.36,0,0,0,.11.06.47.47,0,0,1,.39-.23h0a0,0,0,0,1,0,0l-.14,0v.17l.17,0s0-.06.05-.06.06-.11.08-.14H225v-.09l0,0c.22,0,.33-.06.42-.26h0c.06.2.14.12.2,0l.36-.08c0,.2.19.28-1.72,1.53h0c0,.19-.22.05-.3.17-.08-.12-.19,0-.28.05s0,0-.19,0h-.11l-.69.31c-.06,0-.11,0-.08.12a1,1,0,0,1-.42,0h-.11c0,.14-.16,0-.28.08l-.05.06h-.17a.1.1,0,0,0-.19,0h-.05l0,.14c-.16-.11-.27.05-.33,0a1,1,0,0,0-.63.17v.28l-.14.28c0,.15-.08.17-.2.17s0,.06,0,.12c.23.08.06.11.09.19s-.09.06-.11,0H220c.06.09-.05.09-.11.26s0,.08,0,.11-.08.31-.3.4c0,0,0,0-.06.06l.06.17s0,.05,0,.08-.11.11-.11.17,0,.06,0,.06c-.19.08-.44.19-.39.31s0,0,0,0-.11,0-.11.05l-.14.23c0,.14,0,.14-.14,0,0,.17-.06.25-.22.28l-.36.17c0,.06,0,.06,0,.06s-.05,0-.14.08,0,.15-.08.15-.19,0-.19.08-.11.2-.22.09-.06,0-.06.11-.05,0-.08.06a.78.78,0,0,1-.28.08c0-.06,0-.06-.08,0s-.17.14-.19-.06h-.06c-.08.26-.25,0-.3,0s-.17,0-.31-.17l-.58-.31a.61.61,0,0,0,0-.22l-.11,0c-.11,0-.11-.14-.16-.29l-.11-.36s0-.09,0-.14,0,0,0,0l-.06-.12c.09-.22-.05-.59-.05-.82v-.14c0-.17.08-.22.08-.34s0,0,0-.08a1.09,1.09,0,0,1,.09-.62,1.45,1.45,0,0,1,0-.29Zm-.08,1.9c-.08,0-.08,0-.08.14v.06c0-.06.08-.06.08-.17Zm0-1.9v0C215.13,47.22,215.1,47.38,215.07,47.58Zm.06.29c-.06,0-.06.08-.06.08V48c.08,0,.08-.06.14-.09Zm.47-1.56v0h0Zm.11.11s0,.09,0,.12h0s.17,0,0-.15Zm.52-1.27v0h.09v0Zm.64-.71h-.14c.06.09,0,.09,0,.12-.08-.12-.06-.12-.06-.17l.11-.09Zm.08-.14h0s0,0,0,0h0Zm1,6.39a.41.41,0,0,1-.19,0s0,0,0,0l.05,0Zm.14-1.3s0,.17-.11.17l0,0h.09c.05,0,.05,0,.05-.17Zm.3-4v0h.08v0Zm.19,5c0-.06,0-.06-.05-.06s0,.09.11.17Zm.61-1.95.17,0h-.17Zm0,.22a0,0,0,0,0,0,0s0,0,.05,0l-.05-.06Zm.22-.51h-.11l0,.09h.11Zm.11-.11-.08,0,.05.11.09,0Zm.36-.31v0c.06.09.14,0,.14,0Zm2.85-1.7c0,.09,0,.09.08.09S222.81,46,222.73,46Zm1-.17a.17.17,0,0,1,0,.11v0h0a.1.1,0,0,0,0-.14Z"/></g></g></svg>